<svg width="186" height="186" viewBox="0 0 186 186" fill="none" xmlns="http://www.w3.org/2000/svg">
<path fill-rule="evenodd" clip-rule="evenodd" d="M92.5008 56.4124C91.3628 57.0753 87.4474 63.1554 85.3164 67.5681C84.1427 69.9986 82.9754 73.2733 82.5382 75.3612C82.1291 77.3157 82.1558 80.1082 82.5985 81.6581C84.0516 86.7459 88.4428 90.0969 93.6566 90.0969C98.8705 90.0969 103.262 86.7459 104.715 81.6581C105.157 80.1082 105.184 77.3157 104.775 75.3612C103.799 70.7012 100.816 64.5205 96.668 58.5676C95.684 57.1552 95.1915 56.5907 94.7438 56.3623C93.9585 55.9617 93.2473 55.9775 92.5008 56.4124ZM95.0849 64.8023C97.9981 69.5027 99.989 74.3844 100.355 77.7253C100.806 81.8319 97.7061 85.3688 93.6566 85.3688C90.3397 85.3688 87.5634 82.9944 87.0222 79.6947C86.6284 77.295 87.5702 73.7377 89.7962 69.2148C91.038 66.6924 93.4609 62.6355 93.6818 62.7091C93.7551 62.7336 94.3865 63.6753 95.0849 64.8023ZM54.5077 97.8679C53.3763 98.5719 53.0288 99.8001 53.6283 100.975C54.0066 101.717 54.7718 102.148 55.9477 102.281C57.3743 102.442 58.1185 103.136 60.3666 106.403C61.7435 108.403 63.4394 110.158 64.5945 110.778C66.204 111.641 68.4704 111.909 70.2465 111.447C72.563 110.843 74.1608 109.503 76.3529 106.324C78.6143 103.044 79.5387 102.228 80.9802 102.235C82.4365 102.244 83.4093 103.099 85.6741 106.362C88.6293 110.621 91.2248 112.101 94.8268 111.582C97.3981 111.212 99.2526 109.791 101.628 106.371C103.899 103.102 104.876 102.244 106.333 102.235C107.775 102.228 108.699 103.044 110.96 106.324C113.152 109.503 114.75 110.843 117.067 111.447C118.843 111.909 121.109 111.641 122.719 110.778C123.874 110.158 125.57 108.403 126.947 106.403C129.195 103.136 129.939 102.442 131.366 102.281C132.541 102.148 133.307 101.717 133.685 100.975C134.298 99.7737 133.914 98.4974 132.742 97.8386C132.153 97.5074 131.959 97.4782 130.986 97.5742C127.948 97.8735 126.232 99.1458 123.416 103.187C121.288 106.239 120.44 106.964 119.006 106.957C117.48 106.949 116.68 106.257 114.348 102.93C111.865 99.3888 110.069 98.0153 107.435 97.6428C104.869 97.2798 102.494 98.1045 100.598 100.017C100.031 100.589 99.0051 101.871 98.3188 102.866C96.0079 106.216 95.1606 106.96 93.6566 106.96C92.1483 106.96 91.3516 106.257 88.9247 102.784C88.1979 101.744 87.1659 100.459 86.6312 99.9284C84.7844 98.097 82.3923 97.2872 79.8784 97.6428C77.2442 98.0153 75.4483 99.3888 72.9654 102.93C70.633 106.257 69.8328 106.949 68.3069 106.957C66.8729 106.964 66.025 106.239 63.8974 103.187C61.0597 99.1148 59.3141 97.8331 56.2597 97.5792C55.2383 97.4942 55.0612 97.5236 54.5077 97.8679ZM79.0175 113.986C76.761 114.593 75.1801 115.933 72.9751 119.11C70.7133 122.369 69.8209 123.18 68.4903 123.189C66.2313 123.205 65.1372 125.822 66.7847 127.268C67.481 127.88 68.1895 128.008 69.599 127.778C72.1357 127.363 73.9406 125.954 76.3663 122.495C78.6987 119.168 79.499 118.476 81.0249 118.468C82.4589 118.461 83.3067 119.186 85.4342 122.238C88.4709 126.596 90.2718 127.818 93.6566 127.818C97.0414 127.818 98.8423 126.596 101.879 122.238C104.113 119.034 104.938 118.368 106.513 118.499C107.976 118.62 108.855 119.452 111.435 123.155C113.433 126.024 115.268 127.383 117.691 127.787C119.074 128.018 119.833 127.879 120.529 127.268C122.176 125.822 121.082 123.205 118.823 123.189C117.492 123.18 116.6 122.369 114.338 119.11C112.106 115.894 110.543 114.581 108.228 113.978C106.452 113.516 104.186 113.784 102.576 114.647C101.421 115.267 99.7252 117.022 98.3482 119.022C95.9303 122.535 95.2695 123.111 93.6566 123.111C92.0532 123.111 91.3297 122.486 89.0085 119.095C87.5971 117.033 85.9096 115.276 84.7371 114.647C83.1375 113.789 80.7681 113.515 79.0175 113.986Z" fill="#373636"/>
</svg>
