<svg width="186" height="186" viewBox="0 0 186 186" fill="none" xmlns="http://www.w3.org/2000/svg">
<path d="M76.3775 2.87534L80.3516 2.12274L82.5725 13.8502L78.5182 14.618C77.354 14.8384 76.3094 14.793 75.3843 14.4819C74.4563 14.1751 73.6843 13.6273 73.0682 12.8384C72.4522 12.0495 72.0289 11.0462 71.7983 9.82842C71.5669 8.60683 71.5952 7.51399 71.8832 6.54994C72.1674 5.5866 72.6907 4.78954 73.453 4.15877C74.2117 3.52872 75.1865 3.10091 76.3775 2.87534ZM78.5753 4.36321L76.8287 4.69396C76.0118 4.84867 75.3586 5.1266 74.869 5.52775C74.3803 5.93272 74.0548 6.45899 73.8927 7.10657C73.7313 7.75798 73.7356 8.53223 73.9056 9.42936C74.0754 10.3265 74.3539 11.0448 74.7408 11.5845C75.1284 12.128 75.6192 12.4957 76.2131 12.6877C76.8039 12.8843 77.4963 12.9074 78.2904 12.757L80.0999 12.4143L78.5753 4.36321Z" fill="#91A8A3"/>
<path d="M63.0691 6.33386L67.4542 17.435L60.2341 20.287L59.5682 18.6012L64.7773 16.5436L63.5868 13.5298L58.7517 15.4396L58.0858 13.7539L62.921 11.844L61.724 8.81399L56.4716 10.8887L55.8057 9.20295L63.0691 6.33386ZM65.0247 19.6605L64.7889 22.6173L62.8701 23.3753L63.5557 20.2408L65.0247 19.6605Z" fill="#91A8A3"/>
<path d="M48.0068 13.1752L54.3289 23.2993L50.5323 25.6701C49.7547 26.1557 49.0115 26.4182 48.3032 26.4574C47.5915 26.4987 46.9421 26.3501 46.3548 26.0113C45.7665 25.6779 45.2717 25.1899 44.8703 24.5472C44.4649 23.898 44.2416 23.2358 44.2003 22.5609C44.1588 21.8858 44.3146 21.2366 44.6673 20.6132C45.0222 19.9931 45.5902 19.4391 46.3711 18.9514L48.8873 17.3801L49.8288 18.8879L47.5599 20.3048C47.1051 20.5887 46.7821 20.9004 46.5909 21.2397C46.3996 21.579 46.3212 21.9302 46.3557 22.2935C46.3869 22.6588 46.5146 23.0211 46.7389 23.3804C46.9632 23.7395 47.2316 24.0117 47.5442 24.1967C47.8534 24.3838 48.202 24.4616 48.59 24.43C48.9768 24.4038 49.3991 24.2477 49.8573 23.9616L51.538 22.9121L46.1728 14.3205L48.0068 13.1752Z" fill="#91A8A3"/>
<path d="M33.2704 23.6686L34.9634 22.1002L39.9928 33.7117L38.0347 35.5257L26.8362 29.6298L28.5291 28.0612L37.3159 32.8547L37.3843 32.7914L33.2704 23.6686ZM36.3954 27.1531L31.778 31.4309L30.5978 30.1569L35.2151 25.8792L36.3954 27.1531Z" fill="#91A8A3"/>
<path d="M25.855 50.3274L16.1931 43.3194L17.3224 41.7626L27.2057 41.9835L27.2639 41.9033L20.6827 37.1297L21.9521 35.3795L31.614 42.3875L30.4781 43.9538L20.5934 43.7248L20.5318 43.8097L27.1177 48.5866L25.855 50.3274Z" fill="#91A8A3"/>
<path d="M18.9714 64.2128L8.12964 59.2209L8.93401 57.474L18.6711 55.7657L18.7125 55.6757L11.3276 52.2754L12.2319 50.3113L23.0737 55.3032L22.2645 57.0608L12.5245 58.7615L12.4807 58.8567L19.8709 62.2594L18.9714 64.2128Z" fill="#91A8A3"/>
<path d="M5.24844 68.3408L5.78685 66.0966L16.4129 72.9673L15.7903 75.5628L3.20215 76.87L3.74056 74.6257L13.7105 73.7393L13.7324 73.6486L5.24844 68.3408ZM9.78153 69.5063L8.3131 75.6268L6.62427 75.2217L8.0927 69.1011L9.78153 69.5063Z" fill="#91A8A3"/>
<path d="M10.1557 92.6424C10.4734 92.5555 10.7593 92.4307 11.0134 92.2679C11.2712 92.1091 11.4933 91.9142 11.6796 91.6831C11.8658 91.4559 12.0085 91.1923 12.1076 90.8923C12.2107 90.5924 12.268 90.2639 12.2796 89.9065C12.3004 89.2658 12.1577 88.6897 11.8517 88.1784C11.5456 87.667 11.0846 87.2574 10.4687 86.9498C9.8566 86.6461 9.10396 86.4798 8.21079 86.4508C7.30986 86.4216 6.54219 86.5386 5.90778 86.8017C5.27337 87.065 4.78487 87.4437 4.44229 87.9379C4.10359 88.4323 3.9234 89.0135 3.90173 89.6814C3.88207 90.2872 3.98157 90.8152 4.2002 91.2654C4.41871 91.7196 4.73763 92.074 5.15699 92.3286C5.58023 92.5834 6.08116 92.7202 6.65977 92.7389L6.56816 93.2258L6.67325 89.9871L8.3625 90.0419L8.20543 94.8825L6.77249 94.8359C5.75117 94.8028 4.87478 94.5567 4.14329 94.0976C3.41181 93.6384 2.85648 93.0218 2.47731 92.2475C2.10203 91.4734 1.93039 90.5931 1.96239 89.6067C1.99806 88.5078 2.27595 87.5508 2.79611 86.7358C3.32001 85.9248 4.04581 85.3011 4.97351 84.8647C5.90496 84.4323 6.99979 84.2365 8.25798 84.2773C9.22105 84.3086 10.0768 84.4725 10.8252 84.7688C11.5735 85.0692 12.2037 85.4744 12.7159 85.9848C13.2319 86.4952 13.617 87.0869 13.8711 87.7599C14.1291 88.433 14.2455 89.1598 14.2202 89.9405C14.1988 90.6006 14.0817 91.2129 13.869 91.7775C13.6603 92.3422 13.372 92.8401 13.0042 93.2714C12.6364 93.7064 12.2051 94.0598 11.7103 94.3314C11.2156 94.603 10.6736 94.774 10.0843 94.8443L10.1557 92.6424Z" fill="#91A8A3"/>
<path d="M2.69604 103.416L14.4726 101.472L15.7368 109.132L13.9485 109.427L13.0363 103.901L9.83921 104.429L10.6859 109.558L8.89754 109.853L8.05089 104.724L4.83651 105.254L5.75625 110.826L3.96793 111.122L2.69604 103.416Z" fill="#91A8A3"/>
<path d="M13.0422 130.728C12.8404 130.303 12.7597 129.866 12.8 129.417C12.8437 128.966 12.9911 128.551 13.2419 128.174C13.4945 127.8 13.8331 127.512 14.2576 127.311C14.6858 127.107 15.1228 127.027 15.5686 127.068C16.0195 127.112 16.432 127.26 16.8058 127.513C17.1831 127.764 17.4727 128.102 17.6744 128.526C17.8779 128.954 17.957 129.392 17.9114 129.84C17.8712 130.289 17.7247 130.7 17.4723 131.074C17.2249 131.45 16.8872 131.739 16.459 131.943C16.0345 132.145 15.5965 132.224 15.1456 132.18C14.6963 132.14 14.2829 131.994 13.9056 131.743C13.5335 131.494 13.2457 131.156 13.0422 130.728Z" fill="#91A8A3"/>
<path d="M22.4163 149.699L31.3607 141.795L34.3245 145.15C34.9316 145.836 35.3216 146.519 35.4945 147.194C35.6699 147.875 35.6477 148.524 35.4276 149.143C35.2132 149.764 34.8207 150.326 34.25 150.83C33.6764 151.337 33.0705 151.654 32.4322 151.783C31.7994 151.911 31.1596 151.842 30.5127 151.574C29.8688 151.303 29.2434 150.823 28.6362 150.136L26.5254 147.747L27.8706 146.558L29.7884 148.729C30.1435 149.131 30.4895 149.411 30.8266 149.57C31.1665 149.726 31.4983 149.77 31.8217 149.701C32.1508 149.634 32.4739 149.459 32.7912 149.179C33.1087 148.898 33.3241 148.596 33.4377 148.273C33.5541 147.948 33.5574 147.605 33.4476 147.246C33.3405 146.884 33.1081 146.501 32.7506 146.096L31.4385 144.611L23.8479 151.318L22.4163 149.699ZM30.552 150.738L28.4557 156.533L26.858 154.725L28.9892 148.97L30.552 150.738Z" fill="#91A8A3"/>
<path d="M33.9781 161.53L41.3442 152.138L47.4525 156.929L46.3339 158.356L41.9269 154.9L39.9271 157.449L44.0178 160.658L42.8992 162.084L38.8087 158.875L36.7981 161.438L41.2417 164.923L40.1231 166.35L33.9781 161.53ZM44.4921 153.111L47.1629 151.821L48.7863 153.094L45.7349 154.086L44.4921 153.111Z" fill="#91A8A3"/>
<path d="M61.688 164.997L56.2179 175.606L54.5085 174.725L53.2358 164.922L53.1477 164.875L49.4218 172.102L47.5 171.11L52.97 160.503L54.6899 161.389L55.9547 171.195L56.0479 171.243L59.7765 164.012L61.688 164.997Z" fill="#91A8A3"/>
<path d="M75.6223 175.635C75.2755 176.872 74.7465 177.868 74.0353 178.622C73.3288 179.372 72.5118 179.869 71.5838 180.114C70.6597 180.36 69.6944 180.341 68.688 180.059C67.6815 179.777 66.8453 179.292 66.1793 178.6C65.5182 177.906 65.0787 177.056 64.861 176.046C64.6481 175.034 64.7144 173.911 65.0603 172.676C65.407 171.439 65.9337 170.443 66.6401 169.694C67.3512 168.94 68.1689 168.441 69.0931 168.196C70.021 167.951 70.9881 167.969 71.9945 168.251C73.001 168.534 73.8354 169.019 74.4976 169.709C75.1635 170.399 75.6029 171.251 75.8159 172.263C76.0336 173.271 75.969 174.395 75.6223 175.635ZM73.5289 175.048C73.773 174.177 73.8424 173.403 73.7369 172.727C73.6362 172.05 73.3894 171.491 72.9963 171.05C72.6044 170.604 72.096 170.295 71.4713 170.12C70.8464 169.945 70.2511 169.947 69.6853 170.123C69.1204 170.295 68.6171 170.644 68.1752 171.171C67.7383 171.693 67.3977 172.391 67.1536 173.263C66.9095 174.134 66.8377 174.91 66.9385 175.587C67.0439 176.262 67.2926 176.822 67.6845 177.266C68.0776 177.708 68.5865 178.016 69.2112 178.191C69.8361 178.366 70.4309 178.367 70.9957 178.193C71.5615 178.017 72.063 177.667 72.5 177.144C72.9419 176.618 73.2848 175.919 73.5289 175.048Z" fill="#91A8A3"/>
<path d="M84.7697 170.885L87.2114 180.473L87.3334 180.483L91.0836 171.328L93.4555 171.493L88.4231 183.106L85.7603 182.92L82.4036 170.719L84.7697 170.885Z" fill="#91A8A3"/>
<path d="M101.676 182.835L99.3866 183.125L102.055 170.756L104.703 170.421L110.378 181.733L108.088 182.023L103.733 173.011L103.641 173.022L101.676 182.835ZM101.163 178.184L107.408 177.392L107.626 179.115L101.381 179.906L101.163 178.184Z" fill="#91A8A3"/>
<path d="M114.028 170.418L113.466 168.695L122.52 165.745L123.082 167.468L119.575 168.612L122.711 178.236L120.672 178.901L117.535 169.276L114.028 170.418Z" fill="#91A8A3"/>
<path d="M129.527 162.333L134.923 172.98L132.994 173.958L127.599 163.311L129.527 162.333Z" fill="#91A8A3"/>
<path d="M148.165 157.163C148.93 158.197 149.391 159.226 149.55 160.25C149.708 161.267 149.6 162.218 149.224 163.101C148.851 163.981 148.243 164.733 147.404 165.354C146.564 165.976 145.667 166.337 144.712 166.44C143.759 166.536 142.817 166.361 141.887 165.913C140.957 165.461 140.111 164.719 139.348 163.688C138.584 162.654 138.121 161.629 137.961 160.61C137.804 159.587 137.911 158.635 138.284 157.754C138.66 156.872 139.269 156.12 140.109 155.497C140.95 154.876 141.846 154.515 142.796 154.416C143.751 154.314 144.692 154.489 145.622 154.942C146.552 155.389 147.4 156.129 148.165 157.163ZM146.418 158.457C145.879 157.729 145.311 157.2 144.714 156.869C144.116 156.533 143.522 156.384 142.933 156.423C142.342 156.46 141.785 156.672 141.264 157.058C140.742 157.444 140.378 157.914 140.17 158.469C139.96 159.022 139.927 159.633 140.07 160.305C140.215 160.971 140.557 161.667 141.096 162.396C141.634 163.123 142.201 163.655 142.799 163.992C143.396 164.323 143.991 164.469 144.582 164.432C145.172 164.393 145.727 164.181 146.249 163.795C146.77 163.408 147.137 162.939 147.346 162.388C147.554 161.832 147.587 161.222 147.442 160.556C147.297 159.885 146.956 159.185 146.418 158.457Z" fill="#91A8A3"/>
<path d="M155.508 140.911L164.398 148.877L163.114 150.308L153.306 149.072L153.239 149.146L159.294 154.571L157.851 156.181L148.963 148.216L150.254 146.774L160.063 148.02L160.132 147.942L154.074 142.513L155.508 140.911Z" fill="#91A8A3"/>
<path d="M173.344 129.998C173.143 130.422 172.854 130.761 172.481 131.013C172.103 131.264 171.689 131.412 171.239 131.455C170.789 131.496 170.353 131.415 169.927 131.213C169.499 131.01 169.161 130.722 168.911 130.35C168.661 129.972 168.516 129.559 168.475 129.11C168.431 128.659 168.51 128.221 168.712 127.796C168.915 127.368 169.205 127.031 169.581 126.783C169.955 126.531 170.366 126.384 170.815 126.344C171.264 126.298 171.701 126.378 172.129 126.581C172.553 126.783 172.891 127.072 173.143 127.45C173.394 127.823 173.543 128.236 173.587 128.687C173.628 129.133 173.548 129.57 173.344 129.998Z" fill="#91A8A3"/>
<path d="M175.946 99.4036L175.606 101.557C175.243 101.562 174.912 101.626 174.614 101.748C174.312 101.87 174.045 102.038 173.814 102.253C173.584 102.469 173.396 102.726 173.251 103.026C173.102 103.321 172.999 103.649 172.942 104.009C172.84 104.65 172.912 105.244 173.156 105.79C173.397 106.335 173.803 106.797 174.378 107.174C174.947 107.551 175.676 107.81 176.562 107.95C177.463 108.092 178.245 108.072 178.907 107.89C179.567 107.703 180.092 107.388 180.484 106.947C180.874 106.501 181.119 105.959 181.219 105.322C181.275 104.969 181.28 104.632 181.238 104.31C181.19 103.984 181.094 103.684 180.949 103.409C180.804 103.13 180.61 102.886 180.368 102.674C180.127 102.459 179.839 102.292 179.504 102.172L179.855 100.021C180.402 100.19 180.901 100.448 181.35 100.794C181.8 101.136 182.179 101.552 182.486 102.041C182.79 102.53 183.003 103.078 183.124 103.688C183.24 104.296 183.243 104.951 183.132 105.653C182.968 106.69 182.582 107.577 181.974 108.315C181.365 109.053 180.572 109.584 179.593 109.909C178.612 110.235 177.489 110.297 176.223 110.097C174.952 109.897 173.903 109.489 173.076 108.875C172.246 108.26 171.653 107.507 171.303 106.618C170.952 105.729 170.857 104.77 171.019 103.741C171.123 103.085 171.311 102.489 171.585 101.954C171.858 101.419 172.207 100.959 172.634 100.574C173.057 100.189 173.547 99.8943 174.107 99.6915C174.663 99.4843 175.276 99.3883 175.946 99.4036Z" fill="#91A8A3"/>
<path d="M184.025 93.0377L172.095 93.4248L171.95 88.9512C171.921 88.0348 172.056 87.2607 172.354 86.6291C172.652 85.9935 173.083 85.5072 173.647 85.1701C174.208 84.8293 174.869 84.6465 175.629 84.6218C176.395 84.597 177.064 84.7386 177.637 85.0464C178.207 85.3506 178.656 85.8123 178.983 86.4315C179.307 87.0507 179.483 87.8185 179.512 88.735L179.616 91.9213L177.822 91.9795L177.727 89.0844C177.711 88.5486 177.622 88.1122 177.463 87.7752C177.3 87.4385 177.073 87.1931 176.781 87.0394C176.484 86.8818 176.124 86.8099 175.7 86.8237C175.278 86.8374 174.919 86.9326 174.625 87.1093C174.329 87.2861 174.107 87.5479 173.963 87.8947C173.814 88.2415 173.75 88.6849 173.766 89.2246L173.831 91.2051L183.955 90.8767L184.025 93.0377ZM178.419 87.0503L183.73 83.9217L183.808 86.3331L178.496 89.4094L178.419 87.0503Z" fill="#91A8A3"/>
<path d="M182.66 76.5509L170.998 79.0911L169.346 71.506L171.117 71.1202L172.308 76.5927L175.475 75.903L174.368 70.8236L176.139 70.4378L177.246 75.5173L180.43 74.8239L179.227 69.306L180.998 68.9202L182.66 76.5509ZM169.193 76.3349L166.313 75.6262L165.874 73.6104L168.856 74.7918L169.193 76.3349Z" fill="#91A8A3"/>
<path d="M177.748 59.1399L178.654 61.2625L166.027 62.0843L164.979 59.6294L174.304 51.0731L175.211 53.1957L167.735 59.853L167.772 59.9388L177.748 59.1399ZM173.414 60.9077L170.942 55.1189L172.54 54.437L175.011 60.2258L173.414 60.9077Z" fill="#91A8A3"/>
<path d="M162.422 50.6623L160.919 51.6745L155.6 43.7748L157.104 42.7626L159.164 45.8229L167.561 40.1696L168.759 41.9486L160.362 47.602L162.422 50.6623Z" fill="#91A8A3"/>
<path d="M150.4 37.9703L159.161 29.8646L160.63 31.4518L151.869 39.5574L150.4 37.9703Z" fill="#91A8A3"/>
<path d="M140.323 21.4617C141.108 20.4428 141.971 19.717 142.912 19.2845C143.848 18.8526 144.791 18.6968 145.743 18.8169C146.692 18.9347 147.581 19.3124 148.409 19.9501C149.238 20.5877 149.831 21.3516 150.191 22.2412C150.544 23.1317 150.634 24.0856 150.458 25.1029C150.277 26.121 149.796 27.1379 149.013 28.1538C148.228 29.1727 147.368 29.8981 146.433 30.33C145.492 30.7625 144.547 30.9199 143.597 30.8021C142.646 30.6821 141.755 30.3031 140.928 29.6654C140.099 29.0278 139.507 28.2652 139.151 27.3778C138.792 26.488 138.703 25.5342 138.883 24.5162C139.058 23.4988 139.538 22.4806 140.323 21.4617ZM142.045 22.788C141.493 23.5052 141.14 24.1967 140.985 24.8623C140.825 25.5286 140.844 26.1397 141.044 26.6955C141.242 27.2545 141.598 27.7319 142.112 28.1277C142.625 28.5236 143.178 28.7456 143.768 28.7935C144.358 28.8445 144.954 28.7087 145.561 28.3862C146.162 28.0643 146.739 27.5448 147.291 26.8275C147.844 26.1103 148.2 25.4184 148.36 24.7522C148.514 24.0866 148.492 23.4743 148.295 22.9153C148.096 22.3595 147.739 21.8836 147.224 21.4878C146.71 21.0919 146.159 20.8684 145.571 20.8174C144.98 20.7695 144.384 20.9064 143.783 21.2282C143.178 21.5508 142.598 22.0707 142.045 22.788Z" fill="#91A8A3"/>
<path d="M122.681 18.851L127.907 8.12006L129.636 8.96214L131.132 18.734L131.221 18.7774L134.781 11.468L136.725 12.4147L131.499 23.1456L129.759 22.2984L128.271 12.5239L128.176 12.4779L124.614 19.7926L122.681 18.851Z" fill="#91A8A3"/>
<path d="M107.299 4.68678C107.763 4.76453 108.167 4.94858 108.512 5.23893C108.857 5.5331 109.112 5.89105 109.278 6.31281C109.44 6.7339 109.482 7.17628 109.404 7.63993C109.326 8.10742 109.141 8.51187 108.852 8.85332C108.558 9.19794 108.2 9.45116 107.779 9.61298C107.357 9.77863 106.914 9.82257 106.451 9.74482C105.983 9.66641 105.579 9.48045 105.238 9.18692C104.893 8.89658 104.64 8.54085 104.478 8.11975C104.311 7.70184 104.268 7.25915 104.346 6.79166C104.424 6.32801 104.61 5.92387 104.904 5.57924C105.194 5.23397 105.55 4.97852 105.972 4.81287C106.389 4.6504 106.832 4.60838 107.299 4.68678Z" fill="#91A8A3"/>
</svg>
