<svg width="209" height="209" viewBox="0 0 209 209" fill="none" xmlns="http://www.w3.org/2000/svg">
<path fill-rule="evenodd" clip-rule="evenodd" d="M103.939 63.3881C102.66 64.133 98.2607 70.9648 95.8663 75.9232C94.5475 78.6543 93.2358 82.334 92.7445 84.68C92.2849 86.8762 92.3149 90.014 92.8123 91.7556C94.4451 97.4725 99.3792 101.238 105.238 101.238C111.096 101.238 116.031 97.4725 117.663 91.7556C118.161 90.014 118.191 86.8762 117.731 84.68C116.635 79.4438 113.282 72.4988 108.622 65.8098C107.516 64.2227 106.963 63.5884 106.459 63.3317C105.577 62.8816 104.778 62.8994 103.939 63.3881ZM106.843 72.8154C110.116 78.0971 112.353 83.5824 112.765 87.3365C113.271 91.9509 109.788 95.9251 105.238 95.9251C101.511 95.9251 98.3911 93.2571 97.783 89.5494C97.3405 86.853 98.3988 82.8557 100.9 77.7736C102.295 74.9392 105.018 70.3807 105.266 70.4634C105.348 70.4909 106.058 71.5491 106.843 72.8154ZM61.2479 109.97C59.9766 110.761 59.5861 112.141 60.2598 113.461C60.6849 114.295 61.5447 114.779 62.866 114.928C64.469 115.11 65.3051 115.89 67.8313 119.56C69.3785 121.808 71.2841 123.78 72.582 124.476C74.3905 125.446 76.9372 125.748 78.9329 125.228C81.5358 124.55 83.3312 123.043 85.7944 119.471C88.3354 115.786 89.3741 114.869 90.9939 114.877C92.6302 114.887 93.7233 115.848 96.2682 119.515C99.5888 124.3 102.505 125.963 106.553 125.38C109.442 124.964 111.526 123.367 114.195 119.524C116.747 115.851 117.845 114.887 119.482 114.877C121.102 114.869 122.14 115.786 124.681 119.471C127.144 123.043 128.94 124.55 131.543 125.228C133.538 125.748 136.085 125.446 137.894 124.476C139.192 123.78 141.097 121.808 142.644 119.56C145.17 115.89 146.007 115.11 147.61 114.928C148.931 114.779 149.791 114.295 150.216 113.461C150.905 112.111 150.474 110.677 149.156 109.937C148.494 109.565 148.277 109.532 147.183 109.64C143.77 109.976 141.841 111.406 138.677 115.946C136.286 119.376 135.334 120.19 133.722 120.182C132.008 120.174 131.108 119.396 128.488 115.658C125.698 111.679 123.68 110.135 120.72 109.717C117.837 109.309 115.168 110.236 113.037 112.384C112.4 113.027 111.248 114.468 110.476 115.586C107.88 119.35 106.928 120.186 105.238 120.186C103.543 120.186 102.648 119.396 99.9208 115.493C99.1041 114.325 97.9445 112.881 97.3436 112.285C95.2685 110.227 92.5806 109.317 89.7558 109.717C86.7959 110.135 84.7779 111.679 81.988 115.658C79.3672 119.396 78.468 120.174 76.7534 120.182C75.1421 120.19 74.1893 119.376 71.7987 115.946C68.6101 111.371 66.6486 109.931 63.2165 109.645C62.0689 109.55 61.8699 109.583 61.2479 109.97ZM88.7884 128.081C86.2529 128.763 84.4766 130.269 81.9989 133.839C79.4574 137.5 78.4546 138.412 76.9595 138.422C74.4212 138.44 73.1918 141.38 75.043 143.006C75.8254 143.693 76.6216 143.837 78.2054 143.578C81.0557 143.113 83.0838 141.529 85.8094 137.642C88.4302 133.903 89.3295 133.126 91.0441 133.118C92.6554 133.109 93.608 133.924 95.9986 137.354C99.4109 142.25 101.434 143.623 105.238 143.623C109.041 143.623 111.065 142.25 114.477 137.354C116.987 133.753 117.914 133.005 119.684 133.152C121.328 133.288 122.316 134.222 125.214 138.384C127.46 141.608 129.521 143.134 132.244 143.589C133.799 143.848 134.651 143.692 135.433 143.006C137.284 141.38 136.054 138.44 133.516 138.422C132.021 138.412 131.018 137.5 128.477 133.839C125.968 130.224 124.212 128.75 121.611 128.072C119.615 127.552 117.069 127.854 115.26 128.824C113.962 129.52 112.057 131.492 110.51 133.74C107.793 137.687 107.05 138.335 105.238 138.335C103.436 138.335 102.623 137.632 100.015 133.822C98.429 131.505 96.5328 129.531 95.2153 128.824C93.4179 127.86 90.7555 127.552 88.7884 128.081Z" fill="#373636"/>
<path d="M85.822 3.23092L90.2875 2.38525L92.7831 15.5628L88.2275 16.4256C86.9192 16.6733 85.7455 16.6223 84.706 16.2727C83.6633 15.928 82.7958 15.3125 82.1035 14.426C81.4113 13.5396 80.9357 12.4122 80.6766 11.0438C80.4166 9.67113 80.4484 8.44316 80.772 7.3599C81.0914 6.27743 81.6793 5.38182 82.5359 4.67305C83.3884 3.96509 84.4838 3.48438 85.822 3.23092ZM88.2916 4.90277L86.329 5.27442C85.4111 5.44826 84.6771 5.76056 84.1269 6.21131C83.5779 6.66636 83.2121 7.2577 83.03 7.98536C82.8487 8.71732 82.8534 9.58732 83.0444 10.5954C83.2353 11.6034 83.5482 12.4106 83.9829 13.017C84.4185 13.6277 84.97 14.0409 85.6373 14.2567C86.3012 14.4775 87.0792 14.5035 87.9715 14.3345L90.0048 13.9495L88.2916 4.90277Z" fill="#373636"/>
<path d="M70.8679 7.11719L75.7952 19.5911L67.6823 22.7957L66.9341 20.9015L72.7873 18.5894L71.4496 15.203L66.0166 17.3489L65.2684 15.4547L70.7015 13.3087L69.3565 9.904L63.4546 12.2353L62.7063 10.3411L70.8679 7.11719ZM73.0653 22.0917L72.8004 25.4142L70.6443 26.2659L71.4147 22.7437L73.0653 22.0917Z" fill="#373636"/>
<path d="M53.9432 14.8042L61.0471 26.1801L56.781 28.8441C55.9072 29.3898 55.0721 29.6847 54.2762 29.7288C53.4765 29.7752 52.7468 29.6082 52.087 29.2275C51.4258 28.8529 50.8698 28.3045 50.4188 27.5824C49.9633 26.8529 49.7123 26.1088 49.6659 25.3504C49.6194 24.5919 49.7944 23.8624 50.1907 23.1619C50.5895 22.4651 51.2278 21.8426 52.1052 21.2946L54.9326 19.529L55.9905 21.2233L53.441 22.8154C52.93 23.1344 52.567 23.4846 52.3522 23.8659C52.1372 24.2472 52.0492 24.6418 52.0879 25.05C52.1229 25.4605 52.2665 25.8675 52.5185 26.2712C52.7705 26.6748 53.0722 26.9806 53.4233 27.1885C53.7708 27.3988 54.1625 27.4862 54.5985 27.4507C55.0331 27.4212 55.5076 27.2459 56.0225 26.9244L57.911 25.7451L51.8824 16.0911L53.9432 14.8042Z" fill="#373636"/>
<path d="M37.3846 26.5954L39.2869 24.833L44.9382 37.8803L42.738 39.9187L30.1547 33.2937L32.0569 31.5312L41.9303 36.9174L42.0071 36.8462L37.3846 26.5954ZM40.8959 30.5107L35.7076 35.3174L34.3814 33.8859L39.5697 29.0792L40.8959 30.5107Z" fill="#373636"/>
<path d="M29.0521 56.5506L18.1954 48.6761L19.4643 46.9268L30.5698 47.175L30.6352 47.0849L23.2402 41.721L24.6666 39.7544L35.5232 47.6289L34.2468 49.389L23.1398 49.1316L23.0707 49.227L30.471 54.5946L29.0521 56.5506Z" fill="#373636"/>
<path d="M21.3174 72.1532L9.13492 66.544L10.0388 64.5811L20.9799 62.6615L21.0265 62.5604L12.7283 58.7397L13.7444 56.5327L25.9269 62.1419L25.0176 64.1168L14.0733 66.0278L14.024 66.1347L22.3281 69.9582L21.3174 72.1532Z" fill="#373636"/>
<path d="M5.8975 76.7917L6.50249 74.27L18.4426 81.9903L17.7429 84.9067L3.59818 86.3756L4.20317 83.8537L15.4059 82.8578L15.4305 82.7559L5.8975 76.7917ZM10.9911 78.1013L9.34113 84.9787L7.44347 84.5235L9.09348 77.646L10.9911 78.1013Z" fill="#373636"/>
<path d="M11.4116 104.098C11.7686 104.001 12.0898 103.86 12.3753 103.677C12.665 103.499 12.9145 103.28 13.1239 103.02C13.3331 102.765 13.4934 102.469 13.6048 102.132C13.7206 101.795 13.785 101.426 13.798 101.024C13.8214 100.304 13.6611 99.6569 13.3172 99.0823C12.9733 98.5077 12.4553 98.0474 11.7633 97.7018C11.0754 97.3605 10.2297 97.1736 9.22612 97.141C8.21379 97.1083 7.35119 97.2397 6.63833 97.5353C5.92547 97.8312 5.37657 98.2567 4.99163 98.8121C4.61105 99.3676 4.40858 100.021 4.38422 100.771C4.36214 101.452 4.47394 102.045 4.71961 102.551C4.96513 103.061 5.32349 103.46 5.79471 103.746C6.27028 104.032 6.83315 104.186 7.48331 104.207L7.38038 104.754L7.49846 101.115L9.3966 101.176L9.2201 106.615L7.60997 106.563C6.46236 106.526 5.4776 106.249 4.65566 105.733C3.83372 105.217 3.20972 104.525 2.78367 103.655C2.36198 102.785 2.16911 101.796 2.20507 100.687C2.24515 99.4525 2.55741 98.377 3.14189 97.4613C3.73057 96.55 4.54612 95.8492 5.58854 95.3588C6.63517 94.8729 7.86538 94.653 9.27916 94.6988C10.3613 94.734 11.3229 94.9181 12.1638 95.2511C13.0047 95.5886 13.7128 96.0439 14.2883 96.6174C14.8681 97.191 15.3008 97.8558 15.5863 98.612C15.8763 99.3684 16.0071 100.185 15.9787 101.062C15.9545 101.804 15.823 102.492 15.584 103.126C15.3495 103.761 15.0255 104.32 14.6123 104.805C14.1989 105.294 13.7143 105.691 13.1584 105.996C12.6025 106.301 11.9934 106.493 11.3313 106.572L11.4116 104.098Z" fill="#373636"/>
<path d="M3.02945 116.204L16.2622 114.02L17.6828 122.627L15.6733 122.958L14.6484 116.749L11.0559 117.342L12.0073 123.105L9.9978 123.437L9.04645 117.674L5.43459 118.27L6.46807 124.531L4.45861 124.863L3.02945 116.204Z" fill="#373636"/>
<path d="M14.6549 146.893C14.4282 146.416 14.3375 145.925 14.3827 145.42C14.4319 144.913 14.5975 144.448 14.8793 144.024C15.1631 143.604 15.5436 143.28 16.0206 143.053C16.5018 142.825 16.9928 142.734 17.4938 142.781C18.0004 142.83 18.4639 142.997 18.8839 143.281C19.3079 143.563 19.6332 143.942 19.8599 144.419C20.0886 144.9 20.1774 145.392 20.1262 145.895C20.081 146.4 19.9165 146.862 19.6328 147.282C19.3548 147.704 18.9753 148.03 18.4942 148.258C18.0172 148.485 17.5251 148.574 17.0184 148.525C16.5136 148.479 16.049 148.316 15.625 148.034C15.207 147.754 14.8836 147.374 14.6549 146.893Z" fill="#373636"/>
<path d="M25.1882 168.21L35.2386 159.329L38.569 163.098C39.2511 163.87 39.6894 164.637 39.8837 165.396C40.0807 166.161 40.0558 166.889 39.8085 167.586C39.5676 168.283 39.1265 168.915 38.4852 169.48C37.8407 170.051 37.1599 170.407 36.4427 170.552C35.7316 170.696 35.0127 170.618 34.2858 170.316C33.5623 170.012 32.8596 169.473 32.1773 168.701L29.8054 166.017L31.317 164.681L33.472 167.12C33.8709 167.572 34.2597 167.887 34.6385 168.065C35.0204 168.24 35.3932 168.289 35.7567 168.213C36.1264 168.137 36.4896 167.941 36.8461 167.626C37.2028 167.311 37.4448 166.971 37.5725 166.608C37.7033 166.243 37.707 165.857 37.5836 165.454C37.4633 165.047 37.2022 164.617 36.8005 164.162L35.3261 162.493L26.7969 170.029L25.1882 168.21ZM34.33 169.378L31.9744 175.889L30.1792 173.857L32.5739 167.39L34.33 169.378Z" fill="#373636"/>
<path d="M38.1797 181.504L46.4565 170.951L53.3202 176.335L52.0633 177.937L47.1114 174.054L44.8643 176.919L49.4608 180.524L48.2038 182.127L43.6075 178.521L41.3483 181.401L46.3414 185.317L45.0845 186.92L38.1797 181.504ZM49.9937 172.044L52.9949 170.595L54.819 172.025L51.3902 173.14L49.9937 172.044Z" fill="#373636"/>
<path d="M69.3161 185.4L63.1696 197.321L61.2488 196.331L59.8187 185.315L59.7198 185.263L55.5331 193.383L53.3737 192.269L59.5201 180.35L61.4526 181.346L62.8738 192.365L62.9786 192.418L67.1683 184.293L69.3161 185.4Z" fill="#373636"/>
<path d="M84.9736 197.353C84.5838 198.744 83.9894 199.862 83.1903 200.709C82.3964 201.553 81.4784 202.111 80.4357 202.386C79.3973 202.662 78.3126 202.641 77.1817 202.324C76.0508 202.008 75.1112 201.462 74.3628 200.685C73.6199 199.905 73.1262 198.95 72.8815 197.815C72.6423 196.678 72.7168 195.417 73.1054 194.029C73.495 192.638 74.0868 191.519 74.8806 190.677C75.6797 189.83 76.5985 189.27 77.6369 188.994C78.6796 188.719 79.7662 188.739 80.8971 189.056C82.0281 189.374 82.9656 189.92 83.7097 190.694C84.458 191.47 84.9517 192.428 85.191 193.565C85.4357 194.697 85.3631 195.961 84.9736 197.353ZM82.6212 196.694C82.8956 195.715 82.9735 194.845 82.855 194.086C82.7419 193.325 82.4645 192.696 82.0228 192.202C81.5824 191.701 81.0112 191.353 80.3092 191.157C79.607 190.96 78.9381 190.961 78.3023 191.16C77.6676 191.353 77.1021 191.745 76.6056 192.337C76.1146 192.924 75.7319 193.708 75.4576 194.688C75.1833 195.667 75.1026 196.538 75.2159 197.299C75.3344 198.058 75.6137 198.687 76.0542 199.186C76.4959 199.683 77.0677 200.028 77.7697 200.225C78.4718 200.422 79.1402 200.423 79.7748 200.228C80.4106 200.03 80.9741 199.637 81.4651 199.049C81.9617 198.458 82.3469 197.673 82.6212 196.694Z" fill="#373636"/>
<path d="M95.252 192.016L97.9956 202.79L98.1327 202.801L102.347 192.513L105.012 192.699L99.3572 205.748L96.3651 205.539L92.5933 191.83L95.252 192.016Z" fill="#373636"/>
<path d="M114.249 205.444L111.676 205.77L114.675 191.871L117.65 191.495L124.027 204.205L121.454 204.531L116.56 194.405L116.456 194.418L114.249 205.444ZM113.673 200.217L120.689 199.328L120.934 201.264L113.918 202.152L113.673 200.217Z" fill="#373636"/>
<path d="M128.128 191.492L127.497 189.556L137.671 186.241L138.302 188.177L134.361 189.462L137.885 200.276L135.594 201.023L132.069 190.209L128.128 191.492Z" fill="#373636"/>
<path d="M145.544 182.406L151.607 194.37L149.44 195.469L143.377 183.505L145.544 182.406Z" fill="#373636"/>
<path d="M166.487 176.597C167.346 177.759 167.864 178.915 168.042 180.066C168.22 181.209 168.099 182.277 167.676 183.27C167.257 184.258 166.575 185.103 165.631 185.801C164.687 186.5 163.679 186.906 162.607 187.021C161.535 187.129 160.477 186.932 159.432 186.429C158.387 185.921 157.437 185.088 156.579 183.929C155.72 182.767 155.201 181.615 155.021 180.47C154.844 179.32 154.964 178.251 155.384 177.261C155.806 176.27 156.49 175.425 157.434 174.725C158.379 174.028 159.386 173.622 160.454 173.51C161.526 173.396 162.584 173.593 163.629 174.101C164.674 174.604 165.626 175.435 166.487 176.597ZM164.523 178.051C163.917 177.233 163.28 176.639 162.608 176.267C161.937 175.889 161.27 175.721 160.607 175.766C159.943 175.807 159.318 176.045 158.732 176.479C158.145 176.912 157.737 177.441 157.503 178.065C157.266 178.686 157.229 179.373 157.391 180.127C157.554 180.875 157.938 181.658 158.543 182.477C159.147 183.294 159.785 183.892 160.457 184.27C161.128 184.642 161.797 184.807 162.461 184.765C163.123 184.72 163.747 184.482 164.334 184.049C164.919 183.614 165.331 183.087 165.566 182.468C165.8 181.844 165.837 181.158 165.674 180.41C165.511 179.655 165.128 178.868 164.523 178.051Z" fill="#373636"/>
<path d="M174.738 158.336L184.727 167.286L183.284 168.895L172.264 167.506L172.188 167.589L178.992 173.685L177.37 175.494L167.383 166.544L168.834 164.924L179.855 166.324L179.934 166.236L173.126 160.135L174.738 158.336Z" fill="#373636"/>
<path d="M194.779 146.073C194.553 146.55 194.229 146.93 193.809 147.214C193.385 147.496 192.919 147.661 192.414 147.711C191.908 147.756 191.418 147.665 190.94 147.438C190.459 147.21 190.079 146.886 189.798 146.468C189.517 146.044 189.354 145.58 189.308 145.075C189.259 144.568 189.348 144.076 189.574 143.599C189.803 143.118 190.129 142.739 190.551 142.461C190.971 142.177 191.433 142.012 191.937 141.967C192.441 141.916 192.933 142.005 193.414 142.233C193.891 142.46 194.27 142.785 194.553 143.209C194.836 143.629 195.003 144.093 195.052 144.6C195.098 145.101 195.008 145.592 194.779 146.073Z" fill="#373636"/>
<path d="M197.703 111.696L197.321 114.115C196.913 114.121 196.541 114.193 196.206 114.33C195.867 114.467 195.567 114.656 195.307 114.898C195.049 115.14 194.837 115.429 194.674 115.765C194.507 116.097 194.392 116.466 194.327 116.871C194.213 117.591 194.293 118.258 194.568 118.871C194.839 119.484 195.295 120.003 195.941 120.427C196.58 120.851 197.399 121.142 198.395 121.299C199.408 121.459 200.287 121.436 201.03 121.231C201.771 121.021 202.361 120.668 202.802 120.172C203.24 119.67 203.515 119.062 203.627 118.346C203.69 117.949 203.697 117.57 203.649 117.209C203.595 116.843 203.488 116.505 203.325 116.196C203.162 115.883 202.944 115.608 202.672 115.371C202.401 115.129 202.077 114.941 201.7 114.806L202.095 112.389C202.71 112.579 203.271 112.869 203.775 113.258C204.281 113.642 204.706 114.109 205.052 114.659C205.393 115.208 205.633 115.825 205.768 116.509C205.899 117.193 205.902 117.929 205.777 118.718C205.593 119.883 205.16 120.879 204.476 121.709C203.792 122.538 202.901 123.135 201.8 123.5C200.698 123.866 199.437 123.936 198.014 123.712C196.586 123.486 195.407 123.028 194.478 122.338C193.545 121.647 192.879 120.802 192.486 119.802C192.091 118.803 191.985 117.725 192.166 116.57C192.283 115.832 192.495 115.163 192.803 114.562C193.11 113.96 193.502 113.444 193.981 113.011C194.456 112.578 195.008 112.247 195.636 112.019C196.262 111.786 196.95 111.678 197.703 111.696Z" fill="#373636"/>
<path d="M206.781 104.543L193.376 104.978L193.213 99.9508C193.181 98.921 193.331 98.0512 193.666 97.3415C194.001 96.6274 194.485 96.0809 195.12 95.7021C195.75 95.3191 196.492 95.1138 197.347 95.086C198.207 95.0582 198.959 95.2172 199.603 95.5632C200.244 95.9049 200.748 96.4237 201.115 97.1194C201.479 97.8153 201.677 98.678 201.71 99.7078L201.826 103.288L199.81 103.353L199.704 100.1C199.686 99.4983 199.586 99.008 199.408 98.6293C199.225 98.251 198.97 97.9753 198.641 97.8025C198.307 97.6255 197.903 97.5447 197.427 97.5602C196.952 97.5755 196.549 97.6825 196.219 97.8811C195.885 98.0798 195.636 98.3739 195.475 98.7636C195.307 99.1533 195.235 99.6516 195.254 100.258L195.326 102.483L206.703 102.114L206.781 104.543ZM200.482 97.8148L206.449 94.2993L206.537 97.0089L200.568 100.466L200.482 97.8148Z" fill="#373636"/>
<path d="M205.247 86.0171L192.143 88.8715L190.287 80.3484L192.277 79.9149L193.615 86.0641L197.173 85.2891L195.93 79.5816L197.92 79.1481L199.163 84.8558L202.741 84.0766L201.39 77.8764L203.38 77.4429L205.247 86.0171ZM190.115 85.7744L186.878 84.9781L186.385 82.7131L189.737 84.0405L190.115 85.7744Z" fill="#373636"/>
<path d="M199.727 66.453L200.746 68.838L186.557 69.7615L185.38 67.003L195.858 57.3887L196.876 59.7737L188.477 67.2542L188.518 67.3506L199.727 66.453ZM194.857 68.4394L192.08 61.9347L193.875 61.1685L196.652 67.6732L194.857 68.4394Z" fill="#373636"/>
<path d="M182.506 56.9269L180.817 58.0643L174.841 49.1878L176.531 48.0504L178.846 51.4891L188.281 45.1367L189.628 47.1357L180.192 53.4883L182.506 56.9269Z" fill="#373636"/>
<path d="M168.998 42.6656L178.842 33.5576L180.493 35.341L170.648 44.449L168.998 42.6656Z" fill="#373636"/>
<path d="M157.675 24.1155C158.557 22.9706 159.527 22.155 160.584 21.6691C161.635 21.1838 162.696 21.0087 163.765 21.1437C164.832 21.276 165.831 21.7004 166.76 22.417C167.692 23.1335 168.359 23.9917 168.763 24.9914C169.159 25.992 169.261 27.0639 169.063 28.2069C168.86 29.3509 168.319 30.4936 167.44 31.6351C166.558 32.78 165.591 33.5951 164.54 34.0805C163.483 34.5664 162.421 34.7433 161.354 34.6109C160.285 34.476 159.284 34.0502 158.354 33.3336C157.423 32.6171 156.758 31.7602 156.358 30.7632C155.954 29.7634 155.854 28.6916 156.057 27.5477C156.254 26.4045 156.793 25.2603 157.675 24.1155ZM159.61 25.6058C158.989 26.4117 158.593 27.1887 158.419 27.9366C158.239 28.6853 158.261 29.372 158.485 29.9965C158.708 30.6246 159.107 31.1611 159.685 31.6058C160.262 32.0507 160.882 32.3001 161.546 32.3539C162.209 32.4112 162.879 32.2586 163.561 31.8962C164.236 31.5345 164.884 30.9508 165.505 30.1448C166.126 29.3389 166.525 28.5615 166.705 27.8129C166.879 27.065 166.854 26.377 166.633 25.7489C166.409 25.1243 166.007 24.5895 165.43 24.1448C164.852 23.6999 164.233 23.4488 163.572 23.3915C162.908 23.3377 162.238 23.4915 161.563 23.8531C160.882 24.2156 160.231 24.7998 159.61 25.6058Z" fill="#373636"/>
<path d="M137.851 21.1819L143.723 9.12402L145.666 10.0702L147.348 21.0505L147.448 21.0992L151.448 12.886L153.632 13.9497L147.76 26.0076L145.805 25.0556L144.132 14.0724L144.026 14.0208L140.023 22.2399L137.851 21.1819Z" fill="#373636"/>
<path d="M120.567 5.26616C121.088 5.35353 121.543 5.56033 121.931 5.88659C122.318 6.21713 122.604 6.61935 122.791 7.09325C122.973 7.56642 123.02 8.06351 122.932 8.58448C122.844 9.10978 122.637 9.56425 122.312 9.94792C121.981 10.3352 121.579 10.6197 121.106 10.8015C120.632 10.9876 120.135 11.037 119.614 10.9497C119.089 10.8616 118.635 10.6526 118.252 10.3228C117.864 9.99652 117.579 9.59681 117.397 9.12364C117.21 8.65405 117.161 8.15662 117.249 7.63132C117.336 7.11034 117.545 6.65623 117.876 6.26898C118.202 5.88101 118.602 5.59397 119.076 5.40784C119.545 5.22528 120.042 5.17806 120.567 5.26616Z" fill="#373636"/>
</svg>
