<svg width="103" height="103" viewBox="0 0 103 103" fill="none" xmlns="http://www.w3.org/2000/svg">
<path d="M42.2951 1.59206L44.4958 1.17529L45.7257 7.66951L43.4806 8.09469C42.8359 8.21678 42.2574 8.19163 41.7451 8.01933C41.2313 7.84946 40.8037 7.54612 40.4625 7.10926C40.1214 6.6724 39.887 6.11679 39.7593 5.44242C39.6312 4.76594 39.6469 4.16077 39.8064 3.62691C39.9637 3.09345 40.2535 2.65207 40.6757 2.30277C41.0958 1.95387 41.6356 1.71697 42.2951 1.59206ZM43.5122 2.41598L42.545 2.59914C42.0926 2.68481 41.7309 2.83872 41.4597 3.06086C41.1891 3.28512 41.0089 3.57655 40.9191 3.93516C40.8298 4.29588 40.8321 4.72464 40.9263 5.22143C41.0203 5.71821 41.1745 6.11603 41.3888 6.41487C41.6034 6.71584 41.8752 6.91947 42.2041 7.02581C42.5313 7.13465 42.9147 7.14743 43.3544 7.06416L44.3565 6.8744L43.5122 2.41598Z" fill="white"/>
<path d="M34.9253 3.50732L37.3536 9.65474L33.3554 11.2341L32.9866 10.3005L35.8712 9.1611L35.212 7.49218L32.5345 8.54977L32.1657 7.61625L34.8433 6.55866L34.1804 4.88073L31.2718 6.02964L30.9031 5.09612L34.9253 3.50732ZM36.0082 10.8871L35.8777 12.5245L34.8151 12.9442L35.1948 11.2085L36.0082 10.8871Z" fill="white"/>
<path d="M26.5845 7.2959L30.0854 12.9022L27.983 14.2151C27.5524 14.484 27.1408 14.6294 26.7486 14.6511C26.3544 14.674 25.9949 14.5916 25.6697 14.404C25.3438 14.2194 25.0698 13.9492 24.8475 13.5933C24.6231 13.2338 24.4994 12.8671 24.4765 12.4933C24.4536 12.1195 24.5398 11.76 24.7352 11.4148C24.9317 11.0714 25.2462 10.7646 25.6787 10.4945L27.072 9.62439L27.5934 10.4594L26.337 11.244C26.0851 11.4012 25.9062 11.5738 25.8004 11.7617C25.6944 11.9496 25.651 12.1441 25.6701 12.3453C25.6874 12.5475 25.7581 12.7482 25.8823 12.9471C26.0065 13.146 26.1552 13.2967 26.3282 13.3992C26.4995 13.5028 26.6925 13.5459 26.9074 13.5284C27.1216 13.5139 27.3554 13.4274 27.6092 13.269L28.5399 12.6878L25.5688 7.93011L26.5845 7.2959Z" fill="white"/>
<path d="M18.424 13.1068L19.3615 12.2383L22.1466 18.6683L21.0623 19.6728L14.861 16.4079L15.7984 15.5393L20.6643 18.1937L20.7021 18.1587L18.424 13.1068ZM20.1545 15.0364L17.5976 17.4052L16.944 16.6998L19.5009 14.3309L20.1545 15.0364Z" fill="white"/>
<path d="M14.3176 27.8694L8.96716 23.9886L9.59251 23.1265L15.0655 23.2488L15.0978 23.2044L11.4533 20.561L12.1563 19.5918L17.5067 23.4725L16.8776 24.3399L11.4039 24.2131L11.3698 24.2601L15.0168 26.9054L14.3176 27.8694Z" fill="white"/>
<path d="M10.5057 35.5585L4.50195 32.7941L4.94738 31.8268L10.3394 30.8807L10.3624 30.8309L6.27286 28.948L6.77363 27.8604L12.7774 30.6247L12.3293 31.598L6.93568 32.5397L6.91139 32.5924L11.0039 34.4767L10.5057 35.5585Z" fill="white"/>
<path d="M2.90647 37.8448L3.20463 36.6021L9.08897 40.4068L8.74415 41.8441L1.77332 42.5679L2.07147 41.3251L7.59244 40.8343L7.60456 40.7841L2.90647 37.8448ZM5.41674 38.4902L4.60357 41.8795L3.66836 41.6552L4.48153 38.2658L5.41674 38.4902Z" fill="white"/>
<path d="M5.62386 51.3022C5.79979 51.2541 5.9581 51.1849 6.0988 51.0948C6.24158 51.0069 6.36456 50.899 6.46773 50.771C6.57084 50.6452 6.64984 50.4992 6.70475 50.3331C6.7618 50.167 6.79353 49.9851 6.79996 49.7872C6.81147 49.4324 6.73248 49.1134 6.563 48.8302C6.39351 48.547 6.13824 48.3202 5.79718 48.1499C5.45821 47.9816 5.04142 47.8895 4.54682 47.8735C4.04792 47.8574 3.62281 47.9221 3.2715 48.0678C2.92018 48.2136 2.64967 48.4233 2.45996 48.697C2.2724 48.9708 2.17262 49.2926 2.16062 49.6625C2.14973 49.9979 2.20483 50.2904 2.3259 50.5397C2.4469 50.7912 2.62351 50.9874 2.85574 51.1284C3.09011 51.2695 3.36751 51.3453 3.68792 51.3556L3.63719 51.6253L3.69539 49.8318L4.63083 49.8621L4.54385 52.5427L3.75034 52.5169C3.18477 52.4986 2.69946 52.3622 2.29439 52.108C1.88932 51.8538 1.5818 51.5123 1.37183 51.0835C1.16401 50.6549 1.06896 50.1674 1.08668 49.6212C1.10644 49.0126 1.26032 48.4826 1.54837 48.0313C1.83849 47.5822 2.2404 47.2369 2.75413 46.9952C3.26994 46.7557 3.87621 46.6473 4.57295 46.6699C5.10627 46.6873 5.58014 46.778 5.9946 46.9421C6.40897 47.1084 6.75797 47.3328 7.04157 47.6155C7.32731 47.8981 7.54056 48.2257 7.68127 48.5984C7.82419 48.9712 7.88864 49.3737 7.87463 49.806C7.86274 50.1715 7.79791 50.5106 7.68014 50.8232C7.56454 51.1359 7.40489 51.4117 7.20125 51.6505C6.99754 51.8914 6.7587 52.0871 6.48472 52.2375C6.21076 52.3879 5.91061 52.4826 5.58429 52.5215L5.62386 51.3022Z" fill="white"/>
<path d="M1.49292 57.2684L8.01433 56.1919L8.71442 60.4334L7.72411 60.5968L7.21899 57.5367L5.44854 57.829L5.91739 60.6694L4.92708 60.8328L4.45824 57.9924L2.67823 58.2863L3.18755 61.3718L2.19724 61.5353L1.49292 57.2684Z" fill="white"/>
<path d="M7.22224 72.3921C7.1105 72.1569 7.06578 71.915 7.08809 71.6662C7.11233 71.4164 7.19391 71.1871 7.33283 70.9781C7.47268 70.7711 7.66019 70.6117 7.89527 70.5C8.1324 70.3873 8.37437 70.3426 8.62127 70.3658C8.87097 70.3901 9.09939 70.4721 9.30637 70.6119C9.51533 70.7509 9.67566 70.9379 9.78737 71.1731C9.90006 71.4101 9.94384 71.6525 9.91862 71.9003C9.89635 72.1492 9.81524 72.3771 9.67543 72.5841C9.53843 72.7921 9.35144 72.9525 9.11431 73.0652C8.87923 73.1769 8.63672 73.2206 8.38702 73.1964C8.13823 73.1741 7.90928 73.0935 7.70033 72.9546C7.49428 72.8167 7.33492 72.6291 7.22224 72.3921Z" fill="white"/>
<path d="M12.4133 82.8977L17.3664 78.521L19.0077 80.3788C19.3439 80.759 19.5599 81.1369 19.6556 81.511C19.7527 81.8882 19.7404 82.2472 19.6186 82.5903C19.4998 82.9341 19.2824 83.2454 18.9664 83.5241C18.6488 83.805 18.3133 83.9808 17.9598 84.0519C17.6094 84.1231 17.2551 84.0845 16.8969 83.9361C16.5403 83.7861 16.194 83.5203 15.8577 83.1401L14.6888 81.817L15.4337 81.1589L16.4958 82.3608C16.6924 82.5834 16.884 82.7387 17.0707 82.8265C17.2589 82.9129 17.4426 82.9371 17.6217 82.8993C17.8039 82.8621 17.9829 82.7652 18.1586 82.6099C18.3344 82.4547 18.4537 82.2873 18.5166 82.1086C18.5811 81.9283 18.5829 81.7382 18.5221 81.5398C18.4628 81.3391 18.3341 81.127 18.1361 80.9029L17.4095 80.0804L13.2061 83.7944L12.4133 82.8977ZM16.9186 83.4733L15.7577 86.6822L14.873 85.681L16.0532 82.4941L16.9186 83.4733Z" fill="white"/>
<path d="M18.8158 89.4497L22.8948 84.2489L26.2774 86.902L25.658 87.6919L23.2175 85.778L22.1101 87.1897L24.3754 88.9665L23.7559 89.7564L21.4908 87.9797L20.3774 89.3989L22.8381 91.3287L22.2187 92.1186L18.8158 89.4497ZM24.638 84.7874L26.1171 84.0732L27.016 84.7783L25.3262 85.3274L24.638 84.7874Z" fill="white"/>
<path d="M34.1606 91.3695L31.1315 97.2443L30.1849 96.7566L29.4801 91.3279L29.4313 91.3021L27.3681 95.304L26.3038 94.7549L29.3329 88.8809L30.2853 89.3716L30.9857 94.8018L31.0374 94.8283L33.1021 90.8242L34.1606 91.3695Z" fill="white"/>
<path d="M41.8769 97.2599C41.6848 97.9453 41.3919 98.4966 40.998 98.9139C40.6068 99.3297 40.1544 99.6046 39.6405 99.7402C39.1287 99.8765 38.5942 99.8659 38.0369 99.7099C37.4795 99.5539 37.0165 99.285 36.6477 98.9018C36.2816 98.5178 36.0382 98.0467 35.9176 97.4878C35.7997 96.9274 35.8365 96.3056 36.028 95.6217C36.22 94.9363 36.5116 94.3849 36.9028 93.9699C37.2966 93.5526 37.7495 93.2762 38.2612 93.1406C38.7751 93.005 39.3106 93.0149 39.8679 93.1709C40.4253 93.3277 40.8873 93.5965 41.254 93.9782C41.6228 94.3607 41.8661 94.8325 41.984 95.393C42.1046 95.9511 42.0689 96.5737 41.8769 97.2599ZM40.7176 96.9349C40.8528 96.4525 40.8912 96.0239 40.8328 95.6497C40.777 95.2748 40.6403 94.9651 40.4227 94.7212C40.2056 94.4743 39.9241 94.3031 39.5782 94.2062C39.2321 94.1093 38.9025 94.11 38.5891 94.2077C38.2763 94.3031 37.9976 94.4963 37.7529 94.7879C37.511 95.0772 37.3224 95.4634 37.1872 95.9466C37.052 96.429 37.0122 96.8585 37.0681 97.2333C37.1265 97.6075 37.2641 97.9172 37.4812 98.1634C37.6989 98.408 37.9807 98.5784 38.3266 98.6753C38.6727 98.7723 39.002 98.773 39.3148 98.6769C39.6281 98.5792 39.9059 98.3853 40.1478 98.096C40.3925 97.8044 40.5824 97.4174 40.7176 96.9349Z" fill="white"/>
<path d="M46.9424 94.6297L48.2945 99.9395L48.362 99.9448L50.4388 94.8751L51.7522 94.9667L48.9655 101.397L47.4909 101.294L45.6321 94.5381L46.9424 94.6297Z" fill="white"/>
<path d="M56.3046 101.248L55.0367 101.408L56.5145 94.5586L57.9809 94.373L61.1233 100.637L59.8554 100.798L57.4437 95.8075L57.3924 95.8135L56.3046 101.248ZM56.0205 98.6718L59.4785 98.2333L59.5993 99.1875L56.1414 99.6253L56.0205 98.6718Z" fill="white"/>
<path d="M63.1443 94.3716L62.8334 93.4173L67.8473 91.7837L68.1583 92.738L66.2159 93.3711L67.953 98.7006L66.8238 99.0687L65.0867 93.7392L63.1443 94.3716Z" fill="white"/>
<path d="M71.7274 89.894L74.7154 95.79L73.6473 96.3315L70.6594 90.4356L71.7274 89.894Z" fill="white"/>
<path d="M82.0486 87.0311C82.472 87.6036 82.7272 88.1731 82.8151 88.7404C82.9029 89.3039 82.8431 89.8302 82.6348 90.3195C82.4281 90.8065 82.0918 91.223 81.6268 91.5668C81.1618 91.9114 80.6649 92.1114 80.1363 92.1682C79.6084 92.2212 79.0866 92.1243 78.5716 91.8766C78.0566 91.6259 77.5886 91.2154 77.166 90.6444C76.7426 90.0718 76.4866 89.5038 76.398 88.9396C76.3109 88.3731 76.37 87.846 76.5767 87.3582C76.785 86.8697 77.122 86.4532 77.5871 86.1086C78.0528 85.7648 78.5489 85.5648 79.0753 85.5095C79.6039 85.4535 80.1249 85.5504 80.6399 85.8011C81.1549 86.0488 81.6245 86.4585 82.0486 87.0311ZM81.0807 87.7475C80.7823 87.3446 80.468 87.0515 80.1371 86.8682C79.8061 86.6819 79.4774 86.5994 79.151 86.6213C78.8238 86.6418 78.5156 86.7592 78.227 86.9727C77.9377 87.1863 77.7363 87.4468 77.6211 87.7543C77.5045 88.0603 77.4863 88.3988 77.5659 88.7707C77.6461 89.1395 77.8355 89.525 78.1339 89.9287C78.4315 90.3316 78.7458 90.6262 79.0768 90.8125C79.4077 90.9958 79.7372 91.0768 80.0644 91.0564C80.3908 91.0344 80.6983 90.917 80.9876 90.7035C81.2761 90.4891 81.4791 90.2294 81.595 89.9241C81.7101 89.6167 81.7283 89.2789 81.648 88.9101C81.5677 88.5382 81.3791 88.1504 81.0807 87.7475Z" fill="white"/>
<path d="M86.1148 78.0317L91.0376 82.4426L90.3264 83.2355L84.8955 82.5509L84.8584 82.5918L88.2112 85.5962L87.4121 86.4876L82.4901 82.0768L83.2051 81.2785L88.6368 81.9685L88.6754 81.9253L85.3203 78.9186L86.1148 78.0317Z" fill="white"/>
<path d="M95.9915 71.9882C95.8801 72.2234 95.7203 72.4109 95.5136 72.5507C95.3045 72.6896 95.0751 72.7712 94.8259 72.7955C94.5767 72.8177 94.3351 72.773 94.0996 72.6613C93.8625 72.5486 93.6755 72.3892 93.5369 72.1831C93.3983 71.9742 93.318 71.7453 93.2953 71.4965C93.271 71.2467 93.315 71.0043 93.4263 70.7692C93.5392 70.5321 93.6997 70.3451 93.908 70.2081C94.1147 70.0683 94.3427 69.9872 94.5911 69.9649C94.8395 69.9397 95.0819 69.9835 95.3189 70.0961C95.5537 70.2079 95.7408 70.3682 95.8801 70.5772C96.0195 70.7842 96.102 71.0126 96.1263 71.2623C96.149 71.5092 96.1043 71.7511 95.9915 71.9882Z" fill="white"/>
<path d="M97.4326 55.0463L97.2441 56.2386C97.0434 56.2417 96.8601 56.2771 96.695 56.3446C96.5276 56.4119 96.3799 56.5051 96.2519 56.6243C96.1247 56.7435 96.0202 56.8861 95.9399 57.052C95.8573 57.2154 95.8005 57.397 95.7687 57.5967C95.7127 57.9517 95.7521 58.2803 95.8876 58.5827C96.0209 58.8847 96.2459 59.1402 96.564 59.3494C96.879 59.5582 97.2827 59.7014 97.7734 59.7789C98.2725 59.8578 98.7057 59.8466 99.0723 59.7455C99.4373 59.642 99.7282 59.4679 99.9455 59.2234C100.161 58.9764 100.297 58.6765 100.352 58.3237C100.383 58.1282 100.386 57.9414 100.363 57.7634C100.336 57.5828 100.283 57.4165 100.203 57.2643C100.123 57.1101 100.015 56.9745 99.8812 56.8575C99.7479 56.7384 99.5881 56.6457 99.4025 56.5793L99.5972 55.3881C99.9001 55.4817 100.177 55.6244 100.425 55.8161C100.674 56.0056 100.884 56.2359 101.054 56.5068C101.222 56.7774 101.341 57.0813 101.407 57.4185C101.472 57.7554 101.473 58.1183 101.412 58.5072C101.321 59.0811 101.107 59.5723 100.77 59.9809C100.433 60.3895 99.994 60.6839 99.4517 60.864C98.9087 61.0441 98.2869 61.0788 97.5856 60.968C96.882 60.8569 96.3012 60.6313 95.843 60.291C95.3832 59.9505 95.0553 59.5339 94.8614 59.0414C94.6668 58.5489 94.6145 58.0178 94.7039 57.4483C94.7615 57.0849 94.866 56.755 95.0174 56.4588C95.1689 56.1624 95.362 55.9077 95.5983 55.6944C95.8323 55.4809 96.1042 55.318 96.414 55.2057C96.7222 55.091 97.0615 55.0378 97.4326 55.0463Z" fill="white"/>
<path d="M101.906 51.5208L95.3 51.7351L95.2198 49.2578C95.2039 48.7503 95.2781 48.3217 95.4432 47.9719C95.6083 47.62 95.8468 47.3507 96.1596 47.164C96.4701 46.9752 96.836 46.8741 97.257 46.8603C97.6812 46.8466 98.0515 46.925 98.3688 47.0955C98.6846 47.2639 98.9331 47.5196 99.1141 47.8625C99.2936 48.2054 99.3913 48.6306 99.4072 49.1381L99.4647 50.9026L98.4711 50.9348L98.4188 49.3316C98.4097 49.0349 98.3605 48.7932 98.2726 48.6066C98.1825 48.4201 98.0568 48.2842 97.8947 48.1991C97.7304 48.1119 97.5312 48.072 97.2964 48.0797C97.0624 48.0873 96.864 48.14 96.7011 48.2378C96.5368 48.3357 96.4141 48.4807 96.3346 48.6728C96.252 48.8648 96.2164 49.1104 96.2255 49.4092L96.2611 50.5059L101.868 50.3241L101.906 51.5208ZM98.802 48.2052L101.743 46.4727L101.786 47.808L98.8444 49.5115L98.802 48.2052Z" fill="white"/>
<path d="M101.15 42.3911L94.6925 43.7978L93.7777 39.5975L94.7584 39.3838L95.4181 42.4143L97.1714 42.0323L96.5587 39.2195L97.5394 39.0059L98.1521 41.8188L99.9152 41.4348L99.2495 38.3792L100.23 38.1655L101.15 42.3911ZM93.6928 42.2715L92.0979 41.8791L91.8547 40.7628L93.5065 41.417L93.6928 42.2715Z" fill="white"/>
<path d="M98.4301 32.7493L98.9323 33.9247L91.9396 34.3798L91.3595 33.0204L96.5231 28.2822L97.0253 29.4576L92.8856 33.1442L92.906 33.1917L98.4301 32.7493ZM96.0301 33.7283L94.6616 30.5226L95.5461 30.145L96.9147 33.3507L96.0301 33.7283Z" fill="white"/>
<path d="M89.9432 28.0551L89.1109 28.6156L86.1655 24.2411L86.9986 23.6806L88.1392 25.3752L92.7893 22.2446L93.4528 23.2298L88.8026 26.3605L89.9432 28.0551Z" fill="white"/>
<path d="M83.2861 21.0267L88.1377 16.5381L88.9511 17.417L84.0995 21.9056L83.2861 21.0267Z" fill="white"/>
<path d="M77.706 11.8847C78.1407 11.3205 78.6186 10.9186 79.1396 10.6791C79.6577 10.4399 80.1803 10.3536 80.7074 10.4201C81.233 10.4854 81.7252 10.6945 82.1834 11.0477C82.6424 11.4008 82.9711 11.8237 83.1703 12.3164C83.3657 12.8095 83.4157 13.3378 83.318 13.9011C83.218 14.4649 82.9514 15.028 82.5182 15.5906C82.0835 16.1548 81.6071 16.5565 81.0891 16.7957C80.568 17.0352 80.0447 17.1223 79.5191 17.0571C78.992 16.9906 78.4989 16.7808 78.0407 16.4276C77.5818 16.0745 77.2538 15.6522 77.0569 15.1609C76.8577 14.6681 76.8085 14.14 76.9085 13.5762C77.0054 13.0128 77.2713 12.4489 77.706 11.8847ZM78.6595 12.6192C78.3535 13.0164 78.1581 13.3993 78.0725 13.7679C77.9839 14.1369 77.9945 14.4752 78.1051 14.783C78.2149 15.0926 78.4118 15.357 78.6966 15.5761C78.9806 15.7954 79.2866 15.9183 79.6138 15.9448C79.9402 15.9731 80.2704 15.8979 80.6066 15.7193C80.9391 15.541 81.2587 15.2533 81.5647 14.8561C81.8707 14.459 82.0676 14.0758 82.1562 13.7069C82.2418 13.3383 82.2296 12.9992 82.1206 12.6897C82.01 12.3819 81.8123 12.1184 81.5276 11.8992C81.2428 11.6799 80.9376 11.5562 80.6119 11.5279C80.2848 11.5014 79.9546 11.5772 79.6221 11.7554C79.2866 11.9341 78.9655 12.222 78.6595 12.6192Z" fill="white"/>
<path d="M67.936 10.439L70.83 4.49658L71.7876 4.9629L72.6163 10.3742L72.6656 10.3982L74.6369 6.35055L75.7134 6.87481L72.8194 12.8172L71.856 12.348L71.0316 6.93526L70.9794 6.90982L69.0067 10.9604L67.936 10.439Z" fill="white"/>
<path d="M59.4183 2.59542C59.675 2.63847 59.899 2.74039 60.0902 2.90118C60.2811 3.06408 60.4223 3.2623 60.514 3.49585C60.6037 3.72904 60.627 3.97401 60.5839 4.23076C60.5405 4.48964 60.4385 4.71361 60.2781 4.9027C60.1152 5.09353 59.9172 5.23376 59.684 5.32337C59.4505 5.4151 59.2053 5.43943 58.9485 5.39638C58.6896 5.35296 58.4659 5.24998 58.2771 5.08743C58.086 4.92665 57.9455 4.72966 57.856 4.49647C57.7639 4.26505 57.7395 4.0199 57.7829 3.76102C57.826 3.50427 57.929 3.28048 58.0919 3.08963C58.2527 2.89843 58.4498 2.75697 58.6834 2.66524C58.9144 2.57527 59.1594 2.552 59.4183 2.59542Z" fill="white"/>
<path fill-rule="evenodd" clip-rule="evenodd" d="M52.1281 25.2641C51.2974 25.7531 48.4395 30.2375 46.8841 33.4922C46.0274 35.2849 45.1754 37.7002 44.8563 39.2402C44.5577 40.6817 44.5771 42.7414 44.9003 43.8846C45.9609 47.6372 49.1661 50.1088 52.9717 50.1088C56.7774 50.1088 59.9825 47.6372 61.0432 43.8846C61.3663 42.7414 61.3858 40.6817 61.0872 39.2402C60.375 35.8031 58.1972 31.2444 55.1698 26.8537C54.4516 25.812 54.0921 25.3956 53.7653 25.2271C53.1921 24.9316 52.673 24.9433 52.1281 25.2641ZM54.0142 31.4522C56.1406 34.9191 57.5938 38.5197 57.8612 40.9839C58.19 44.0128 55.9275 46.6215 52.9717 46.6215C50.5506 46.6215 48.5242 44.8702 48.1292 42.4364C47.8418 40.6665 48.5292 38.0427 50.1539 34.7068C51.0604 32.8463 52.8289 29.8541 52.9901 29.9083C53.0436 29.9264 53.5045 30.621 54.0142 31.4522ZM24.3965 55.8404C23.5706 56.3597 23.3169 57.2656 23.7546 58.1324C24.0307 58.6794 24.5892 58.9972 25.4475 59.0952C26.4888 59.2144 27.032 59.7263 28.6729 62.1356C29.678 63.6109 30.9158 64.9053 31.7589 65.3623C32.9337 65.9991 34.588 66.197 35.8844 65.8558C37.5752 65.4107 38.7415 64.422 40.3415 62.0773C41.9921 59.6582 42.6669 59.056 43.719 59.0618C44.782 59.0679 45.492 59.6988 47.1452 62.1058C49.3022 65.2467 51.1967 66.3385 53.8258 65.9557C55.7027 65.6825 57.0563 64.6345 58.7904 62.1122C60.4478 59.7012 61.1609 59.0679 62.2244 59.0618C63.2766 59.056 63.9513 59.6582 65.602 62.0773C67.202 64.422 68.3682 65.4107 70.0591 65.8558C71.3554 66.197 73.0098 65.9991 74.1845 65.3623C75.0276 64.9053 76.2655 63.6109 77.2705 62.1356C78.9115 59.7263 79.4546 59.2144 80.4959 59.0952C81.3542 58.9972 81.9128 58.6794 82.1889 58.1324C82.6364 57.2461 82.3564 56.3048 81.5007 55.8188C81.0706 55.5745 80.9293 55.553 80.2188 55.6239C78.0015 55.8446 76.7489 56.783 74.6933 59.7633C73.1404 62.0146 72.5216 62.5493 71.4748 62.544C70.3611 62.5383 69.777 62.0281 68.0746 59.5744C66.2622 56.9623 64.9514 55.9492 63.0286 55.6744C61.1557 55.4067 59.4223 56.0149 58.0382 57.4255C57.6241 57.8471 56.8756 58.7928 56.3747 59.5268C54.6879 61.9977 54.0695 62.5465 52.9717 62.5465C51.8708 62.5465 51.2893 62.028 49.5178 59.4661C48.9874 58.699 48.2341 57.7513 47.8438 57.3602C46.4958 56.0094 44.7497 55.4121 42.9148 55.6744C40.9921 55.9492 39.6813 56.9623 37.8689 59.5744C36.1665 62.0281 35.5824 62.5383 34.4686 62.544C33.422 62.5493 32.803 62.0146 31.2501 59.7633C29.1788 56.7601 27.9047 55.8148 25.6752 55.6275C24.9297 55.5648 24.8005 55.5865 24.3965 55.8404ZM42.2864 67.7287C40.6394 68.1763 39.4855 69.1649 37.876 71.5081C36.2251 73.9114 35.5737 74.5101 34.6025 74.5168C32.9537 74.5283 32.1551 76.4584 33.3576 77.5252C33.8658 77.9762 34.383 78.0709 35.4118 77.9011C37.2634 77.5955 38.5808 76.5562 40.3513 74.0044C42.0537 71.5506 42.6379 71.0404 43.7517 71.0347C44.7984 71.0294 45.4172 71.5641 46.9701 73.8154C49.1866 77.0292 50.5011 77.9305 52.9717 77.9305C55.4423 77.9305 56.7568 77.0292 58.9734 73.8154C60.6037 71.4519 61.2059 70.9608 62.356 71.0571C63.4239 71.1467 64.0655 71.7599 65.9483 74.4917C67.4069 76.6079 68.7458 77.6097 70.5144 77.908C71.5245 78.0782 72.0779 77.976 72.5859 77.5252C73.7884 76.4584 72.9898 74.5283 71.341 74.5168C70.3698 74.5101 69.7184 73.9114 68.0675 71.5081C66.4379 69.1357 65.2972 68.1676 63.6075 67.7228C62.3113 67.3817 60.657 67.5796 59.4822 68.2164C58.639 68.6735 57.4012 69.9677 56.3962 71.4432C54.6313 74.0343 54.149 74.4592 52.9717 74.4592C51.8014 74.4592 51.2733 73.9981 49.579 71.4971C48.5488 69.9764 47.3171 68.6803 46.4613 68.2164C45.2937 67.5834 43.5642 67.3814 42.2864 67.7287Z" fill="white"/>
</svg>
