<svg width="200" height="200" viewBox="0 0 200 200" fill="none" xmlns="http://www.w3.org/2000/svg">
<path fill-rule="evenodd" clip-rule="evenodd" d="M99.4777 69.2897C98.5049 69.8564 95.1578 75.0538 93.3362 78.826C92.3329 80.9037 91.335 83.703 90.9612 85.4878C90.6116 87.1586 90.6344 89.5457 91.0128 90.8707C92.255 95.2199 96.0087 98.0845 100.466 98.0845C104.923 98.0845 108.676 95.2199 109.919 90.8707C110.297 89.5457 110.32 87.1586 109.97 85.4878C109.136 81.5043 106.586 76.2208 103.04 71.132C102.199 69.9247 101.778 69.442 101.395 69.2468C100.724 68.9044 100.116 68.9179 99.4777 69.2897ZM101.687 76.4617C104.177 80.4798 105.879 84.6528 106.192 87.5088C106.577 91.0193 103.927 94.0427 100.466 94.0427C97.6302 94.0427 95.2569 92.013 94.7943 89.1923C94.4577 87.141 95.2628 84.1 97.1656 80.2337C98.2272 78.0774 100.298 74.6094 100.487 74.6723C100.55 74.6932 101.09 75.4983 101.687 76.4617ZM66.9997 104.727C66.0325 105.329 65.7354 106.379 66.248 107.384C66.5713 108.018 67.2255 108.386 68.2307 108.5C69.4502 108.638 70.0863 109.231 72.0081 112.023C73.1852 113.733 74.6349 115.233 75.6223 115.763C76.9981 116.501 78.9356 116.731 80.4538 116.335C82.4341 115.819 83.7999 114.673 85.6738 111.956C87.6069 109.152 88.3971 108.454 89.6294 108.461C90.8743 108.468 91.7059 109.199 93.6419 111.989C96.1681 115.629 98.3869 116.895 101.466 116.451C103.664 116.134 105.249 114.92 107.28 111.996C109.221 109.202 110.056 108.468 111.302 108.461C112.534 108.454 113.324 109.152 115.258 111.956C117.131 114.673 118.497 115.819 120.478 116.335C121.996 116.731 123.933 116.501 125.309 115.763C126.297 115.233 127.746 113.733 128.923 112.023C130.845 109.231 131.481 108.638 132.701 108.5C133.706 108.386 134.36 108.018 134.683 107.384C135.208 106.357 134.88 105.266 133.877 104.702C133.374 104.419 133.208 104.394 132.376 104.476C129.779 104.732 128.312 105.82 125.905 109.274C124.086 111.883 123.362 112.503 122.136 112.497C120.831 112.49 120.147 111.899 118.153 109.055C116.031 106.028 114.496 104.853 112.244 104.535C110.05 104.225 108.02 104.93 106.399 106.564C105.914 107.053 105.038 108.149 104.451 109C102.476 111.864 101.751 112.5 100.466 112.5C99.1763 112.5 98.4953 111.899 96.4207 108.93C95.7994 108.04 94.9172 106.942 94.4601 106.489C92.8814 104.923 90.8365 104.231 88.6875 104.535C86.4357 104.853 84.9005 106.028 82.778 109.055C80.7842 111.899 80.1001 112.49 78.7958 112.497C77.5699 112.503 76.8451 111.883 75.0264 109.274C72.6006 105.793 71.1083 104.698 68.4974 104.481C67.6243 104.408 67.4729 104.433 66.9997 104.727ZM87.9516 118.506C86.0227 119.025 84.6713 120.17 82.7863 122.886C80.8528 125.672 80.09 126.365 78.9525 126.373C77.0215 126.386 76.0862 128.623 77.4945 129.86C78.0897 130.383 78.6954 130.492 79.9003 130.296C82.0688 129.941 83.6117 128.737 85.6853 125.779C87.6791 122.935 88.3632 122.344 89.6676 122.337C90.8934 122.331 91.6182 122.951 93.4369 125.56C96.0328 129.285 97.5723 130.33 100.466 130.33C103.359 130.33 104.899 129.285 107.495 125.56C109.404 122.821 110.109 122.252 111.456 122.363C112.707 122.467 113.458 123.178 115.663 126.344C117.372 128.797 118.94 129.958 121.011 130.303C122.194 130.501 122.842 130.382 123.437 129.86C124.845 128.623 123.91 126.386 121.979 126.373C120.841 126.365 120.079 125.672 118.145 122.886C116.237 120.136 114.901 119.014 112.922 118.499C111.404 118.104 109.466 118.333 108.09 119.071C107.103 119.601 105.653 121.101 104.476 122.811C102.409 125.814 101.844 126.306 100.466 126.306C99.095 126.306 98.4766 125.772 96.4923 122.873C95.2858 121.111 93.8432 119.609 92.841 119.071C91.4736 118.337 89.4481 118.103 87.9516 118.506Z" fill="#ECDBD0"/>
</svg>
