<svg width="200" height="200" viewBox="0 0 200 200" fill="none" xmlns="http://www.w3.org/2000/svg">
<path d="M168.488 101.208L180.777 102.587L180.094 108.669C179.932 110.112 179.561 111.326 178.979 112.312C178.398 113.297 177.623 114.013 176.655 114.46C175.686 114.918 174.521 115.072 173.162 114.919C171.814 114.768 170.713 114.36 169.858 113.697C169.013 113.046 168.416 112.176 168.068 111.087C167.731 109.998 167.644 108.733 167.806 107.29L168.488 101.208ZM170.131 103.675L169.714 107.395C169.636 108.087 169.643 108.728 169.733 109.318C169.836 109.909 170.031 110.432 170.318 110.887C170.604 111.353 170.984 111.728 171.46 112.011C171.946 112.307 172.535 112.494 173.226 112.571L173.62 112.616C174.323 112.695 174.939 112.643 175.467 112.461C176.005 112.292 176.459 112.011 176.829 111.617C177.21 111.238 177.516 110.771 177.747 110.217C177.978 109.663 178.133 109.041 178.21 108.349L178.628 104.628L170.131 103.675Z" fill="#F5F5F5"/>
<path d="M166.395 116.76L178.113 120.71L174.347 131.883L172.539 131.273L175.58 122.25L172.561 121.232L169.842 129.3L168.034 128.691L170.753 120.623L167.478 119.519L164.396 128.661L162.588 128.052L166.395 116.76ZM177.573 125.353L179.21 127.994L178.428 130.314L178.342 130.285L176.998 127.059L177.573 125.353Z" fill="#F5F5F5"/>
<path d="M161.696 129.788L172.434 135.92L168.293 143.173C167.888 143.882 167.397 144.403 166.819 144.736C166.236 145.08 165.612 145.242 164.946 145.221C164.281 145.201 163.61 144.997 162.932 144.61C162.276 144.235 161.767 143.758 161.407 143.18C161.047 142.601 160.866 141.973 160.866 141.295C160.866 140.618 161.065 139.93 161.464 139.232L164.463 133.98L160.571 131.758L161.696 129.788ZM166.12 134.926L163.371 139.741C163.032 140.335 162.926 140.883 163.054 141.384C163.193 141.892 163.533 142.3 164.075 142.609C164.44 142.818 164.794 142.923 165.138 142.926C165.482 142.929 165.807 142.831 166.113 142.633C166.414 142.446 166.677 142.154 166.903 141.758L169.653 136.944L166.12 134.926Z" fill="#F5F5F5"/>
<path d="M156.047 139.906L161.416 152.539L159.683 154.514L146.446 150.854L148.084 148.986L150.956 149.806L155.704 144.392L154.516 141.651L156.047 139.906ZM156.529 146.29L152.945 150.377L156.547 151.429C156.695 151.479 156.89 151.538 157.133 151.608C157.385 151.685 157.641 151.766 157.901 151.851C158.154 151.945 158.389 152.023 158.605 152.085C158.831 152.155 158.987 152.205 159.074 152.233L159.169 152.125C159.052 151.894 158.919 151.618 158.771 151.296C158.623 150.991 158.485 150.694 158.355 150.405C158.218 150.125 158.114 149.898 158.043 149.724L156.529 146.29Z" fill="#F5F5F5"/>
<path d="M145.31 151.847L152.621 161.82L150.879 163.097L140.93 161.307C140.752 161.288 140.539 161.251 140.29 161.195C140.031 161.147 139.769 161.094 139.503 161.036C139.228 160.984 138.999 160.936 138.817 160.891L138.716 160.966C138.851 161.15 139.019 161.369 139.22 161.623C139.421 161.877 139.589 162.096 139.724 162.28L144.012 168.131L142.256 169.418L134.945 159.445L136.629 158.21L146.636 160.048C147.005 160.105 147.401 160.179 147.825 160.27C148.249 160.361 148.585 160.434 148.834 160.49L148.921 160.426C148.815 160.281 148.654 160.071 148.438 159.798C148.23 159.534 148.009 159.242 147.775 158.923L143.539 153.145L145.31 151.847Z" fill="#F5F5F5"/>
<path d="M132.502 160.895L137.405 172.248L135.422 173.104L126.122 169.14C125.953 169.082 125.754 168.998 125.523 168.889C125.282 168.784 125.038 168.673 124.792 168.557C124.535 168.446 124.323 168.348 124.156 168.264L124.04 168.314C124.13 168.523 124.245 168.774 124.385 169.067C124.524 169.359 124.639 169.61 124.729 169.82L127.605 176.479L125.606 177.343L120.703 165.99L122.62 165.162L131.965 169.186C132.312 169.323 132.682 169.484 133.075 169.667C133.467 169.85 133.779 169.997 134.009 170.106L134.109 170.064C134.037 169.898 133.927 169.658 133.778 169.344C133.634 169.04 133.483 168.706 133.326 168.343L130.486 161.766L132.502 160.895Z" fill="#F5F5F5"/>
<path d="M119.26 166.564L115.674 179.813L113.091 180.296L104.946 169.237L107.388 168.781L109.14 171.201L116.217 169.879L116.978 166.99L119.26 166.564ZM115.694 171.881L110.35 172.879L112.532 175.932C112.617 176.063 112.734 176.23 112.882 176.435C113.032 176.651 113.184 176.873 113.336 177.101C113.477 177.331 113.613 177.537 113.745 177.72C113.879 177.915 113.971 178.05 114.022 178.126L114.164 178.1C114.214 177.846 114.28 177.547 114.362 177.202C114.435 176.871 114.509 176.552 114.586 176.244C114.651 175.939 114.71 175.696 114.761 175.516L115.694 171.881Z" fill="#F5F5F5"/>
<path d="M96.5245 168.844C98.9104 168.945 100.687 169.543 101.853 170.637C103.007 171.743 103.539 173.375 103.447 175.533C103.387 176.936 103.038 178.098 102.398 179.02C101.758 179.954 100.858 180.636 99.6986 181.067C98.5273 181.498 97.1504 181.68 95.5678 181.613C94.5247 181.568 93.5817 181.432 92.7386 181.204C91.895 180.988 91.1753 180.681 90.5797 180.284C89.972 179.886 89.5183 179.398 89.2185 178.821C88.9068 178.243 88.7675 177.564 88.8006 176.785L91.0126 176.879C90.9912 177.383 91.1052 177.808 91.3547 178.155C91.5922 178.501 91.9285 178.786 92.3634 179.008C92.7864 179.23 93.2718 179.395 93.8198 179.502C94.3677 179.61 94.9474 179.676 95.5588 179.702C96.3381 179.736 97.061 179.682 97.7276 179.542C98.3816 179.414 98.9558 179.186 99.4501 178.859C99.944 178.544 100.34 178.116 100.64 177.576C100.926 177.048 101.085 176.412 101.117 175.669L101.135 175.237C101.179 174.206 101.01 173.37 100.629 172.729C100.236 172.088 99.6681 171.608 98.925 171.288C98.1819 170.968 97.3008 170.786 96.2817 170.743C95.1068 170.693 94.1485 170.773 93.407 170.981C92.6655 171.19 92.1112 171.515 91.7442 171.956C91.3771 172.396 91.1804 172.929 91.1539 173.552L91.1455 173.75L96.2169 173.965L96.1398 175.782L88.8383 175.471L89.124 168.746L90.6167 168.809L90.7794 170.491C91.2184 170.054 91.7375 169.709 92.3367 169.458C92.9359 169.208 93.5917 169.037 94.3041 168.948C95.0051 168.845 95.7452 168.811 96.5245 168.844Z" fill="#F5F5F5"/>
<path d="M86.5424 168.195L83.308 180.13L71.9284 177.047L72.4275 175.205L81.618 177.696L82.4513 174.62L74.2337 172.394L74.7328 170.552L82.9504 172.779L83.8543 169.443L74.5422 166.92L75.0413 165.078L86.5424 168.195Z" fill="#F5F5F5"/>
<path d="M61.0565 157.967L53.3515 167.639L46.3684 162.077C45.702 161.546 45.2576 160.977 45.0352 160.37C44.8034 159.756 44.759 159.138 44.902 158.515C45.0282 157.895 45.3118 157.307 45.7529 156.754C46.2314 156.153 46.8237 155.727 47.5297 155.476C48.2189 155.228 48.9563 155.217 49.742 155.444L50.8492 149.836L52.8203 151.406L51.7598 156.522L56.3777 160.2L59.2825 156.554L61.0565 157.967ZM55.2001 161.679L50.3992 157.854C49.9018 157.458 49.401 157.297 48.8971 157.371C48.3931 157.445 47.9579 157.712 47.5915 158.172C47.3448 158.482 47.1965 158.793 47.1465 159.106C47.0797 159.421 47.115 159.733 47.2525 160.042C47.3899 160.351 47.6276 160.64 47.9655 160.909L52.7664 164.734L55.2001 161.679Z" fill="#F5F5F5"/>
<path d="M49.7164 148.549L40.2148 156.464L32.669 147.405L34.1351 146.183L40.2293 153.5L42.6773 151.461L37.2282 144.919L38.6943 143.698L44.1433 150.24L46.7988 148.028L40.624 140.614L42.09 139.393L49.7164 148.549ZM36.5418 153.573L33.4351 153.584L31.8684 151.703L31.9375 151.645L35.3898 152.19L36.5418 153.573Z" fill="#F5F5F5"/>
<path d="M41.0598 137.915L30.1022 143.646L29.1011 141.732L32.3641 132.164C32.4093 131.991 32.478 131.786 32.5703 131.548C32.657 131.3 32.749 131.048 32.8463 130.794C32.9381 130.53 33.02 130.311 33.092 130.138L33.0336 130.026C32.8315 130.132 32.5897 130.265 32.3082 130.426C32.0267 130.587 31.7849 130.72 31.5829 130.826L25.155 134.188L24.1456 132.258L35.1032 126.526L36.0709 128.377L32.7525 137.994C32.6409 138.35 32.5083 138.731 32.3547 139.136C32.2011 139.542 32.0781 139.863 31.9858 140.101L32.0359 140.197C32.1954 140.114 32.4266 139.986 32.7294 139.814C33.0215 139.648 33.3431 139.473 33.694 139.289L40.042 135.969L41.0598 137.915Z" fill="#F5F5F5"/>
<path d="M32.4983 117.093C32.8776 118.606 32.9717 119.968 32.7804 121.179C32.5775 122.393 32.0907 123.412 31.32 124.236C30.5347 125.051 29.4728 125.627 28.1342 125.963C26.7724 126.304 25.5645 126.298 24.5107 125.943C23.4424 125.58 22.5324 124.911 21.7809 123.937C21.0293 122.962 20.4638 121.719 20.0845 120.205C19.7051 118.692 19.6169 117.329 19.8198 116.115C20.0227 114.901 20.511 113.888 21.2846 113.075C22.0437 112.254 23.1041 111.673 24.466 111.331C25.8045 110.996 27.0138 111.008 28.0938 111.368C29.1593 111.72 30.0678 112.383 30.8193 113.357C31.5592 114.335 32.1189 115.58 32.4983 117.093ZM30.6475 117.557C30.4637 116.824 30.213 116.169 29.8953 115.593C29.5661 115.02 29.1758 114.549 28.7244 114.179C28.2614 113.813 27.7373 113.573 27.1523 113.46C26.5643 113.335 25.9153 113.362 25.2052 113.54L24.8211 113.636C24.1111 113.814 23.5263 114.097 23.0667 114.484C22.6042 114.86 22.2611 115.317 22.0374 115.856C21.8136 116.394 21.6976 116.993 21.6893 117.65C21.6694 118.311 21.7513 119.008 21.9352 119.741C22.119 120.475 22.3756 121.128 22.7049 121.701C23.0225 122.277 23.407 122.75 23.8584 123.119C24.3097 123.488 24.8279 123.73 25.413 123.843C25.9981 123.956 26.6456 123.923 27.3557 123.745L27.7398 123.649C28.4498 123.471 29.0361 123.194 29.4986 122.818C29.9611 122.443 30.31 121.984 30.5454 121.443C30.7691 120.904 30.891 120.304 30.9109 119.644C30.9192 118.986 30.8314 118.29 30.6475 117.557Z" fill="#F5F5F5"/>
<path d="M30.2385 103.547L18.0297 109.531L17.9616 107.012L25.5534 103.422C25.7901 103.295 26.0627 103.168 26.3714 103.04C26.6677 102.9 26.9582 102.766 27.2428 102.638C27.5271 102.498 27.7701 102.384 27.9718 102.294L27.9679 102.15C27.7737 102.071 27.537 101.976 27.2579 101.863C26.9668 101.751 26.6695 101.633 26.366 101.509C26.0506 101.386 25.7654 101.273 25.5106 101.172L17.7175 97.9796L17.6528 95.5865L30.167 100.902L30.2385 103.547Z" fill="#F5F5F5"/>
<path d="M29.957 94.7951L18.8951 86.668L19.3776 84.0847L32.6306 80.4807L32.1745 82.9225L29.2858 83.683L27.9639 90.7606L30.3833 92.5126L29.957 94.7951ZM26.2856 89.5499L27.2837 84.2063L23.6487 85.1388C23.4961 85.1713 23.2979 85.2197 23.0539 85.284C22.7981 85.3461 22.5365 85.4071 22.269 85.467C22.0036 85.5151 21.7619 85.5676 21.5437 85.6246C21.3138 85.6793 21.1542 85.7166 21.065 85.7366L21.0386 85.8781C21.2569 86.0166 21.512 86.1863 21.8041 86.3873C22.0865 86.5744 22.3572 86.7592 22.6161 86.9418C22.8772 87.1127 23.0825 87.2548 23.2323 87.3682L26.2856 89.5499Z" fill="#F5F5F5"/>
<path d="M34.7098 75.4066L25.1015 71.511L23.1266 76.3819L21.275 75.6311L26.077 63.7876L27.9286 64.5383L25.9469 69.4259L35.5552 73.3215L34.7098 75.4066Z" fill="#F5F5F5"/>
<path d="M38.5722 67.0585L27.8337 60.9264L28.9583 58.9569L39.6969 65.089L38.5722 67.0585Z" fill="#F5F5F5"/>
<path d="M45.2492 57.3981C44.2728 58.6147 43.2444 59.5127 42.164 60.0919C41.0742 60.6637 39.9682 60.8915 38.8458 60.7755C37.7215 60.6425 36.6213 60.1442 35.545 59.2804C34.4501 58.4016 33.7254 57.4353 33.371 56.3815C33.0147 55.3109 32.9977 54.1817 33.32 52.994C33.6424 51.8064 34.2917 50.6042 35.2682 49.3876C36.2446 48.171 37.2777 47.2768 38.3674 46.705C39.4572 46.1332 40.5595 45.9101 41.6744 46.0355C42.7874 46.1441 43.8914 46.6377 44.9864 47.5165C46.0626 48.3803 46.7836 49.3513 47.1492 50.4294C47.513 51.4907 47.5337 52.6152 47.2114 53.8029C46.8797 54.9831 46.2256 56.1814 45.2492 57.3981ZM43.7612 56.2038C44.2344 55.6142 44.6045 55.0188 44.8716 54.4177C45.1293 53.809 45.2689 53.2133 45.2904 52.6305C45.3026 52.0401 45.177 51.4777 44.9135 50.9432C44.6576 50.3993 44.2443 49.8983 43.6734 49.4401L43.3645 49.1922C42.7937 48.7341 42.215 48.4389 41.6286 48.3068C41.0498 48.1654 40.4782 48.1682 39.9138 48.3154C39.3495 48.4626 38.8028 48.7316 38.2737 49.1224C37.7352 49.5058 37.2294 49.9922 36.7562 50.5818C36.283 51.1714 35.9176 51.7706 35.6599 52.3792C35.3928 52.9804 35.2485 53.5724 35.227 54.1552C35.2054 54.738 35.3264 55.2967 35.5898 55.8312C35.8532 56.3657 36.2704 56.8621 36.8412 57.3203L37.1501 57.5681C37.7209 58.0263 38.2958 58.3261 38.8747 58.4676C39.4536 58.609 40.0298 58.6099 40.6035 58.4703C41.1679 58.3231 41.7193 58.0578 42.2577 57.6745C42.7868 57.2836 43.288 56.7934 43.7612 56.2038Z" fill="#F5F5F5"/>
<path d="M51.3731 49.8736L43.7744 40.1177L45.4785 38.7904L55.4758 40.2896C55.6537 40.3032 55.8679 40.3341 56.1184 40.3823C56.3784 40.4232 56.6421 40.4688 56.9095 40.5191C57.1863 40.5621 57.4163 40.6035 57.5994 40.6433L57.6988 40.5659C57.5587 40.386 57.3844 40.172 57.1759 39.9238C56.9673 39.6755 56.793 39.4615 56.6529 39.2816L52.1954 33.5587L53.9137 32.2203L61.5124 41.9762L59.8651 43.2593L49.8093 41.7143C49.4388 41.6683 49.0404 41.6059 48.6141 41.5273C48.1878 41.4486 47.8493 41.3852 47.5988 41.337L47.5136 41.4033C47.6242 41.5453 47.7912 41.7499 48.0145 42.0171C48.2304 42.2748 48.4601 42.5599 48.7034 42.8723L53.1056 48.5242L51.3731 49.8736Z" fill="#F5F5F5"/>
<path d="M82.8177 33.2784C81.2886 33.6432 79.949 33.7162 78.7987 33.4972C77.6485 33.2782 76.7007 32.7703 75.9554 31.9735C75.2074 31.1651 74.6704 30.078 74.3445 28.7123C73.8654 26.7047 74.1003 25.0264 75.0491 23.6773C75.9951 22.3166 77.5828 21.3702 79.8122 20.8382C81.0962 20.5318 82.2715 20.4426 83.3384 20.5705C84.4052 20.6984 85.2964 21.047 86.0121 21.6164C86.7279 22.1859 87.2083 22.9842 87.4534 24.0113L85.2823 24.5294C85.1264 23.8757 84.8115 23.3834 84.3377 23.0523C83.8756 22.7184 83.2926 22.5244 82.5888 22.4703C81.8851 22.4162 81.1013 22.4922 80.2375 22.6983C79.2804 22.9267 78.4893 23.282 77.8642 23.7643C77.2507 24.2438 76.8252 24.8388 76.5876 25.5493C76.3473 26.2482 76.3357 27.0529 76.553 27.9633L76.6532 28.3835C76.8761 29.3173 77.2539 30.0475 77.7867 30.5743C78.3195 31.101 78.9723 31.4325 79.745 31.5689C80.5294 31.7024 81.4002 31.655 82.3573 31.4266C83.2561 31.2122 84.0086 30.9277 84.6149 30.5733C85.2185 30.2073 85.6452 29.7723 85.8951 29.2686C86.1538 28.7504 86.2066 28.1703 86.0535 27.5283L88.1895 27.0186C88.4346 28.0458 88.3664 28.975 87.9849 29.8062C87.6034 30.6374 86.9656 31.351 86.0715 31.9468C85.1863 32.5281 84.1017 32.972 82.8177 33.2784Z" fill="#F5F5F5"/>
<path d="M91.5533 31.2179L91.3624 18.8533L100.289 18.7155C101.141 18.7023 101.846 18.8595 102.403 19.1869C102.972 19.5142 103.399 19.9636 103.684 20.5353C103.98 21.0948 104.134 21.7285 104.145 22.4364C104.157 23.2043 103.97 23.9093 103.584 24.5513C103.209 25.1812 102.647 25.6579 101.896 25.9816L104.602 31.0164L102.082 31.0553L99.6524 26.4303L93.7491 26.5214L93.821 31.1829L91.5533 31.2179ZM93.7199 24.6316L99.8571 24.5369C100.493 24.527 100.982 24.3335 101.324 23.9561C101.667 23.5788 101.833 23.0962 101.824 22.5083C101.818 22.1123 101.735 21.7775 101.575 21.504C101.426 21.2182 101.201 20.9997 100.898 20.8483C100.596 20.697 100.229 20.6247 99.7968 20.6313L93.6596 20.7261L93.7199 24.6316Z" fill="#F5F5F5"/>
<path d="M106.959 31.2929L109.368 19.1639L120.932 21.4613L120.56 23.3328L111.221 21.4773L110.6 24.6022L118.951 26.2613L118.579 28.1327L110.228 26.4737L109.555 29.8634L119.018 31.7434L118.646 33.6148L106.959 31.2929ZM114.042 19.1015L116.451 17.1392L118.852 17.6162L118.834 17.7045L115.808 19.4522L114.042 19.1015Z" fill="#F5F5F5"/>
<path d="M119.179 33.6015L129.517 24.5719L131.934 25.6046L132.569 39.3242L130.285 38.348L130.171 35.363L123.55 32.5335L121.314 34.514L119.179 33.6015ZM125.097 31.1587L130.096 33.295L129.976 29.5442C129.978 29.3883 129.973 29.1842 129.964 28.9321C129.959 28.669 129.956 28.4003 129.956 28.1262C129.967 27.8567 129.968 27.6093 129.96 27.384C129.956 27.1477 129.955 26.9838 129.955 26.8924L129.822 26.8358C129.64 27.0188 129.418 27.2309 129.159 27.4723C128.915 27.7073 128.675 27.9313 128.441 28.1442C128.217 28.3619 128.034 28.5315 127.891 28.6529L125.097 31.1587Z" fill="#F5F5F5"/>
<path d="M137.069 42.4195L142.951 33.8818L138.623 30.8997L139.757 29.2545L150.281 36.5054L149.147 38.1507L144.804 35.1584L138.922 43.6961L137.069 42.4195Z" fill="#F5F5F5"/>
<path d="M144.64 48.1923L152.962 39.0451L154.639 40.5713L146.318 49.7185L144.64 48.1923Z" fill="#F5F5F5"/>
<path d="M152.596 56.7785C151.62 55.5619 150.966 54.3635 150.634 53.1833C150.312 51.9957 150.329 50.8665 150.685 49.7958C151.058 48.727 151.783 47.7607 152.859 46.897C153.954 46.0182 155.054 45.5198 156.16 45.4019C157.282 45.2858 158.388 45.5137 159.478 46.0854C160.568 46.6572 161.601 47.5514 162.577 48.768C163.554 49.9846 164.203 51.1868 164.525 52.3745C164.848 53.5621 164.827 54.6866 164.463 55.7479C164.116 56.8111 163.395 57.782 162.3 58.6608C161.224 59.5246 160.12 60.0183 158.988 60.1418C157.873 60.2673 156.771 60.0441 155.681 59.4724C154.601 58.8931 153.573 57.9951 152.596 56.7785ZM154.084 55.5842C154.557 56.1738 155.059 56.6641 155.588 57.0549C156.126 57.4383 156.678 57.7035 157.242 57.8507C157.816 57.9904 158.392 57.9895 158.971 57.848C159.557 57.7159 160.136 57.4207 160.707 56.9626L161.015 56.7147C161.586 56.2565 162 55.7555 162.256 55.2116C162.519 54.6771 162.64 54.1184 162.618 53.5356C162.597 52.9528 162.453 52.3608 162.186 51.7597C161.928 51.151 161.562 50.5519 161.089 49.9623C160.616 49.3727 160.11 48.8862 159.572 48.5028C159.043 48.112 158.496 47.843 157.932 47.6958C157.367 47.5486 156.796 47.5458 156.217 47.6873C155.638 47.8287 155.063 48.1285 154.492 48.5867L154.183 48.8346C153.612 49.2927 153.195 49.7891 152.932 50.3236C152.668 50.8581 152.543 51.4206 152.555 52.0109C152.577 52.5937 152.716 53.1894 152.974 53.7981C153.241 54.3993 153.611 54.9947 154.084 55.5842Z" fill="#F5F5F5"/>
<path d="M158.705 64.549L169.888 59.2693L170.81 61.2225L167.159 70.6495C167.107 70.8201 167.03 71.0224 166.928 71.2563C166.832 71.501 166.729 71.7483 166.622 71.9982C166.519 72.2589 166.429 72.4743 166.35 72.6443L166.403 72.7582C166.61 72.6609 166.857 72.5376 167.144 72.3884C167.432 72.2392 167.679 72.116 167.885 72.0186L174.445 68.9215L175.375 70.891L164.193 76.1707L163.301 74.2826L167.009 64.8085C167.135 64.4571 167.283 64.082 167.453 63.6832C167.623 63.2845 167.759 62.9681 167.861 62.7342L167.815 62.6366C167.652 62.7134 167.416 62.8316 167.106 62.991C166.808 63.1453 166.479 63.307 166.121 63.4761L159.643 66.5348L158.705 64.549Z" fill="#F5F5F5"/>
<circle cx="172.5" cy="87.5" r="2.5" fill="#F5F5F5"/>
</svg>
