<svg width="200" height="200" viewBox="0 0 200 200" fill="none" xmlns="http://www.w3.org/2000/svg">
<g filter="url(#filter0_b_19_274)">
<circle cx="100" cy="100" r="100" fill="url(#paint0_linear_19_274)"/>
</g>
<path fill-rule="evenodd" clip-rule="evenodd" d="M100.073 69.2235C99.1004 69.7902 95.7534 74.9876 93.9318 78.7598C92.9284 80.8375 91.9306 83.6369 91.5568 85.4217C91.2071 87.0924 91.2299 89.4795 91.6084 90.8045C92.8506 95.1537 96.6043 98.0183 101.061 98.0183C105.518 98.0183 109.272 95.1537 110.514 90.8045C110.893 89.4795 110.915 87.0924 110.566 85.4217C109.732 81.4381 107.181 76.1546 103.636 71.0658C102.794 69.8585 102.373 69.3759 101.991 69.1806C101.319 68.8382 100.711 68.8518 100.073 69.2235ZM102.282 76.3955C104.773 80.4136 106.474 84.5867 106.788 87.4426C107.173 90.9531 104.523 93.9766 101.061 93.9766C98.2258 93.9766 95.8525 91.9469 95.3899 89.1261C95.0533 87.0748 95.8584 84.0338 97.7612 80.1675C98.8228 78.0112 100.894 74.5432 101.083 74.6061C101.145 74.6271 101.685 75.4321 102.282 76.3955ZM67.5953 104.661C66.6281 105.263 66.331 106.313 66.8436 107.318C67.1669 107.952 67.8211 108.32 68.8263 108.434C70.0458 108.572 70.6819 109.165 72.6037 111.957C73.7807 113.667 75.2305 115.167 76.2179 115.697C77.5937 116.435 79.5312 116.664 81.0494 116.269C83.0296 115.753 84.3955 114.607 86.2694 111.89C88.2025 109.086 88.9927 108.388 90.225 108.395C91.4698 108.402 92.3014 109.133 94.2375 111.923C96.7637 115.563 98.9825 116.828 102.062 116.385C104.26 116.068 105.845 114.853 107.876 111.93C109.817 109.136 110.652 108.402 111.898 108.395C113.13 108.388 113.92 109.086 115.853 111.89C117.727 114.607 119.093 115.753 121.073 116.269C122.591 116.664 124.529 116.435 125.905 115.697C126.892 115.167 128.342 113.667 129.519 111.957C131.441 109.165 132.077 108.572 133.296 108.434C134.302 108.32 134.956 107.952 135.279 107.318C135.803 106.29 135.475 105.199 134.473 104.636C133.969 104.353 133.804 104.328 132.972 104.41C130.375 104.666 128.908 105.754 126.501 109.208C124.682 111.817 123.957 112.437 122.731 112.431C121.427 112.424 120.743 111.833 118.749 108.989C116.626 105.961 115.091 104.787 112.839 104.469C110.646 104.159 108.616 104.863 106.995 106.498C106.51 106.987 105.633 108.083 105.047 108.934C103.071 111.797 102.347 112.434 101.061 112.434C99.7719 112.434 99.0909 111.833 97.0163 108.863C96.395 107.974 95.5128 106.876 95.0556 106.423C93.477 104.857 91.4321 104.165 89.2831 104.469C87.0313 104.787 85.4961 105.961 83.3736 108.989C81.3798 111.833 80.6957 112.424 79.3913 112.431C78.1655 112.437 77.4407 111.817 75.622 109.208C73.1962 105.727 71.7039 104.632 69.0929 104.414C68.2198 104.342 68.0684 104.367 67.5953 104.661ZM88.5472 118.44C86.6182 118.958 85.2669 120.104 83.3819 122.82C81.4484 125.605 80.6856 126.299 79.5481 126.307C77.6171 126.32 76.6818 128.557 78.0901 129.794C78.6853 130.316 79.291 130.426 80.4959 130.229C82.6644 129.875 84.2073 128.671 86.2808 125.713C88.2746 122.869 88.9588 122.278 90.2632 122.271C91.489 122.265 92.2138 122.885 94.0324 125.494C96.6283 129.219 98.1678 130.263 101.061 130.263C103.955 130.263 105.494 129.219 108.09 125.494C109.999 122.755 110.705 122.186 112.052 122.297C113.302 122.401 114.054 123.112 116.259 126.278C117.967 128.731 119.535 129.892 121.606 130.237C122.789 130.435 123.438 130.316 124.032 129.794C125.441 128.557 124.505 126.32 122.574 126.307C121.437 126.299 120.674 125.605 118.741 122.82C116.832 120.07 115.496 118.948 113.517 118.433C111.999 118.037 110.062 118.267 108.686 119.005C107.698 119.535 106.249 121.035 105.072 122.745C103.005 125.748 102.44 126.24 101.061 126.24C99.6906 126.24 99.0721 125.706 97.0879 122.807C95.8814 121.045 94.4388 119.543 93.4365 119.005C92.0691 118.271 90.0436 118.037 88.5472 118.44Z" fill="#373636"/>
<path d="M86.2904 23.458L89.6876 22.8146L91.5862 32.8397L88.1204 33.496C87.1252 33.6845 86.2322 33.6456 85.4414 33.3797C84.6481 33.1174 83.9882 32.6492 83.4615 31.9748C82.9349 31.3004 82.5731 30.4427 82.376 29.4017C82.1781 28.3574 82.2023 27.4232 82.4486 26.5991C82.6915 25.7756 83.1388 25.0943 83.7905 24.5551C84.439 24.0165 85.2723 23.6508 86.2904 23.458ZM88.1692 24.7298L86.6761 25.0126C85.9778 25.1448 85.4194 25.3824 85.0009 25.7253C84.5831 26.0715 84.3049 26.5214 84.1663 27.075C84.0284 27.6318 84.032 28.2937 84.1773 29.0606C84.3225 29.8275 84.5606 30.4416 84.8913 30.9029C85.2226 31.3675 85.6422 31.6818 86.1499 31.846C86.6549 32.014 87.2469 32.0337 87.9256 31.9052L89.4725 31.6122L88.1692 24.7298Z" fill="#373636"/>
<path d="M74.9139 26.4144L78.6624 35.9041L72.4904 38.3421L71.9212 36.9011L76.3741 35.1421L75.3564 32.5658L71.2232 34.1984L70.654 32.7573L74.7873 31.1248L73.7641 28.5346L69.2741 30.3081L68.7048 28.8671L74.9139 26.4144ZM76.5856 37.8065L76.3841 40.3342L74.7438 40.9821L75.3299 38.3026L76.5856 37.8065Z" fill="#373636"/>
<path d="M62.0382 32.2627L67.4425 40.9171L64.197 42.9438C63.5323 43.3589 62.897 43.5833 62.2915 43.6168C61.6831 43.6521 61.128 43.525 60.626 43.2354C60.123 42.9504 59.7 42.5333 59.3569 41.9839C59.0104 41.4289 58.8195 40.8628 58.7841 40.2859C58.7487 39.7088 58.8819 39.1538 59.1834 38.6209C59.4868 38.0909 59.9723 37.6173 60.6399 37.2003L62.7908 35.8571L63.5956 37.1461L61.6561 38.3573C61.2674 38.6 60.9912 38.8665 60.8278 39.1565C60.6642 39.4466 60.5972 39.7468 60.6267 40.0573C60.6533 40.3696 60.7625 40.6793 60.9543 40.9864C61.146 41.2934 61.3755 41.5261 61.6426 41.6843C61.907 41.8442 62.205 41.9107 62.5367 41.8837C62.8673 41.8613 63.2283 41.7279 63.62 41.4833L65.0567 40.5861L60.4704 33.2417L62.0382 32.2627Z" fill="#373636"/>
<path d="M49.4409 41.2329L50.8882 39.8921L55.1875 49.818L53.5136 51.3688L43.9407 46.3287L45.3878 44.9878L52.8992 49.0855L52.9576 49.0313L49.4409 41.2329ZM52.1122 44.2115L48.1652 47.8683L47.1562 46.7793L51.1033 43.1225L52.1122 44.2115Z" fill="#373636"/>
<path d="M43.1019 64.0218L34.8425 58.0311L35.8079 56.7003L44.2565 56.8891L44.3063 56.8206L38.6804 52.7399L39.7656 51.2438L48.0249 57.2345L47.0538 58.5735L38.604 58.3776L38.5514 58.4502L44.1813 62.5337L43.1019 64.0218Z" fill="#373636"/>
<path d="M37.2176 75.8916L27.9496 71.6243L28.6372 70.131L36.9608 68.6707L36.9963 68.5937L30.6833 65.6871L31.4563 64.0081L40.7243 68.2754L40.0326 69.7778L31.7065 71.2316L31.669 71.313L37.9865 74.2217L37.2176 75.8916Z" fill="#373636"/>
<path d="M25.4866 79.4203L25.9468 77.5019L35.0304 83.3752L34.4981 85.594L23.7373 86.7114L24.1976 84.7929L32.7202 84.0352L32.7389 83.9577L25.4866 79.4203ZM29.3616 80.4167L28.1063 85.6487L26.6627 85.3024L27.9179 80.0703L29.3616 80.4167Z" fill="#373636"/>
<path d="M29.6815 100.194C29.9531 100.12 30.1975 100.013 30.4147 99.8742C30.6351 99.7384 30.8249 99.5718 30.9842 99.3743C31.1434 99.1801 31.2653 98.9547 31.3501 98.6983C31.4382 98.4419 31.4871 98.1611 31.4971 97.8556C31.5148 97.3078 31.3929 96.8154 31.1313 96.3783C30.8696 95.9411 30.4756 95.591 29.9491 95.3281C29.4258 95.0684 28.7824 94.9262 28.0189 94.9014C27.2488 94.8765 26.5925 94.9765 26.0502 95.2014C25.5079 95.4265 25.0903 95.7502 24.7975 96.1727C24.5079 96.5954 24.3539 97.0921 24.3354 97.6631C24.3186 98.1809 24.4036 98.6323 24.5905 99.0172C24.7773 99.4055 25.0499 99.7084 25.4084 99.9261C25.7702 100.144 26.1984 100.261 26.693 100.277L26.6147 100.693L26.7046 97.9244L28.1486 97.9713L28.0143 102.109L26.7894 102.069C25.9163 102.041 25.1672 101.831 24.5419 101.438C23.9166 101.046 23.4418 100.519 23.1177 99.8567C22.7969 99.195 22.6502 98.4425 22.6775 97.5993C22.708 96.6599 22.9456 95.8418 23.3902 95.1451C23.8381 94.4518 24.4585 93.9187 25.2516 93.5456C26.0478 93.1759 26.9837 93.0086 28.0593 93.0435C28.8825 93.0703 29.614 93.2103 30.2538 93.4637C30.8935 93.7204 31.4322 94.0668 31.87 94.5031C32.3111 94.9394 32.6403 95.4452 32.8575 96.0205C33.0782 96.596 33.1776 97.2172 33.156 97.8846C33.1377 98.4489 33.0376 98.9723 32.8558 99.4549C32.6773 99.9377 32.4309 100.363 32.1165 100.732C31.8021 101.104 31.4334 101.406 31.0104 101.638C30.5875 101.87 30.1242 102.016 29.6205 102.077L29.6815 100.194Z" fill="#373636"/>
<path d="M23.3047 109.404L33.3717 107.742L34.4524 114.29L32.9237 114.542L32.144 109.818L29.4109 110.27L30.1347 114.654L28.606 114.907L27.8822 110.522L25.1344 110.976L25.9207 115.739L24.3919 115.991L23.3047 109.404Z" fill="#373636"/>
<path d="M32.149 132.751C31.9765 132.388 31.9075 132.014 31.9419 131.63C31.9794 131.245 32.1053 130.891 32.3198 130.568C32.5356 130.249 32.8251 130.003 33.188 129.83C33.554 129.656 33.9276 129.587 34.3087 129.623C34.6942 129.66 35.0468 129.787 35.3663 130.003C35.6888 130.217 35.9363 130.506 36.1088 130.869C36.2828 131.235 36.3503 131.609 36.3114 131.992C36.277 132.376 36.1518 132.728 35.936 133.047C35.7245 133.368 35.4359 133.616 35.0698 133.79C34.7069 133.962 34.3326 134.03 33.9471 133.993C33.563 133.958 33.2096 133.834 32.8871 133.619C32.569 133.406 32.323 133.117 32.149 132.751Z" fill="#373636"/>
<path d="M40.1624 148.968L47.8084 142.212L50.342 145.08C50.8609 145.667 51.1944 146.25 51.3422 146.827C51.492 147.41 51.4731 147.964 51.285 148.493C51.1017 149.024 50.7661 149.505 50.2783 149.935C49.7879 150.369 49.27 150.64 48.7244 150.75C48.1834 150.86 47.6365 150.8 47.0835 150.571C46.5331 150.339 45.9985 149.929 45.4794 149.342L43.675 147.3L44.8249 146.284L46.4644 148.139C46.7679 148.483 47.0637 148.723 47.3518 148.858C47.6424 148.991 47.926 149.029 48.2025 148.97C48.4838 148.913 48.76 148.764 49.0313 148.524C49.3026 148.284 49.4868 148.026 49.5839 147.75C49.6834 147.472 49.6862 147.178 49.5923 146.872C49.5008 146.562 49.3022 146.235 48.9966 145.889L47.8749 144.619L41.3862 150.352L40.1624 148.968ZM47.1171 149.857L45.3251 154.81L43.9593 153.265L45.7811 148.345L47.1171 149.857Z" fill="#373636"/>
<path d="M50.0458 159.082L56.3425 151.054L61.5642 155.149L60.6079 156.369L56.8407 153.414L55.1312 155.594L58.628 158.336L57.6718 159.556L54.1751 156.813L52.4564 159.004L56.255 161.983L55.2987 163.202L50.0458 159.082ZM59.0335 151.885L61.3167 150.783L62.7044 151.871L60.0959 152.719L59.0335 151.885Z" fill="#373636"/>
<path d="M73.7333 162.046L69.0573 171.115L67.596 170.362L66.508 161.982L66.4327 161.942L63.2477 168.119L61.6049 167.272L66.2809 158.204L67.751 158.962L68.8322 167.344L68.912 167.385L72.0993 161.204L73.7333 162.046Z" fill="#373636"/>
<path d="M85.645 171.139C85.3485 172.197 84.8963 173.048 84.2883 173.693C83.6844 174.334 82.9859 174.759 82.1927 174.968C81.4027 175.179 80.5775 175.162 79.7172 174.921C78.8568 174.681 78.142 174.265 77.5727 173.674C77.0075 173.081 76.6319 172.354 76.4458 171.491C76.2637 170.626 76.3204 169.666 76.6161 168.61C76.9125 167.552 77.3627 166.701 77.9665 166.061C78.5745 165.416 79.2735 164.99 80.0635 164.78C80.8567 164.571 81.6834 164.586 82.5438 164.827C83.4041 165.069 84.1174 165.484 84.6835 166.073C85.2527 166.664 85.6284 167.392 85.8104 168.257C85.9965 169.119 85.9413 170.08 85.645 171.139ZM83.8554 170.638C84.0641 169.893 84.1234 169.231 84.0332 168.654C83.9472 168.075 83.7361 167.597 83.4001 167.22C83.0651 166.839 82.6305 166.575 82.0965 166.425C81.5623 166.276 81.0534 166.277 80.5697 166.428C80.0869 166.575 79.6566 166.873 79.2789 167.323C78.9053 167.77 78.6142 168.366 78.4056 169.112C78.1969 169.857 78.1355 170.52 78.2217 171.098C78.3118 171.676 78.5243 172.154 78.8594 172.534C79.1954 172.912 79.6304 173.175 80.1645 173.324C80.6987 173.474 81.2071 173.475 81.69 173.327C82.1736 173.176 82.6023 172.877 82.9759 172.43C83.3536 171.98 83.6467 171.382 83.8554 170.638Z" fill="#373636"/>
<path d="M93.4645 167.079L95.5517 175.276L95.656 175.284L98.8618 167.458L100.889 167.599L96.5875 177.526L94.3113 177.367L91.4418 166.937L93.4645 167.079Z" fill="#373636"/>
<path d="M107.917 177.295L105.96 177.543L108.241 166.969L110.504 166.683L115.355 176.352L113.398 176.6L109.675 168.897L109.596 168.906L107.917 177.295ZM107.478 173.319L112.816 172.642L113.003 174.115L107.665 174.79L107.478 173.319Z" fill="#373636"/>
<path d="M118.475 166.68L117.995 165.207L125.735 162.685L126.215 164.158L123.217 165.136L125.898 173.363L124.155 173.931L121.474 165.704L118.475 166.68Z" fill="#373636"/>
<path d="M131.725 159.768L136.337 168.87L134.688 169.706L130.076 160.604L131.725 159.768Z" fill="#373636"/>
<path d="M147.658 155.349C148.311 156.233 148.705 157.112 148.841 157.988C148.976 158.858 148.884 159.67 148.562 160.425C148.243 161.177 147.724 161.82 147.006 162.351C146.289 162.883 145.522 163.192 144.706 163.279C143.891 163.361 143.085 163.211 142.29 162.829C141.495 162.442 140.773 161.809 140.12 160.927C139.467 160.043 139.072 159.166 138.935 158.295C138.8 157.421 138.892 156.607 139.211 155.854C139.532 155.1 140.052 154.457 140.77 153.925C141.489 153.394 142.255 153.086 143.068 153C143.884 152.914 144.688 153.064 145.483 153.45C146.278 153.833 147.003 154.465 147.658 155.349ZM146.163 156.455C145.703 155.833 145.218 155.381 144.707 155.098C144.196 154.81 143.688 154.683 143.185 154.717C142.679 154.748 142.204 154.929 141.758 155.259C141.312 155.589 141.001 155.991 140.823 156.466C140.643 156.938 140.615 157.461 140.738 158.035C140.861 158.604 141.154 159.199 141.614 159.822C142.074 160.444 142.559 160.899 143.07 161.187C143.581 161.469 144.089 161.595 144.594 161.563C145.098 161.529 145.573 161.348 146.02 161.018C146.465 160.687 146.778 160.286 146.957 159.815C147.135 159.341 147.163 158.819 147.039 158.25C146.915 157.676 146.624 157.077 146.163 156.455Z" fill="#373636"/>
<path d="M153.935 141.457L161.534 148.265L160.436 149.49L152.052 148.433L151.995 148.496L157.171 153.134L155.937 154.51L148.339 147.701L149.443 146.469L157.828 147.534L157.887 147.467L152.708 142.826L153.935 141.457Z" fill="#373636"/>
<path d="M169.181 132.127C169.009 132.49 168.762 132.78 168.443 132.995C168.121 133.21 167.766 133.336 167.382 133.373C166.997 133.408 166.624 133.339 166.261 133.166C165.895 132.992 165.606 132.746 165.392 132.428C165.178 132.105 165.054 131.752 165.019 131.368C164.981 130.983 165.049 130.608 165.221 130.245C165.395 129.879 165.643 129.591 165.965 129.379C166.284 129.163 166.636 129.038 167.019 129.004C167.403 128.965 167.777 129.032 168.143 129.206C168.505 129.379 168.794 129.626 169.009 129.949C169.224 130.268 169.352 130.621 169.389 131.006C169.424 131.388 169.355 131.761 169.181 132.127Z" fill="#373636"/>
<path d="M171.406 105.974L171.115 107.815C170.805 107.819 170.522 107.874 170.267 107.978C170.009 108.082 169.781 108.226 169.583 108.41C169.387 108.594 169.225 108.814 169.101 109.07C168.974 109.323 168.886 109.603 168.837 109.911C168.751 110.459 168.811 110.966 169.021 111.433C169.227 111.899 169.574 112.294 170.065 112.617C170.551 112.939 171.174 113.16 171.932 113.28C172.702 113.401 173.371 113.384 173.937 113.228C174.5 113.068 174.949 112.8 175.285 112.422C175.618 112.041 175.827 111.578 175.913 111.033C175.961 110.732 175.965 110.443 175.929 110.168C175.888 109.89 175.806 109.633 175.682 109.398C175.558 109.16 175.392 108.951 175.186 108.77C174.98 108.586 174.733 108.443 174.447 108.341L174.747 106.502C175.215 106.646 175.641 106.866 176.025 107.162C176.41 107.455 176.733 107.81 176.996 108.229C177.256 108.646 177.438 109.115 177.541 109.636C177.641 110.156 177.643 110.716 177.548 111.317C177.408 112.203 177.078 112.961 176.558 113.592C176.038 114.222 175.36 114.677 174.523 114.955C173.684 115.233 172.725 115.286 171.642 115.115C170.556 114.944 169.659 114.596 168.952 114.07C168.242 113.545 167.736 112.902 167.437 112.141C167.136 111.381 167.055 110.561 167.193 109.682C167.282 109.121 167.444 108.612 167.677 108.154C167.911 107.697 168.209 107.304 168.574 106.975C168.935 106.645 169.355 106.394 169.833 106.22C170.309 106.043 170.833 105.961 171.406 105.974Z" fill="#373636"/>
<path d="M178.312 100.532L168.114 100.863L167.99 97.0389C167.965 96.2555 168.08 95.5938 168.335 95.0539C168.589 94.5106 168.958 94.0949 169.441 93.8067C169.92 93.5153 170.485 93.3591 171.135 93.338C171.789 93.3168 172.361 93.4378 172.851 93.701C173.338 93.961 173.722 94.3557 174.001 94.885C174.278 95.4143 174.429 96.0707 174.454 96.8541L174.543 99.5779L173.009 99.6276L172.928 97.1528C172.914 96.6948 172.838 96.3217 172.702 96.0336C172.563 95.7458 172.369 95.536 172.119 95.4046C171.865 95.27 171.558 95.2085 171.195 95.2203C170.834 95.232 170.528 95.3133 170.276 95.4644C170.023 95.6155 169.833 95.8393 169.711 96.1358C169.583 96.4323 169.528 96.8113 169.542 97.2727L169.597 98.9656L178.252 98.6849L178.312 100.532ZM173.52 95.414L178.059 92.7395L178.126 94.8009L173.585 97.4306L173.52 95.414Z" fill="#373636"/>
<path d="M177.145 86.4387L167.176 88.6102L165.764 82.1262L167.278 81.7963L168.296 86.4744L171.002 85.8849L170.057 81.5428L171.571 81.213L172.517 85.5552L175.238 84.9624L174.211 80.2455L175.725 79.9157L177.145 86.4387ZM165.633 86.2541L163.171 85.6482L162.795 83.9251L165.345 84.935L165.633 86.2541Z" fill="#373636"/>
<path d="M172.946 71.5551L173.721 73.3696L162.926 74.0721L162.031 71.9735L170.002 64.6593L170.777 66.4738L164.386 72.1647L164.418 72.238L172.946 71.5551ZM169.241 73.0663L167.128 68.1178L168.494 67.5349L170.606 72.4834L169.241 73.0663Z" fill="#373636"/>
<path d="M159.844 64.3081L158.56 65.1734L154.013 58.4204L155.299 57.5552L157.06 60.1712L164.238 55.3385L165.262 56.8593L158.084 61.6921L159.844 64.3081Z" fill="#373636"/>
<path d="M149.568 53.4584L157.057 46.5294L158.313 47.8862L150.824 54.8152L149.568 53.4584Z" fill="#373636"/>
<path d="M140.954 39.3463C141.625 38.4753 142.363 37.8548 143.167 37.4851C143.967 37.1159 144.773 36.9828 145.587 37.0854C146.398 37.1861 147.158 37.509 147.866 38.0542C148.574 38.5992 149.082 39.2521 149.389 40.0127C149.691 40.7739 149.768 41.5893 149.617 42.4589C149.463 43.3292 149.051 44.1986 148.382 45.067C147.711 45.938 146.976 46.5581 146.176 46.9273C145.372 47.297 144.564 47.4315 143.753 47.3309C142.939 47.2282 142.178 46.9043 141.471 46.3591C140.762 45.8141 140.256 45.1622 139.952 44.4036C139.644 43.643 139.568 42.8277 139.723 41.9574C139.872 41.0877 140.283 40.2173 140.954 39.3463ZM142.426 40.4801C141.953 41.0932 141.652 41.6843 141.52 42.2533C141.383 42.8229 141.399 43.3452 141.57 43.8204C141.739 44.2982 142.043 44.7063 142.483 45.0447C142.921 45.3831 143.394 45.5729 143.899 45.6138C144.403 45.6574 144.912 45.5413 145.432 45.2656C145.945 44.9904 146.438 44.5464 146.911 43.9332C147.383 43.3201 147.687 42.7286 147.824 42.1592C147.956 41.5901 147.937 41.0667 147.769 40.5889C147.598 40.1138 147.293 39.7069 146.853 39.3686C146.414 39.0301 145.942 38.8391 145.44 38.7955C144.935 38.7546 144.425 38.8716 143.912 39.1467C143.394 39.4225 142.898 39.8669 142.426 40.4801Z" fill="#373636"/>
<path d="M125.872 37.1145L130.34 27.9413L131.818 28.6612L133.097 37.0146L133.173 37.0516L136.216 30.8033L137.878 31.6126L133.41 40.7858L131.923 40.0615L130.651 31.7059L130.57 31.6666L127.525 37.9195L125.872 37.1145Z" fill="#373636"/>
<path d="M112.723 25.0064C113.12 25.0729 113.465 25.2302 113.761 25.4784C114.055 25.7299 114.273 26.0359 114.415 26.3964C114.553 26.7564 114.589 27.1346 114.523 27.5309C114.456 27.9305 114.298 28.2763 114.051 28.5682C113.799 28.8627 113.493 29.0792 113.133 29.2175C112.773 29.3591 112.395 29.3967 111.998 29.3302C111.598 29.2632 111.253 29.1043 110.962 28.8533C110.667 28.6051 110.45 28.301 110.312 27.9411C110.169 27.5838 110.132 27.2054 110.199 26.8058C110.265 26.4094 110.424 26.064 110.676 25.7693C110.924 25.4742 111.228 25.2558 111.589 25.1142C111.945 24.9753 112.324 24.9394 112.723 25.0064Z" fill="#373636"/>
<defs>
<filter id="filter0_b_19_274" x="-20" y="-20" width="240" height="240" filterUnits="userSpaceOnUse" color-interpolation-filters="sRGB">
<feFlood flood-opacity="0" result="BackgroundImageFix"/>
<feGaussianBlur in="BackgroundImageFix" stdDeviation="10"/>
<feComposite in2="SourceAlpha" operator="in" result="effect1_backgroundBlur_19_274"/>
<feBlend mode="normal" in="SourceGraphic" in2="effect1_backgroundBlur_19_274" result="shape"/>
</filter>
<linearGradient id="paint0_linear_19_274" x1="36.5" y1="-1.04673e-06" x2="160" y2="184" gradientUnits="userSpaceOnUse">
<stop stop-color="white" stop-opacity="0.5"/>
<stop offset="1" stop-color="white" stop-opacity="0.2"/>
</linearGradient>
</defs>
</svg>
