<svg width="136" height="136" viewBox="0 0 136 136" fill="none" xmlns="http://www.w3.org/2000/svg">
<path fill-rule="evenodd" clip-rule="evenodd" d="M67.635 41.2478C66.8029 41.7325 63.94 46.1781 62.3819 49.4046C61.5237 51.1818 60.6702 53.5762 60.3505 55.1028C60.0514 56.5319 60.0709 58.5737 60.3946 59.707C61.4571 63.4271 64.6678 65.8773 68.4801 65.8773C72.2924 65.8773 75.5031 63.4271 76.5656 59.707C76.8893 58.5737 76.9088 56.5319 76.6097 55.1028C75.8962 51.6955 73.7147 47.1763 70.682 42.8236C69.9625 41.7909 69.6024 41.3781 69.275 41.2111C68.7008 40.9182 68.1808 40.9298 67.635 41.2478ZM69.5244 47.3823C71.6545 50.8192 73.1102 54.3886 73.3781 56.8314C73.7075 59.8341 71.441 62.4202 68.4801 62.4202C66.0548 62.4202 64.0248 60.6841 63.6291 58.2714C63.3412 56.5168 64.0298 53.9157 65.6574 50.6087C66.5654 48.7643 68.337 45.798 68.4985 45.8518C68.5521 45.8697 69.0138 46.5583 69.5244 47.3823ZM39.8551 71.5593C39.0278 72.0741 38.7737 72.9721 39.2121 73.8314C39.4887 74.3737 40.0482 74.6887 40.908 74.7859C41.9511 74.904 42.4952 75.4115 44.139 77.7999C45.1458 79.2625 46.3858 80.5456 47.2304 80.9987C48.4072 81.63 50.0644 81.8262 51.363 81.4879C53.0568 81.0467 54.2251 80.0665 55.8279 77.7421C57.4814 75.344 58.1573 74.747 59.2113 74.7528C60.2761 74.7588 60.9874 75.3842 62.6434 77.7704C64.8042 80.8841 66.702 81.9664 69.3357 81.587C71.2158 81.3161 72.5718 80.2772 74.3089 77.7767C75.9692 75.3866 76.6835 74.7588 77.7489 74.7528C78.8029 74.747 79.4788 75.344 81.1323 77.7421C82.7351 80.0665 83.9034 81.0467 85.5972 81.4879C86.8958 81.8262 88.553 81.63 89.7298 80.9987C90.5744 80.5456 91.8144 79.2625 92.8212 77.7999C94.465 75.4115 95.0091 74.904 96.0522 74.7859C96.912 74.6887 97.4715 74.3737 97.7481 73.8314C98.1964 72.9528 97.9159 72.0196 97.0587 71.5379C96.6279 71.2957 96.4863 71.2744 95.7746 71.3446C93.5534 71.5634 92.2986 72.4937 90.2395 75.4482C88.6839 77.68 88.064 78.2101 87.0154 78.2048C85.8997 78.1992 85.3146 77.6934 83.6092 75.2609C81.7937 72.6714 80.4806 71.6671 78.5545 71.3947C76.6783 71.1293 74.9419 71.7323 73.5554 73.1306C73.1406 73.5486 72.3908 74.4861 71.889 75.2137C70.1993 77.6632 69.5798 78.2073 68.4801 78.2073C67.3772 78.2073 66.7947 77.6933 65.0202 75.1536C64.4888 74.3931 63.7342 73.4536 63.3432 73.0659C61.9929 71.7268 60.2438 71.1347 58.4057 71.3947C56.4796 71.6671 55.1665 72.6714 53.351 75.2609C51.6456 77.6934 51.0605 78.1992 49.9448 78.2048C48.8963 78.2101 48.2763 77.68 46.7207 75.4482C44.6458 72.471 43.3694 71.5339 41.1361 71.3482C40.3893 71.2861 40.2598 71.3076 39.8551 71.5593ZM57.7762 83.3446C56.1263 83.7883 54.9704 84.7684 53.3581 87.0913C51.7043 89.4738 51.0518 90.0673 50.0789 90.0739C48.4272 90.0853 47.6272 91.9987 48.8318 93.0563C49.3409 93.5034 49.859 93.5972 50.8896 93.4289C52.7444 93.1259 54.0641 92.0956 55.8377 89.5659C57.5431 87.1334 58.1283 86.6276 59.244 86.622C60.2925 86.6167 60.9124 87.1468 62.468 89.3786C64.6884 92.5646 66.0052 93.458 68.4801 93.458C70.955 93.458 72.2718 92.5646 74.4922 89.3786C76.1253 87.0356 76.7286 86.5487 77.8807 86.6442C78.9505 86.733 79.5932 87.3409 81.4792 90.049C82.9404 92.1469 84.2816 93.14 86.0533 93.4357C87.0652 93.6045 87.6195 93.5032 88.1284 93.0563C89.333 91.9987 88.533 90.0853 86.8813 90.0739C85.9084 90.0673 85.2559 89.4738 83.6021 87.0913C81.9697 84.7394 80.827 83.7797 79.1344 83.3388C77.8359 83.0006 76.1787 83.1968 75.0019 83.8281C74.1572 84.2812 72.9173 85.5642 71.9105 87.0269C70.1426 89.5956 69.6594 90.0168 68.4801 90.0168C67.3077 90.0168 66.7787 89.5597 65.0815 87.0804C64.0495 85.5728 62.8156 84.288 61.9583 83.8281C60.7887 83.2006 59.0562 83.0003 57.7762 83.3446Z" fill="#91A8A3"/>
<path d="M55.8461 2.1024L58.7518 1.55211L60.3757 10.127L57.4114 10.6884C56.56 10.8496 55.7962 10.8164 55.1199 10.5889C54.4413 10.3646 53.8768 9.96408 53.4264 9.38725C52.9759 8.81042 52.6664 8.0768 52.4978 7.18637C52.3286 6.29316 52.3493 5.4941 52.5599 4.7892C52.7677 4.08482 53.1503 3.50203 53.7078 3.04082C54.2624 2.58014 54.9752 2.26733 55.8461 2.1024ZM57.453 3.1903L56.176 3.43214C55.5786 3.54526 55.101 3.74848 54.7431 4.04179C54.3857 4.3379 54.1477 4.7227 54.0292 5.1962C53.9112 5.6725 53.9144 6.23862 54.0386 6.89458C54.1628 7.55053 54.3664 8.0758 54.6493 8.47039C54.9327 8.86778 55.2916 9.13666 55.7259 9.27706C56.1579 9.42077 56.6642 9.43765 57.2448 9.3277L58.5678 9.07714L57.453 3.1903Z" fill="#91A8A3"/>
<path d="M46.1149 4.63122L49.3212 12.7482L44.042 14.8335L43.5551 13.6009L47.3639 12.0964L46.4934 9.89278L42.9581 11.2892L42.4712 10.0566L46.0065 8.66017L45.1314 6.44465L41.2909 7.96166L40.804 6.72905L46.1149 4.63122ZM47.5447 14.3754L47.3724 16.5374L45.9694 17.0916L46.4707 14.7997L47.5447 14.3754Z" fill="#91A8A3"/>
<path d="M35.1018 9.63349L39.7244 17.036L36.9484 18.7695C36.3798 19.1246 35.8364 19.3165 35.3185 19.3452C34.7981 19.3754 34.3233 19.2667 33.8939 19.019C33.4637 18.7752 33.1019 18.4184 32.8084 17.9485C32.512 17.4738 32.3487 16.9896 32.3185 16.4961C32.2882 16.0025 32.4021 15.5278 32.66 15.072C32.9195 14.6186 33.3348 14.2135 33.9058 13.8569L35.7456 12.708L36.434 13.8105L34.775 14.8465C34.4425 15.0541 34.2063 15.282 34.0665 15.5301C33.9266 15.7782 33.8693 16.035 33.8945 16.3006C33.9173 16.5677 34.0107 16.8326 34.1747 17.0953C34.3387 17.3579 34.535 17.5569 34.7635 17.6922C34.9896 17.829 35.2445 17.8859 35.5282 17.8628C35.811 17.8436 36.1198 17.7295 36.4548 17.5203L37.6837 16.7529L33.7608 10.4709L35.1018 9.63349Z" fill="#91A8A3"/>
<path d="M24.3266 17.3061L25.5645 16.1593L29.2419 24.6494L27.8102 25.9758L19.622 21.6648L20.8599 20.5179L27.2847 24.0228L27.3347 23.9765L24.3266 17.3061ZM26.6116 19.8539L23.2355 22.9817L22.3725 22.0502L25.7485 18.9224L26.6116 19.8539Z" fill="#91A8A3"/>
<path d="M18.9047 36.7985L11.8401 31.6744L12.6657 30.5361L19.8923 30.6976L19.9348 30.639L15.1227 27.1486L16.051 25.8689L23.1156 30.993L22.2849 32.1383L15.0574 31.9708L15.0124 32.0329L19.8279 35.5257L18.9047 36.7985Z" fill="#91A8A3"/>
<path d="M13.8715 46.9513L5.9442 43.3013L6.53234 42.024L13.6519 40.7749L13.6822 40.7091L8.28248 38.2229L8.94369 36.7868L16.871 40.4368L16.2793 41.7219L9.15767 42.9654L9.12559 43.035L14.5292 45.523L13.8715 46.9513Z" fill="#91A8A3"/>
<path d="M3.83754 49.9696L4.23122 48.3287L12.0009 53.3524L11.5456 55.2502L2.34133 56.206L2.73501 54.565L10.0249 53.9169L10.0408 53.8506L3.83754 49.9696ZM7.15206 50.8218L6.07837 55.297L4.84353 55.0008L5.91722 50.5255L7.15206 50.8218Z" fill="#91A8A3"/>
<path d="M7.42583 67.7385C7.65813 67.675 7.86716 67.5837 8.05294 67.4647C8.24146 67.3486 8.40384 67.2061 8.54008 67.0371C8.67622 66.871 8.78053 66.6782 8.85303 66.4589C8.92836 66.2396 8.97026 65.9994 8.97874 65.7381C8.99394 65.2696 8.88965 64.8484 8.66586 64.4745C8.44208 64.1006 8.10502 63.8011 7.65469 63.5762C7.20711 63.3541 6.65679 63.2325 6.00372 63.2113C5.34498 63.19 4.78367 63.2755 4.3198 63.4679C3.85593 63.6604 3.49875 63.9373 3.24826 64.2987C3.00061 64.6602 2.86886 65.0851 2.85302 65.5735C2.83864 66.0164 2.91139 66.4025 3.07125 66.7317C3.23102 67.0638 3.46422 67.3229 3.77084 67.5091C4.0803 67.6954 4.44657 67.7954 4.86964 67.8091L4.80267 68.1651L4.8795 65.797L6.11465 65.8371L5.99981 69.3764L4.95206 69.3424C4.2053 69.3182 3.56449 69.1382 3.02964 68.8025C2.49479 68.4668 2.08875 68.0159 1.81151 67.4498C1.5371 66.8838 1.4116 66.2401 1.43501 65.5189C1.46108 64.7154 1.66428 64.0156 2.0446 63.4197C2.42767 62.8267 2.95836 62.3707 3.63668 62.0516C4.31775 61.7354 5.11826 61.5923 6.03823 61.6221C6.74241 61.645 7.36812 61.7648 7.91535 61.9815C8.4625 62.2011 8.9233 62.4974 9.29776 62.8706C9.67506 63.2438 9.95663 63.6764 10.1425 64.1685C10.3312 64.6607 10.4162 65.1921 10.3977 65.7629C10.3821 66.2456 10.2965 66.6933 10.141 67.1061C9.98828 67.519 9.7775 67.8831 9.50861 68.1984C9.23962 68.5165 8.92426 68.7749 8.56252 68.9735C8.20077 69.1721 7.80446 69.2971 7.37359 69.3485L7.42583 67.7385Z" fill="#91A8A3"/>
<path d="M1.97131 75.6162L10.5821 74.1948L11.5065 79.7952L10.1989 80.011L9.53195 75.9705L7.19427 76.3564L7.81333 80.1068L6.50574 80.3226L5.88668 76.5722L3.53638 76.9602L4.20888 81.0343L2.90129 81.2502L1.97131 75.6162Z" fill="#91A8A3"/>
<path d="M9.53624 95.5857C9.38869 95.2752 9.32965 94.9557 9.3591 94.6272C9.39111 94.2974 9.49883 93.9946 9.68226 93.7187C9.86691 93.4454 10.1145 93.2349 10.4249 93.0874C10.738 92.9386 11.0575 92.8796 11.3835 92.9102C11.7132 92.9423 12.0148 93.0506 12.2881 93.2352C12.564 93.4187 12.7757 93.6656 12.9232 93.9761C13.072 94.2891 13.1298 94.6092 13.0965 94.9364C13.0671 95.265 12.96 95.5659 12.7754 95.8392C12.5945 96.1139 12.3476 96.3256 12.0345 96.4744C11.7241 96.6219 11.4039 96.6797 11.0742 96.6477C10.7457 96.6182 10.4434 96.5118 10.1675 96.3284C9.89544 96.1463 9.68501 95.8987 9.53624 95.5857Z" fill="#91A8A3"/>
<path d="M16.3905 109.457L22.9305 103.678L25.0975 106.131C25.5415 106.633 25.8266 107.132 25.953 107.626C26.0813 108.124 26.065 108.598 25.9042 109.051C25.7474 109.505 25.4603 109.916 25.0431 110.284C24.6237 110.655 24.1806 110.887 23.7139 110.981C23.2512 111.075 22.7834 111.024 22.3105 110.828C21.8397 110.63 21.3823 110.279 20.9384 109.777L19.395 108.03L20.3785 107.161L21.7809 108.748C22.0405 109.042 22.2935 109.247 22.5399 109.363C22.7885 109.477 23.031 109.509 23.2676 109.459C23.5081 109.41 23.7444 109.282 23.9765 109.077C24.2085 108.872 24.3661 108.651 24.4491 108.415C24.5343 108.177 24.5367 107.926 24.4563 107.664C24.3781 107.399 24.2082 107.119 23.9467 106.823L22.9874 105.737L17.4373 110.641L16.3905 109.457ZM22.3392 110.217L20.8063 114.454L19.6382 113.132L21.1965 108.924L22.3392 110.217Z" fill="#91A8A3"/>
<path d="M24.8443 118.108L30.2302 111.241L34.6965 114.744L33.8786 115.787L30.6563 113.26L29.1941 115.124L32.1851 117.47L31.3672 118.513L28.3762 116.167L26.9061 118.041L30.1553 120.589L29.3374 121.632L24.8443 118.108ZM32.5318 111.952L34.4848 111.009L35.6718 111.94L33.4405 112.665L32.5318 111.952Z" fill="#91A8A3"/>
<path d="M45.1052 120.643L41.1056 128.4L39.8558 127.756L38.9251 120.588L38.8608 120.554L36.1364 125.838L34.7312 125.113L38.7309 117.357L39.9883 118.005L40.9132 125.175L40.9814 125.21L43.7077 119.923L45.1052 120.643Z" fill="#91A8A3"/>
<path d="M55.2937 128.421C55.0401 129.326 54.6533 130.054 54.1333 130.605C53.6168 131.154 53.0193 131.517 52.3408 131.696C51.6651 131.876 50.9593 131.862 50.2234 131.656C49.4875 131.45 48.8761 131.095 48.3892 130.589C47.9057 130.082 47.5844 129.46 47.4252 128.722C47.2695 127.982 47.3181 127.161 47.5709 126.258C47.8245 125.353 48.2095 124.625 48.726 124.077C49.246 123.526 49.8439 123.161 50.5196 122.982C51.1981 122.803 51.9053 122.816 52.6412 123.022C53.3771 123.229 53.9871 123.584 54.4713 124.088C54.9582 124.593 55.2796 125.216 55.4353 125.956C55.5944 126.693 55.5473 127.515 55.2937 128.421ZM53.7631 127.992C53.9416 127.355 53.9923 126.789 53.9151 126.295C53.8415 125.8 53.661 125.391 53.3737 125.069C53.0871 124.743 52.7154 124.517 52.2585 124.389C51.8017 124.261 51.3663 124.262 50.9526 124.391C50.5396 124.517 50.1716 124.772 49.8486 125.157C49.529 125.539 49.28 126.049 49.1015 126.687C48.923 127.324 48.8706 127.891 48.9442 128.386C49.0213 128.88 49.2032 129.289 49.4898 129.614C49.7771 129.937 50.1492 130.162 50.6061 130.29C51.0629 130.418 51.4979 130.419 51.9108 130.292C52.3246 130.163 52.6912 129.907 53.0108 129.525C53.3338 129.14 53.5846 128.629 53.7631 127.992Z" fill="#91A8A3"/>
<path d="M61.9822 124.948L63.7675 131.959L63.8567 131.966L66.5988 125.272L68.3331 125.393L64.6535 133.884L62.7065 133.748L60.2521 124.827L61.9822 124.948Z" fill="#91A8A3"/>
<path d="M74.3438 133.686L72.6697 133.898L74.6209 124.854L76.5571 124.609L80.7063 132.88L79.0322 133.092L75.8477 126.503L75.7801 126.511L74.3438 133.686ZM73.9687 130.285L78.5344 129.706L78.6941 130.966L74.1283 131.544L73.9687 130.285Z" fill="#91A8A3"/>
<path d="M83.3751 124.607L82.9645 123.347L89.5848 121.19L89.9955 122.45L87.4308 123.286L89.7244 130.323L88.2334 130.809L85.9398 123.772L83.3751 124.607Z" fill="#91A8A3"/>
<path d="M94.7081 118.695L98.6533 126.48L97.2431 127.195L93.2979 119.41L94.7081 118.695Z" fill="#91A8A3"/>
<path d="M108.336 114.915C108.895 115.671 109.232 116.423 109.348 117.172C109.464 117.916 109.385 118.611 109.11 119.257C108.837 119.9 108.393 120.45 107.779 120.904C107.165 121.359 106.509 121.623 105.811 121.698C105.114 121.768 104.425 121.64 103.745 121.313C103.065 120.982 102.447 120.44 101.889 119.686C101.33 118.93 100.992 118.18 100.876 117.435C100.76 116.687 100.838 115.991 101.111 115.347C101.387 114.702 101.831 114.152 102.446 113.697C103.06 113.243 103.715 112.979 104.41 112.906C105.108 112.832 105.796 112.96 106.476 113.291C107.156 113.618 107.776 114.159 108.336 114.915ZM107.058 115.861C106.664 115.329 106.249 114.942 105.812 114.7C105.375 114.454 104.941 114.345 104.511 114.374C104.078 114.401 103.671 114.556 103.29 114.838C102.908 115.12 102.642 115.464 102.49 115.87C102.336 116.274 102.312 116.721 102.417 117.212C102.523 117.699 102.773 118.208 103.167 118.741C103.56 119.273 103.976 119.662 104.412 119.908C104.849 120.15 105.284 120.257 105.717 120.23C106.147 120.201 106.554 120.046 106.935 119.764C107.316 119.481 107.584 119.138 107.738 118.735C107.89 118.329 107.913 117.883 107.807 117.396C107.701 116.905 107.452 116.393 107.058 115.861Z" fill="#91A8A3"/>
<path d="M113.705 103.032L120.205 108.856L119.266 109.903L112.095 108.999L112.046 109.053L116.473 113.02L115.418 114.197L108.919 108.373L109.863 107.319L117.035 108.23L117.086 108.173L112.656 104.203L113.705 103.032Z" fill="#91A8A3"/>
<path d="M126.746 95.0521C126.599 95.3626 126.388 95.6102 126.115 95.7948C125.839 95.9782 125.536 96.086 125.207 96.118C124.878 96.1474 124.559 96.0884 124.248 95.9408C123.935 95.7921 123.687 95.5816 123.505 95.3095C123.322 95.0336 123.215 94.7314 123.186 94.4029C123.154 94.0731 123.212 93.753 123.359 93.4425C123.508 93.1295 123.72 92.8826 123.994 92.7017C124.268 92.5171 124.569 92.41 124.897 92.3806C125.224 92.3473 125.545 92.4051 125.858 92.5538C126.168 92.7014 126.415 92.9131 126.598 93.189C126.783 93.4623 126.891 93.7639 126.923 94.0936C126.954 94.4196 126.895 94.7391 126.746 95.0521Z" fill="#91A8A3"/>
<path d="M128.649 72.6822L128.4 74.2565C128.135 74.2606 127.893 74.3073 127.675 74.3965C127.454 74.4853 127.259 74.6084 127.091 74.7658C126.922 74.9232 126.784 75.1115 126.678 75.3305C126.569 75.5463 126.494 75.7861 126.452 76.0498C126.378 76.5185 126.43 76.9524 126.609 77.3516C126.785 77.7504 127.082 78.0878 127.502 78.364C127.918 78.6397 128.451 78.8288 129.099 78.9311C129.758 79.0352 130.33 79.0205 130.814 78.887C131.296 78.7503 131.68 78.5204 131.967 78.1976C132.252 77.8715 132.431 77.4755 132.504 77.0097C132.545 76.7515 132.549 76.5049 132.518 76.2698C132.483 76.0314 132.413 75.8118 132.307 75.6109C132.201 75.4072 132.059 75.2282 131.882 75.0737C131.706 74.9164 131.495 74.794 131.25 74.7064L131.507 73.1335C131.907 73.2571 132.272 73.4455 132.6 73.6986C132.929 73.9489 133.206 74.2529 133.431 74.6107C133.654 74.9679 133.809 75.3692 133.897 75.8145C133.982 76.2593 133.984 76.7385 133.903 77.252C133.783 78.0097 133.501 78.6583 133.056 79.1978C132.611 79.7373 132.031 80.126 131.315 80.3638C130.598 80.6016 129.777 80.6474 128.851 80.5012C127.922 80.3545 127.155 80.0566 126.55 79.6073C125.943 79.1576 125.51 78.6076 125.254 77.9573C124.997 77.307 124.928 76.6058 125.046 75.8538C125.122 75.3739 125.26 74.9384 125.46 74.5472C125.66 74.1559 125.915 73.8196 126.227 73.538C126.537 73.2561 126.895 73.041 127.304 72.8927C127.711 72.7412 128.159 72.671 128.649 72.6822Z" fill="#91A8A3"/>
<path d="M134.556 68.0276L125.833 68.3106L125.727 65.0396C125.705 64.3695 125.804 63.8035 126.022 63.3417C126.24 62.877 126.555 62.5214 126.968 62.2749C127.378 62.0257 127.861 61.8921 128.417 61.874C128.977 61.8559 129.466 61.9594 129.885 62.1845C130.302 62.4069 130.63 62.7445 130.869 63.1972C131.105 63.65 131.235 64.2114 131.256 64.8815L131.332 67.2113L130.02 67.2538L129.951 65.137C129.939 64.7452 129.874 64.4261 129.758 64.1797C129.639 63.9335 129.473 63.7541 129.259 63.6417C129.042 63.5265 128.779 63.4739 128.469 63.484C128.16 63.494 127.898 63.5636 127.683 63.6928C127.466 63.8221 127.304 64.0135 127.199 64.2671C127.09 64.5207 127.043 64.8449 127.055 65.2395L127.102 66.6876L134.505 66.4475L134.556 68.0276ZM130.457 63.6497L134.34 61.3621L134.397 63.1253L130.513 65.3746L130.457 63.6497Z" fill="#91A8A3"/>
<path d="M133.558 55.9727L125.031 57.8301L123.823 52.284L125.118 52.0019L125.989 56.0033L128.304 55.499L127.495 51.785L128.79 51.5029L129.599 55.217L131.927 54.71L131.048 50.6754L132.343 50.3933L133.558 55.9727ZM123.711 55.8148L121.605 55.2966L121.284 53.8227L123.465 54.6865L123.711 55.8148Z" fill="#91A8A3"/>
<path d="M129.966 43.2421L130.629 44.7941L121.396 45.395L120.629 43.6L127.448 37.3438L128.11 38.8958L122.645 43.7635L122.672 43.8262L129.966 43.2421ZM126.797 44.5347L124.99 40.302L126.158 39.8034L127.965 44.0361L126.797 44.5347Z" fill="#91A8A3"/>
<path d="M118.76 37.0434L117.661 37.7835L113.772 32.0074L114.872 31.2673L116.378 33.5049L122.518 29.3713L123.394 30.6721L117.254 34.8058L118.76 37.0434Z" fill="#91A8A3"/>
<path d="M109.97 27.7632L116.376 21.8365L117.45 22.997L111.044 28.9237L109.97 27.7632Z" fill="#91A8A3"/>
<path d="M102.602 15.6924C103.176 14.9474 103.807 14.4167 104.495 14.1005C105.179 13.7847 105.869 13.6708 106.565 13.7586C107.259 13.8447 107.909 14.1209 108.514 14.5872C109.12 15.0534 109.554 15.6119 109.817 16.2624C110.075 16.9135 110.141 17.611 110.012 18.3548C109.88 19.0992 109.528 19.8428 108.956 20.5856C108.382 21.3306 107.753 21.861 107.069 22.1768C106.381 22.493 105.69 22.6081 104.996 22.522C104.3 22.4342 103.649 22.1571 103.044 21.6908C102.438 21.2246 102.005 20.667 101.745 20.0182C101.482 19.3676 101.417 18.6702 101.549 17.9258C101.677 17.1819 102.028 16.4374 102.602 15.6924ZM103.861 16.6622C103.457 17.1866 103.199 17.6922 103.086 18.1789C102.969 18.6661 102.983 19.1129 103.129 19.5193C103.274 19.928 103.534 20.2771 103.91 20.5665C104.285 20.856 104.689 21.0183 105.121 21.0533C105.552 21.0906 105.988 20.9913 106.432 20.7555C106.871 20.5201 107.293 20.1403 107.697 19.6158C108.101 19.0914 108.361 18.5855 108.478 18.0984C108.591 17.6117 108.575 17.164 108.431 16.7553C108.285 16.3489 108.024 16.0009 107.648 15.7115C107.272 15.422 106.869 15.2586 106.439 15.2213C106.007 15.1863 105.571 15.2864 105.132 15.5217C104.689 15.7576 104.265 16.1377 103.861 16.6622Z" fill="#91A8A3"/>
<path d="M89.702 13.7835L93.5232 5.93725L94.7875 6.55297L95.8817 13.698L95.9469 13.7297L98.5497 8.38521L99.971 9.07743L96.1498 16.9237L94.8779 16.3042L93.7893 9.15725L93.7204 9.12366L91.1157 14.472L89.702 13.7835Z" fill="#91A8A3"/>
<path d="M78.4552 3.42689C78.7942 3.48374 79.0899 3.61831 79.3424 3.83061C79.5944 4.0457 79.7809 4.30743 79.902 4.61581C80.0204 4.92371 80.0511 5.24717 79.9942 5.58618C79.9369 5.928 79.8023 6.22373 79.5905 6.47339C79.3754 6.72537 79.1139 6.91052 78.806 7.02884C78.4977 7.14996 78.174 7.18209 77.8349 7.12524C77.4931 7.06791 77.1976 6.93194 76.9484 6.71731C76.696 6.50502 76.5106 6.24492 76.3923 5.93702C76.2707 5.63145 76.2386 5.30776 76.2959 4.96594C76.3527 4.62693 76.4887 4.33143 76.7038 4.07944C76.9161 3.82698 77.1764 3.6402 77.4848 3.51908C77.7899 3.40029 78.1134 3.36956 78.4552 3.42689Z" fill="#91A8A3"/>
</svg>
