<svg width="200" height="200" viewBox="0 0 200 200" fill="none" xmlns="http://www.w3.org/2000/svg">
<g filter="url(#filter0_b_688_717)">
<circle cx="100" cy="100" r="100" fill="#2A2E35"/>
</g>
<path fill-rule="evenodd" clip-rule="evenodd" d="M98.997 68.3006C98.0091 68.8887 94.6101 74.2821 92.7603 78.1966C91.7414 80.3527 90.728 83.2576 90.3485 85.1097C89.9934 86.8435 90.0165 89.3207 90.4008 90.6956C91.6623 95.2089 95.4742 98.1815 100 98.1815C104.527 98.1815 108.338 95.2089 109.6 90.6956C109.984 89.3207 110.007 86.8435 109.652 85.1097C108.805 80.9759 106.215 75.4932 102.615 70.2124C101.76 68.9595 101.333 68.4587 100.944 68.2561C100.262 67.9008 99.645 67.9148 98.997 68.3006ZM101.24 75.7431C103.769 79.9128 105.497 84.2432 105.816 87.2069C106.207 90.8498 103.516 93.9873 100 93.9873C97.1209 93.9873 94.7108 91.881 94.241 88.9539C93.8992 86.8252 94.7167 83.6695 96.6491 79.6574C97.7271 77.4198 99.8305 73.821 100.022 73.8863C100.086 73.908 100.634 74.7434 101.24 75.7431ZM66.0152 105.075C65.033 105.7 64.7313 106.789 65.2518 107.832C65.5802 108.489 66.2445 108.872 67.2653 108.99C68.5037 109.133 69.1497 109.749 71.1013 112.646C72.2966 114.421 73.7688 115.977 74.7716 116.527C76.1687 117.293 78.1363 117.531 79.678 117.121C81.689 116.585 83.0761 115.396 84.979 112.576C86.9421 109.667 87.7446 108.942 88.996 108.949C90.2601 108.957 91.1046 109.715 93.0707 112.61C95.6361 116.388 97.8893 117.701 101.016 117.241C103.248 116.912 104.858 115.652 106.921 112.618C108.892 109.718 109.74 108.957 111.005 108.949C112.256 108.942 113.059 109.667 115.022 112.576C116.925 115.396 118.312 116.585 120.323 117.121C121.864 117.531 123.832 117.293 125.229 116.527C126.232 115.977 127.704 114.421 128.899 112.646C130.851 109.749 131.497 109.133 132.735 108.99C133.756 108.872 134.421 108.489 134.749 107.832C135.281 106.766 134.948 105.633 133.93 105.049C133.419 104.755 133.251 104.729 132.406 104.815C129.769 105.08 128.279 106.209 125.834 109.793C123.987 112.501 123.251 113.144 122.006 113.137C120.682 113.131 119.987 112.517 117.962 109.566C115.807 106.424 114.248 105.206 111.961 104.875C109.734 104.553 107.672 105.285 106.026 106.981C105.534 107.488 104.643 108.626 104.048 109.509C102.042 112.48 101.306 113.14 100 113.14C98.691 113.14 97.9994 112.517 95.8926 109.436C95.2617 108.513 94.3658 107.373 93.9016 106.903C92.2984 105.278 90.2218 104.56 88.0395 104.875C85.7527 105.206 84.1937 106.424 82.0383 109.566C80.0135 112.517 79.3189 113.131 77.9943 113.137C76.7494 113.144 76.0133 112.501 74.1664 109.793C71.703 106.181 70.1876 105.044 67.5361 104.819C66.6495 104.744 66.4957 104.77 66.0152 105.075ZM87.2921 119.373C85.3333 119.911 83.9609 121.1 82.0467 123.919C80.0832 126.809 79.3085 127.529 78.1535 127.537C76.1925 127.551 75.2427 129.872 76.6728 131.155C77.2773 131.698 77.8924 131.812 79.116 131.608C81.3181 131.24 82.8849 129.99 84.9906 126.921C87.0154 123.97 87.7102 123.356 89.0348 123.349C90.2796 123.343 91.0156 123.986 92.8625 126.694C95.4987 130.559 97.062 131.643 100 131.643C102.939 131.643 104.502 130.559 107.138 126.694C109.077 123.851 109.793 123.26 111.161 123.376C112.431 123.484 113.194 124.221 115.434 127.507C117.168 130.052 118.761 131.257 120.864 131.616C122.066 131.821 122.724 131.698 123.328 131.155C124.758 129.872 123.808 127.551 121.847 127.537C120.692 127.529 119.918 126.809 117.954 123.919C116.016 121.065 114.659 119.901 112.65 119.366C111.108 118.956 109.141 119.194 107.743 119.96C106.741 120.509 105.268 122.066 104.073 123.841C101.974 126.957 101.401 127.468 100 127.468C98.6084 127.468 97.9804 126.913 95.9654 123.905C94.7401 122.076 93.2752 120.518 92.2573 119.96C90.8687 119.198 88.8118 118.955 87.2921 119.373Z" fill="#F5F5F5"/>
<defs>
<filter id="filter0_b_688_717" x="-20" y="-20" width="240" height="240" filterUnits="userSpaceOnUse" color-interpolation-filters="sRGB">
<feFlood flood-opacity="0" result="BackgroundImageFix"/>
<feGaussianBlur in="BackgroundImageFix" stdDeviation="10"/>
<feComposite in2="SourceAlpha" operator="in" result="effect1_backgroundBlur_688_717"/>
<feBlend mode="normal" in="SourceGraphic" in2="effect1_backgroundBlur_688_717" result="shape"/>
</filter>
</defs>
</svg>
