<?xml version="1.0" encoding="UTF-8" standalone="no"?>
<svg
   id="Calque_1"
   data-name="Calque 1"
   viewBox="0 0 284.69 108.06"
   version="1.1"
   sodipodi:docname="LogoBlanc2.svg"
   inkscape:version="1.1.1 (3bf5ae0d25, 2021-09-20)"
   xmlns:inkscape="http://www.inkscape.org/namespaces/inkscape"
   xmlns:sodipodi="http://sodipodi.sourceforge.net/DTD/sodipodi-0.dtd"
   xmlns="http://www.w3.org/2000/svg"
   xmlns:svg="http://www.w3.org/2000/svg">
  <sodipodi:namedview
     id="namedview1979"
     pagecolor="#ffffff"
     bordercolor="#666666"
     borderopacity="1.0"
     inkscape:pageshadow="2"
     inkscape:pageopacity="0.0"
     inkscape:pagecheckerboard="0"
     showgrid="false"
     inkscape:zoom="4.492606"
     inkscape:cx="164.82639"
     inkscape:cy="53.977581"
     inkscape:window-width="1920"
     inkscape:window-height="1001"
     inkscape:window-x="-9"
     inkscape:window-y="-9"
     inkscape:window-maximized="1"
     inkscape:current-layer="Calque_1" />
  <defs
     id="defs1946">
    <style
       id="style1944">.cls-1,.cls-3,.cls-4,.cls-5{fill:#fff;}.cls-2,.cls-3,.cls-4,.cls-5{isolation:isolate;}.cls-3,.cls-4,.cls-5{font-size:60px;font-family:RetroSignatureRegular, Retro Signature;}.cls-4{letter-spacing:0.01em;}.cls-5{letter-spacing:-0.02em;}</style>
  </defs>
  <path
     class="cls-1"
     d="M55.52,48.6c-11.1,14.5-27,25.7-41.3,29-3.6.8-5.6,1-7.9.7-5.6-.7-7.6-4.9-5.5-11.7a26.66,26.66,0,0,1,5.4-9.7c4.7-5.8,13.6-12.3,20.7-15.2,4.3-1.8,13.5-4.1,16.3-4.1,2.4,0,4.5,1.3,3.7,2.3-.3.4-1.6.3-1.8-.2-.6-1.3-10.8.9-17.5,3.8s-15,8.9-19.2,14.1c-5.9,7.3-7.8,15.2-4.3,17.9.8.6,1.2.7,4.4.7a16.37,16.37,0,0,0,6.1-.8C26,72,37,65.1,46.52,55.4A96.47,96.47,0,0,0,63.69,30.7c3.1-6.5,4-10.2,3.8-15.5-.1-3.1-.2-3.7-1.1-5.2-1-1.8-2-2.5-4.6-3.5-2.2-.8-7.8-.8-12.1,0-7.9,1.5-16.9,5.3-21.9,9.2-2.2,1.7-2.7,2-3.1,1.7-.9-.6-.7-1.1,1.1-2.7,3.4-3,11.9-7,18.8-8.9,13.7-3.8,23-1.5,25,6.2,2.2,8.6-2.9,22-13.9,36.3Z"
     id="path1948"
     style="fill:#ffffff" />
  <path
     class="cls-1"
     d="M91.92,43.2c.4.5-.4,1.5-3.2,3.1-5.2,3-9.2,4-13.3,4-1.7,0-2.1.1-2.3.5-.3.8-3,3-4.3,3.4a4.15,4.15,0,0,1-4.2-.4c-2.3-1.7-1.7-5.2,1.5-9.1a8.63,8.63,0,0,1,2-2,10.76,10.76,0,0,0,1.4-.7,4,4,0,0,1,2.2-.6,3.48,3.48,0,0,1,2.1.6c1.6,1.5,1.8,2.7.9,5l-.5,1.4h1.6c3.3,0,7.5-1.2,11.9-3.9,2.6-1.6,3.6-2.1,4.1-1.5Zm-20.8,6.9-.9-.5a9.06,9.06,0,0,1-2.1-1.7l-.8-1.1-.8,1.4c-1.1,1.9-1.4,3.2-.9,4.1s1.2.9,2.8.1a6.26,6.26,0,0,0,2-1.5Zm1.7-3.6q.6-2.85-.9-3h-.3a2.77,2.77,0,0,0-2.1,2.5c0,.7.3,1.1,1.1,1.7.6.4,1.2.6,1.4.5a4.1,4.1,0,0,0,.7-1.7Z"
     id="path1950"
     style="fill:#ffffff" />
  <path
     class="cls-1"
     d="M113.42,43.83c1.9-1.3,2.4-1.2,2.4-.1,0,.2-.4.7-1.1,1.4a50.06,50.06,0,0,1-8.2,6.3c-4.4,2.5-6.9,2.8-8.9,1.2-1.1-.9-1.2-1.2-1.2-2.7v-1.7L94,50c-4.6,3.5-7.9,4.7-9.71,3.6-2.5-1.5.9-7.6,5.81-10.4A7.88,7.88,0,0,1,93.9,42,3.24,3.24,0,0,1,97,43.8l.5,1,1-.8c1.1-.9,1.5-1,2.1-.4.4.4.3.8-.6,2.4-1.3,2.4-1.7,4.2-1.1,5.1.4.5.7.6,1.9.5,2.3-.2,5.1-1.7,9.7-5.4,1.3-1,2.3-1.8,3.1-2.3Zm-20.1,4.4c2.3-1.7,2.4-1.8,2.1-2.8a3.23,3.23,0,0,0-.7-1.3.72.72,0,0,0-.5-.2c-2.2-.1-7.7,4.6-8.41,7.5-.29,1.3.31,1.2,2.91-.3,1.1-.7,3.1-2,4.4-3Z"
     id="path1952"
     style="fill:#ffffff" />
  <path
     class="cls-1"
     d="M145.62,42.9c.1.3-.5,1-1.6,1.9a56.6,56.6,0,0,1-11.9,7.6c-3.61,1.6-6,1.4-7.21-.5-.7-1.1-.5-2.3.8-5.7a7.77,7.77,0,0,0,.7-2.5c-.5-.4-5.4,2.5-8.1,4.8s-6.4,4.8-7.1,4.8a2.12,2.12,0,0,1-1.3-.5,1.45,1.45,0,0,1-.4-1.5c.4-2.2,4.3-8.7,5.7-9.4a.81.81,0,0,1,1.1.2c.6.5.6.6-.3,1.8a48.19,48.19,0,0,0-4,6.7c-.2.5.9-.2,3.7-2.4,6.6-5.1,10.3-6.8,12-5.5,1,.7.9,2.1-.2,4.8-1,2.4-1.2,4.3-.5,4.5,1.8.5,7.21-2.3,14.21-7.3,2.8-2,3.7-2.3,4.1-1.4Z"
     id="path1954"
     style="fill:#ffffff" />
  <path
     class="cls-1"
     d="M220.58,9.1c1.5,1.4,2,2.8,1.8,5.2-.5,7.1-14.2,18.3-31,25.3a26.91,26.91,0,0,0-3.5,1.6,2.87,2.87,0,0,0,1.4.4c4,.5,7.9,2.6,9.31,4.9.9,1.5.9,4.6,0,6.8-3.81,9.1-15.41,16.8-30.61,20.3-3.7.9-6.5,1.1-8.6.7-3.9-.7-6-2.7-5.7-5.4.3-2.3,1.8-4.4,4.9-6.9a35.76,35.76,0,0,1,10.6-6,9.06,9.06,0,0,0,2.9-1.4,48.07,48.07,0,0,1,2.3-5c1.3-2.6,2.3-4.8,2.3-4.9s-.4-.2-.9-.2c-1,0-1.7-.7-1.4-1.4.1-.3.9-.7,1.7-.9s1.7-.4,2-.5,1.8-2.6,3.4-5.5a176,176,0,0,1,12-19c2-2.6,2.61-3.2,3.3-3.2,1.5,0,1.11,1-1.89,5.1-1.61,2.2-4.91,7.3-7.31,11.3-5.8,9.7-6.3,10.7-5.7,10.7a57.12,57.12,0,0,0,5.8-2.2c14.61-6,27.11-14.7,31.31-21.8,1.5-2.5,1.7-4.3.7-6-.9-1.5-2-2.2-4.9-3.1-2-.6-2.7-.7-8.1-.7a51.38,51.38,0,0,0-17.31,2.6c-9.6,2.9-20.8,9.2-25.7,14.5-3,3.2-3.6,4.4-3.1,6.5.2.9-1.2,1-1.9.2s-.7-1.8.3-3.7c3.5-7,18.1-16.1,31.9-19.8a66.78,66.78,0,0,1,15.71-2.3,32,32,0,0,1,7.5.7c3.1.8,4.8,1.6,6.3,3Zm-27.7,35a21.29,21.29,0,0,0-7.61-1.4,7.78,7.78,0,0,0-1.6.1c-3,.3-3.4.5-4.4,2.4a84.21,84.21,0,0,0-4.1,8.1c.1,0,2.1-.5,4.5-1.1,6.2-1.7,10.5-1.8,10.1-.3-.1.4-.6.5-2.3.5a45.15,45.15,0,0,0-10.8,2.6c-2.8,1-3.1,1.3-2.9,3.4.1.9,0,1.2-.5,1.3-.9.2-1.6-.4-1.9-1.5-.1-.5-.3-.9-.4-.9a34.49,34.49,0,0,0-6.5,3c-4.8,2.7-8.6,6.8-8.6,9.2,0,1.1,1.5,2.5,3.1,2.9a12.34,12.34,0,0,0,5.7-.1c13.4-2.5,25.8-9.7,30.4-17.5,3.2-5.4,2.51-8.5-2.3-10.4Z"
     id="path1956"
     style="fill:#ffffff" />
  <path
     class="cls-1"
     d="M226.37,43.5c2.2-.8,3.2-.8,3.2.1,0,.3-.5.7-1.3,1.1a16,16,0,0,1-5.2,1.2c-2.9.2-4.4-.6-5.6-1.8a3.3,3.3,0,0,0-1.2-.9c-.5,0-4.3,3.7-7.7,7.4-1.7,1.9-3.3,3.4-3.6,3.4a1.52,1.52,0,0,1-.9-.4c-.6-.6.5-3.3,3.1-7.5,2.2-3.6,2.9-4.2,3.8-3.4.5.4.5.5-.2,1.7s-.7,1.2,2.3-1.2c3.7-2.9,4.2-3,5.4-1,.8,1.2,1.3,1.8,3.7,1.8a12.44,12.44,0,0,0,4.1-.7Z"
     id="path1958"
     style="fill:#ffffff" />
  <path
     class="cls-1"
     d="M249.07,45c3.6-2.8,4-2,3.9-1.4,0,.3-1,1.5-3.3,3.3-7.4,5.8-12.5,8-16.9,7.3-3.4-.6-5.2-2.4-4.9-4.9.4-3.5,4.7-7.3,7.8-7.3a2.51,2.51,0,0,1,1.2.3c1.7.8,1.6,2.6-.4,4.3a5.49,5.49,0,0,1-3.5,1.3c-2,.1-2.2-.2-2.5.4a3.35,3.35,0,0,0-.2,1.8q.15,2.4,3.9,2.4c3.5,0,8-2.3,14.8-7.6Zm-16-.3c-.7.6-.8.9-.5,1.1.6.3.6.3,1.9-.3,1-.5,1.8-1.6,1.4-1.9h-.18A6.16,6.16,0,0,0,233,45Z"
     id="path1960"
     style="fill:#ffffff" />
  <path
     class="cls-1"
     d="M272.87,27.9c11.4.1,12,.2,11.8,1.5-.1.7-1.9,1-2.6.5-.4-.3-17.6-.4-20-.1-1.2.2-1.4.4-2.5,2.3-.7,1.1-2.2,3.6-3.3,5.5-15.5,26.6-18.1,32.1-18.1,34a3.55,3.55,0,0,1-.3,1.7,1.74,1.74,0,0,1-2.4-.2c-.7-1.1,3.2-9.4,9.2-19.9,2.2-3.9,5.2-9.1,6.6-11.6s3.5-6.1,4.6-8a17.31,17.31,0,0,0,1.8-3.6c-.2-.2-12.9.4-16.2.8-2.4.3-2.7.3-3.1-.2-.7-.8,0-1.2,3-1.6s12.6-1,15.8-1h2l2.2-3.4c1.6-2.4,2.4-3.4,2.9-3.5,1.4-.2,1.3.9-.4,3.7a26.35,26.35,0,0,0-1.6,2.9c0,.1,4.8.2,10.7.3Z"
     id="path1962"
     style="fill:#ffffff" />
  <path
     class="cls-1"
     d="M69.52,68Q81.69,67.13,94,66.31t24.46-1.38q12.23-.65,24.48-1c8.16-.25,16.33-.47,24.5-.56,16.35-.21,32.68.63,49,1.38,8.15.43,16.31.89,24.46,1.46,4.07.31,8.14.62,12.21,1,2,.21,4.06.41,6.08.71,1,.13,2,.34,3,.56A12,12,0,0,1,265,69.66a12.17,12.17,0,0,0-2.84-1.12c-1-.2-2-.39-3-.5-2-.25-4.06-.42-6.1-.58-4.06-.33-8.14-.56-12.22-.78Q228.57,66,216.35,65.5l-24.48-.91q-12.24-.42-24.47-.24c-16.32.11-32.64.68-49,1.33-8.16.32-16.31.71-24.47,1.11Z"
     id="path1964"
     style="fill:#ffffff" />
  <g
     class="cls-2"
     id="g1976"
     style="fill:#ffffff">
    <g
       aria-label="p"
       transform="translate(77.43 106.83)"
       id="text1966"
       style="font-size:60px;font-family:RetroSignatureRegular, 'Retro Signature';fill:#ffffff"
       class="cls-3">
      <path
         d="m 16.5,-19.26 c -0.3,-0.12 -0.66,0.06 -1.74,0.84 -3,2.16 -4.8,2.82 -7.5,3.42 l -1.5,0.36 0.84,-1.02 c 2.04,-2.4 2.04,-4.38 0,-4.38 -1.68,0 -4.44,2.22 -7.2,5.76 -0.66,0.9 -1.26,1.62 -1.32,1.62 -0.06,0 0.24,-0.54 0.66,-1.2 2.46,-4.02 3.6,-6.06 3.48,-6.3 -0.06,-0.12 -0.24,-0.18 -0.48,-0.18 -0.06,0 -0.12,0 -0.18,0 -0.42,0.06 -0.96,0.78 -3,4.08 -2.34,3.78 -6.84,11.64 -7.5,13.08 -0.18,0.36 -0.24,0.78 -0.18,0.96 0.18,0.36 0.66,0.36 1.08,0 0.18,-0.12 1.74,-2.22 3.48,-4.68 3.72,-5.22 3.84,-5.34 4.2,-5.04 0.54,0.48 2.04,0.12 3.66,-0.9 0.36,-0.24 1.08,-0.48 1.62,-0.54 1.5,-0.18 4.14,-0.84 5.64,-1.44 1.8,-0.72 3.9,-1.86 5.34,-3 0.54,-0.42 0.84,-0.72 0.84,-0.9 0,-0.12 -0.18,-0.3 -0.36,-0.42 z m -13.8,5.1 c -0.3,0 -0.9,0.12 -1.38,0.24 l -0.9,0.24 0.24,-0.36 c 0.96,-1.5 3.96,-4.14 5.16,-4.68 0.54,-0.24 0.72,-0.3 0.78,0.12 0.24,1.14 -2.88,4.5 -3.9,4.5 z"
         style="font-size:60px;font-family:RetroSignatureRegular, 'Retro Signature';fill:#ffffff"
         id="path5396" />
    </g>
    <g
       aria-label="lo"
       transform="translate(92.49 106.83)"
       id="text1968"
       style="font-size:60px;font-family:RetroSignatureRegular, 'Retro Signature';fill:#ffffff"
       class="cls-3">
      <path
         d="m 13.92,-19.26 c -0.18,0 -1.74,1.26 -2.64,1.92 -1.32,0.96 -3.42,2.52 -4.08,2.94 -2.7,1.68 -5.04,2.22 -5.94,1.38 -0.6,-0.54 -0.48,-2.4 0.3,-4.56 0.6,-1.62 0.66,-1.74 1.38,-1.98 0.42,-0.12 1.38,-0.6 2.16,-1.02 7.02,-4.02 11.76,-10.5 8.94,-12.24 -0.3,-0.18 -0.48,-0.24 -0.66,-0.24 -0.18,0 -0.42,0.06 -0.9,0.18 -2.7,0.84 -7.02,5.16 -9.84,9.84 -2.76,4.56 -3.84,7.98 -3.12,9.78 0.3,0.66 0.96,1.32 1.56,1.5 1.5,0.48 3.78,-0.06 6.54,-1.62 1.44,-0.84 4.26,-3 5.82,-4.44 0.54,-0.54 0.9,-0.9 0.9,-1.02 -0.06,-0.18 -0.24,-0.36 -0.42,-0.36 z M 4.5,-23.7 c 2.22,-3.36 6.18,-7.32 8.16,-8.16 0.3,-0.12 0.48,-0.18 0.6,-0.18 0.12,0 0.18,0.06 0.24,0.24 0.3,0.78 -0.9,3.12 -2.52,4.86 -1.38,1.5 -3.78,3.48 -5.82,4.8 -1.02,0.66 -1.98,1.2 -2.1,1.2 -0.24,0 0.42,-1.26 1.44,-2.82 z"
         style="font-size:60px;font-family:RetroSignatureRegular, 'Retro Signature';fill:#ffffff"
         id="path5402" />
      <path
         d="m 27.239976,-19.14 c -0.3,-0.36 -0.9,-0.06 -2.46,0.9 -2.64,1.62 -5.16,2.34 -7.14,2.34 h -0.96 l 0.3,-0.84 c 0.54,-1.38 0.42,-2.1 -0.54,-3 -0.3,-0.24 -0.78,-0.36 -1.26,-0.36 -0.48,0 -0.96,0.12 -1.32,0.36 -0.3,0.18 -0.66,0.36 -0.84,0.42 -0.18,0.06 -0.72,0.6 -1.2,1.2 -1.9199998,2.34 -2.2799998,4.44 -0.9,5.46 0.78,0.54 1.44,0.6 2.52,0.24 0.78,-0.24 2.4,-1.56 2.58,-2.04 0.12,-0.24 0.36,-0.3 1.38,-0.3 2.46,0 4.86,-0.6 7.98,-2.4 1.68,-0.96 2.16,-1.56 1.92,-1.86 z m -12.84,4.74 c -0.24,0.3 -0.78,0.72 -1.2,0.9 -0.96,0.48 -1.38,0.48 -1.68,-0.06 -0.3,-0.54 -0.12,-1.32 0.54,-2.46 l 0.48,-0.84 0.48,0.66 c 0.24,0.36 0.84,0.72 1.26,1.02 l 0.54,0.3 z m 1.38,-2.64 c -0.12,0.48 -0.3,0.96 -0.42,1.02 -0.12,0.06 -0.48,-0.06 -0.84,-0.3 -0.48,-0.36 -0.66,-0.6 -0.66,-1.02 0,-0.66 0.66,-1.44 1.26,-1.5 0.06,0 0.12,0 0.18,0 0.6,0.06 0.78,0.66 0.54,1.8 z"
         style="font-size:60px;font-family:RetroSignatureRegular, 'Retro Signature';fill:#ffffff"
         id="path5404" />
    </g>
    <g
       aria-label="m"
       transform="translate(118.17 106.83)"
       id="text1970"
       style="font-size:60px;font-family:RetroSignatureRegular, 'Retro Signature';letter-spacing:0.01em;fill:#ffffff"
       class="cls-4">
      <path
         d="m 25.26,-18.96 c -0.24,-0.54 -0.84,-0.24 -2.76,1.2 -3.42,2.58 -5.04,3.72 -6.72,4.2 -0.9,0.24 -1.02,0.24 -1.26,-0.06 -0.3,-0.36 -0.3,-0.24 0.48,-2.88 0.54,-1.92 0.54,-2.04 0.18,-2.46 -0.3,-0.42 -0.48,-0.48 -1.2,-0.42 -0.96,0.12 -1.92,0.6 -4.26,2.28 l -1.68,1.2 0.18,-1.02 c 0.36,-2.1 0,-2.82 -1.32,-2.82 -1.14,0 -2.46,0.84 -5.1,3.12 -0.72,0.6 -1.32,1.08 -1.38,1.08 -0.06,0 0.24,-0.72 0.66,-1.56 1.08,-2.34 1.26,-2.88 0.96,-3.12 -0.12,-0.12 -0.36,-0.18 -0.54,-0.12 -0.72,0.24 -2.94,5.16 -2.94,6.6 0,0.72 0.06,0.78 0.54,0.84 0.48,0.06 0.78,-0.12 1.8,-1.14 2.64,-2.64 5.1,-4.56 5.88,-4.56 0.24,0 0.24,0.18 0.12,1.26 -0.24,1.74 -0.18,2.28 0.24,2.52 0.6,0.36 1.32,0.06 3.18,-1.26 2.04,-1.44 3.54,-2.34 3.72,-2.16 0.06,0.06 0,0.42 -0.12,0.84 -0.12,0.42 -0.42,1.38 -0.6,2.1 -0.42,1.5 -0.24,2.22 0.6,2.58 1.8,0.72 4.26,-0.3 8.76,-3.66 2.76,-2.04 2.88,-2.16 2.7,-2.58 z"
         style="font-size:60px;font-family:RetroSignatureRegular, 'Retro Signature';letter-spacing:0.01em;fill:#ffffff"
         id="path5399" />
    </g>
    <g
       aria-label="b"
       transform="translate(142.83 106.83)"
       id="text1972"
       style="font-size:60px;font-family:RetroSignatureRegular, 'Retro Signature';letter-spacing:-0.02em;fill:#ffffff"
       class="cls-5">
      <path
         d="m 16.98,-18.84 c -0.12,-0.72 -0.78,-0.36 -2.28,0.78 -1.44,1.14 -2.82,1.5 -4.32,2.04 -0.78,0.3 -3.12,0.72 -3.3,0.6 -0.06,0 0.18,-0.48 0.54,-1.08 0.84,-1.38 0.9,-2.34 0.12,-3 -1.26,-1.02 -3.54,-0.12 -6.78,2.64 l -1.86,1.62 0.72,-1.38 c 2.52,-4.8 4.86,-8.58 7.74,-12.66 0.9,-1.26 1.62,-2.46 1.56,-2.64 -0.12,-0.42 -0.9,-0.48 -1.32,-0.12 -0.54,0.48 -4.32,5.94 -5.82,8.4 -1.86,3 -4.08,7.2 -4.98,9.42 -0.78,1.86 -0.9,2.4 -0.66,2.64 0.42,0.36 1.02,0 2.64,-1.68 2.88,-3.06 6.12,-5.52 7.32,-5.52 0.84,0 0.36,1.5 -0.96,2.82 -0.54,0.54 -0.78,0.66 -1.74,0.78 -1.32,0.12 -2.46,0.48 -3.12,0.96 -1.8,1.38 1.5,1.92 3.84,0.6 0.9,-0.54 1.38,-0.66 2.58,-0.78 3.66,-0.3 5.4,-0.72 8.58,-3.12 0.96,-0.72 1.32,-1.14 1.26,-1.38 z"
         style="font-size:60px;font-family:RetroSignatureRegular, 'Retro Signature';letter-spacing:-0.02em;fill:#ffffff"
         id="path5416" />
    </g>
    <g
       aria-label="erie"
       transform="translate(157.77 106.83)"
       id="text1974"
       style="font-size:60px;font-family:RetroSignatureRegular, 'Retro Signature';fill:#ffffff"
       class="cls-3">
      <path
         d="m 10.92,-18 c -4.08,3.18 -6.78,4.56 -8.88,4.56 -1.5,0 -2.28,-0.48 -2.34,-1.44 -0.06,-0.36 0,-0.84 0.12,-1.08 0.18,-0.36 0.3,-0.18 1.5,-0.24 0.72,-0.06 1.44,-0.18 2.1,-0.78 1.2,-1.02 1.26,-2.1 0.24,-2.58 -0.24,-0.12 -0.48,-0.18 -0.72,-0.18 -1.86,0 -4.44,2.28 -4.68,4.38 -0.18,1.5 0.9,2.58 2.94,2.94 2.64,0.42 5.7,-0.9 10.14,-4.38 1.38,-1.08 1.98,-1.8 1.98,-1.98 0.06,-0.36 -0.18,-0.84 -2.34,0.84 z m -9.6,0.06 c 0.6,-0.48 1.32,-0.84 1.62,-0.84 0.06,0 0.12,0 0.12,0 0.24,0.18 -0.24,0.84 -0.84,1.14 -0.78,0.36 -0.78,0.36 -1.14,0.18 -0.18,-0.12 -0.12,-0.3 0.3,-0.66 z"
         style="font-size:60px;font-family:RetroSignatureRegular, 'Retro Signature';fill:#ffffff"
         id="path5407" />
      <path
         d="m 22.379982,-18.96 c -0.9,0.3 -1.62,0.42 -2.46,0.42 -1.44,0 -1.74,-0.36 -2.22,-1.08 -0.72,-1.2 -1.02,-1.14 -3.24,0.6 -1.8,1.44 -1.86,1.44 -1.38,0.72 0.42,-0.72 0.42,-0.78 0.12,-1.02 -0.54,-0.48 -0.96,-0.12 -2.28,2.04 -1.5600003,2.52 -2.2200003,4.14 -1.8600003,4.5 0.12,0.12 0.36,0.24 0.54,0.24 0.18,0 1.1400003,-0.9 2.1600003,-2.04 2.04,-2.22 4.32,-4.44 4.62,-4.44 0.12,0 0.42,0.24 0.72,0.54 0.72,0.72 1.62,1.2 3.36,1.08 1.08,-0.06 2.34,-0.36 3.12,-0.72 0.48,-0.24 0.78,-0.48 0.78,-0.66 0,-0.54 -0.6,-0.54 -1.92,-0.06 z"
         style="font-size:60px;font-family:RetroSignatureRegular, 'Retro Signature';fill:#ffffff"
         id="path5409" />
      <path
         d="m 29.459956,-22.74 c 0.6,-0.72 0.54,-1.2 -0.18,-1.32 -0.42,-0.06 -1.56,1.44 -1.38,1.8 0.24,0.48 0.96,0.24 1.56,-0.48 z m 5.1,4.74 c -3.9,2.52 -7.32,4.02 -8.64,4.02 -1.44,0 -1.32,-1.02 0.36,-3.72 0.9,-1.44 1.02,-1.74 0.78,-1.98 -0.18,-0.18 -0.36,-0.3 -0.54,-0.3 -0.42,0 -0.9,0.54 -1.74,1.8 -0.78,1.14 -1.44,2.76 -1.44,3.54 0,0.48 0.18,0.78 0.66,1.14 0.54,0.42 0.84,0.54 1.68,0.54 1.26,0 2.22,-0.3 4.74,-1.56 1.8,-0.9 4.08,-2.22 5.7,-3.36 0.72,-0.54 1.2,-0.9 1.2,-1.02 -0.12,-0.6 -0.9,-0.36 -2.82,0.9 z"
         style="font-size:60px;font-family:RetroSignatureRegular, 'Retro Signature';fill:#ffffff"
         id="path5411" />
      <path
         d="m 46.919908,-18 c -4.08,3.18 -6.78,4.56 -8.88,4.56 -1.5,0 -2.28,-0.48 -2.34,-1.44 -0.06,-0.36 0,-0.84 0.12,-1.08 0.18,-0.36 0.3,-0.18 1.5,-0.24 0.72,-0.06 1.44,-0.18 2.1,-0.78 1.2,-1.02 1.26,-2.1 0.24,-2.58 -0.24,-0.12 -0.48,-0.18 -0.72,-0.18 -1.86,0 -4.44,2.28 -4.68,4.38 -0.18,1.5 0.9,2.58 2.94,2.94 2.64,0.42 5.7,-0.9 10.14,-4.38 1.38,-1.08 1.98,-1.8 1.98,-1.98 0.06,-0.36 -0.18,-0.84 -2.34,0.84 z m -9.6,0.06 c 0.6,-0.48 1.32,-0.84 1.62,-0.84 0.06,0 0.12,0 0.12,0 0.24,0.18 -0.24,0.84 -0.84,1.14 -0.78,0.36 -0.78,0.36 -1.14,0.18 -0.18,-0.12 -0.12,-0.3 0.3,-0.66 z"
         style="font-size:60px;font-family:RetroSignatureRegular, 'Retro Signature';fill:#ffffff"
         id="path5413" />
    </g>
  </g>
</svg>
