<svg id="Calque_1" data-name="Calque 1" xmlns="http://www.w3.org/2000/svg" viewBox="0 0 284.69 108.06"><defs><style>.cls-1{fill:#1f1f1f;}.cls-2{isolation:isolate;}</style></defs><path class="cls-1" d="M55.52,48.6c-11.1,14.5-27,25.7-41.3,29-3.6.8-5.6,1-7.9.7-5.6-.7-7.6-4.9-5.5-11.7a26.66,26.66,0,0,1,5.4-9.7c4.7-5.8,13.6-12.3,20.7-15.2,4.3-1.8,13.5-4.1,16.3-4.1,2.4,0,4.5,1.3,3.7,2.3-.3.4-1.6.3-1.8-.2-.6-1.3-10.8.9-17.5,3.8s-15,8.9-19.2,14.1c-5.9,7.3-7.8,15.2-4.3,17.9.8.6,1.2.7,4.4.7a16.37,16.37,0,0,0,6.1-.8C26,72,37,65.1,46.52,55.4A96.47,96.47,0,0,0,63.69,30.7c3.1-6.5,4-10.2,3.8-15.5-.1-3.1-.2-3.7-1.1-5.2-1-1.8-2-2.5-4.6-3.5-2.2-.8-7.8-.8-12.1,0-7.9,1.5-16.9,5.3-21.9,9.2-2.2,1.7-2.7,2-3.1,1.7-.9-.6-.7-1.1,1.1-2.7,3.4-3,11.9-7,18.8-8.9,13.7-3.8,23-1.5,25,6.2,2.2,8.6-2.9,22-13.9,36.3Z"/><path class="cls-1" d="M91.92,43.2c.4.5-.4,1.5-3.2,3.1-5.2,3-9.2,4-13.3,4-1.7,0-2.1.1-2.3.5-.3.8-3,3-4.3,3.4a4.15,4.15,0,0,1-4.2-.4c-2.3-1.7-1.7-5.2,1.5-9.1a8.63,8.63,0,0,1,2-2,10.76,10.76,0,0,0,1.4-.7,4,4,0,0,1,2.2-.6,3.48,3.48,0,0,1,2.1.6c1.6,1.5,1.8,2.7.9,5l-.5,1.4h1.6c3.3,0,7.5-1.2,11.9-3.9,2.6-1.6,3.6-2.1,4.1-1.5Zm-20.8,6.9-.9-.5a9.06,9.06,0,0,1-2.1-1.7l-.8-1.1-.8,1.4c-1.1,1.9-1.4,3.2-.9,4.1s1.2.9,2.8.1a6.26,6.26,0,0,0,2-1.5Zm1.7-3.6q.6-2.85-.9-3h-.3a2.77,2.77,0,0,0-2.1,2.5c0,.7.3,1.1,1.1,1.7.6.4,1.2.6,1.4.5a4.1,4.1,0,0,0,.7-1.7Z"/><path class="cls-1" d="M113.42,43.83c1.9-1.3,2.4-1.2,2.4-.1,0,.2-.4.7-1.1,1.4a50.06,50.06,0,0,1-8.2,6.3c-4.4,2.5-6.9,2.8-8.9,1.2-1.1-.9-1.2-1.2-1.2-2.7v-1.7L94,50c-4.6,3.5-7.9,4.7-9.71,3.6-2.5-1.5.9-7.6,5.81-10.4A7.88,7.88,0,0,1,93.9,42,3.24,3.24,0,0,1,97,43.8l.5,1,1-.8c1.1-.9,1.5-1,2.1-.4.4.4.3.8-.6,2.4-1.3,2.4-1.7,4.2-1.1,5.1.4.5.7.6,1.9.5,2.3-.2,5.1-1.7,9.7-5.4,1.3-1,2.3-1.8,3.1-2.3Zm-20.1,4.4c2.3-1.7,2.4-1.8,2.1-2.8a3.23,3.23,0,0,0-.7-1.3.7.7,0,0,0-.5-.2c-2.2-.1-7.7,4.6-8.41,7.5-.29,1.3.31,1.2,2.91-.3,1.1-.7,3.1-2,4.4-3Z"/><path class="cls-1" d="M145.62,42.9c.1.3-.5,1-1.6,1.9a56.6,56.6,0,0,1-11.9,7.6c-3.61,1.6-6,1.4-7.21-.5-.7-1.1-.5-2.3.8-5.7a7.77,7.77,0,0,0,.7-2.5c-.5-.4-5.4,2.5-8.1,4.8s-6.4,4.8-7.1,4.8a2.12,2.12,0,0,1-1.3-.5,1.45,1.45,0,0,1-.4-1.5c.4-2.2,4.3-8.7,5.7-9.4a.81.81,0,0,1,1.1.2c.6.5.6.6-.3,1.8a48.19,48.19,0,0,0-4,6.7c-.2.5.9-.2,3.7-2.4,6.6-5.1,10.3-6.8,12-5.5,1,.7.9,2.1-.2,4.8-1,2.4-1.2,4.3-.5,4.5,1.8.5,7.21-2.3,14.21-7.3,2.8-2,3.7-2.3,4.1-1.4Z"/><path class="cls-1" d="M220.58,9.1c1.5,1.4,2,2.8,1.8,5.2-.5,7.1-14.2,18.3-31,25.3a26.91,26.91,0,0,0-3.5,1.6,2.87,2.87,0,0,0,1.4.4c4,.5,7.9,2.6,9.31,4.9.9,1.5.9,4.6,0,6.8-3.81,9.1-15.41,16.8-30.61,20.3-3.7.9-6.5,1.1-8.6.7-3.9-.7-6-2.7-5.7-5.4.3-2.3,1.8-4.4,4.9-6.9a35.76,35.76,0,0,1,10.6-6,9.06,9.06,0,0,0,2.9-1.4,48.07,48.07,0,0,1,2.3-5c1.3-2.6,2.3-4.8,2.3-4.9s-.4-.2-.9-.2c-1,0-1.7-.7-1.4-1.4.1-.3.9-.7,1.7-.9s1.7-.4,2-.5,1.8-2.6,3.4-5.5a176,176,0,0,1,12-19c2-2.6,2.61-3.2,3.3-3.2,1.5,0,1.11,1-1.89,5.1-1.61,2.2-4.91,7.3-7.31,11.3-5.8,9.7-6.3,10.7-5.7,10.7a57.12,57.12,0,0,0,5.8-2.2c14.61-6,27.11-14.7,31.31-21.8,1.5-2.5,1.7-4.3.7-6-.9-1.5-2-2.2-4.9-3.1-2-.6-2.7-.7-8.1-.7a51.38,51.38,0,0,0-17.31,2.6c-9.6,2.9-20.8,9.2-25.7,14.5-3,3.2-3.6,4.4-3.1,6.5.2.9-1.2,1-1.9.2s-.7-1.8.3-3.7c3.5-7,18.1-16.1,31.9-19.8a66.78,66.78,0,0,1,15.71-2.3,32,32,0,0,1,7.5.7c3.1.8,4.8,1.6,6.3,3Zm-27.7,35a21.29,21.29,0,0,0-7.61-1.4,7.78,7.78,0,0,0-1.6.1c-3,.3-3.4.5-4.4,2.4a84.21,84.21,0,0,0-4.1,8.1c.1,0,2.1-.5,4.5-1.1,6.2-1.7,10.5-1.8,10.1-.3-.1.4-.6.5-2.3.5a45.15,45.15,0,0,0-10.8,2.6c-2.8,1-3.1,1.3-2.9,3.4.1.9,0,1.2-.5,1.3-.9.2-1.6-.4-1.9-1.5-.1-.5-.3-.9-.4-.9a34.79,34.79,0,0,0-6.5,3c-4.8,2.7-8.6,6.8-8.6,9.2,0,1.1,1.5,2.5,3.1,2.9a12.34,12.34,0,0,0,5.7-.1c13.4-2.5,25.8-9.7,30.4-17.5,3.2-5.4,2.51-8.5-2.3-10.4Z"/><path class="cls-1" d="M226.37,43.5c2.2-.8,3.2-.8,3.2.1,0,.3-.5.7-1.3,1.1a16,16,0,0,1-5.2,1.2c-2.9.2-4.4-.6-5.6-1.8a3.3,3.3,0,0,0-1.2-.9c-.5,0-4.3,3.7-7.7,7.4-1.7,1.9-3.3,3.4-3.6,3.4a1.52,1.52,0,0,1-.9-.4c-.6-.6.5-3.3,3.1-7.5,2.2-3.6,2.9-4.2,3.8-3.4.5.4.5.5-.2,1.7s-.7,1.2,2.3-1.2c3.7-2.9,4.2-3,5.4-1,.8,1.2,1.3,1.8,3.7,1.8a12.44,12.44,0,0,0,4.1-.7Z"/><path class="cls-1" d="M249.07,45c3.6-2.8,4-2,3.9-1.4,0,.3-1,1.5-3.3,3.3-7.4,5.8-12.5,8-16.9,7.3-3.4-.6-5.2-2.4-4.9-4.9.4-3.5,4.7-7.3,7.8-7.3a2.51,2.51,0,0,1,1.2.3c1.7.8,1.6,2.6-.4,4.3a5.49,5.49,0,0,1-3.5,1.3c-2,.1-2.2-.2-2.5.4a3.35,3.35,0,0,0-.2,1.8q.15,2.4,3.9,2.4c3.5,0,8-2.3,14.8-7.6Zm-16-.3c-.7.6-.8.9-.5,1.1.6.3.6.3,1.9-.3,1-.5,1.8-1.6,1.4-1.9h-.18A6.27,6.27,0,0,0,233,45Z"/><path class="cls-1" d="M272.87,27.9c11.4.1,12,.2,11.8,1.5-.1.7-1.9,1-2.6.5-.4-.3-17.6-.4-20-.1-1.2.2-1.4.4-2.5,2.3-.7,1.1-2.2,3.6-3.3,5.5-15.5,26.6-18.1,32.1-18.1,34a3.55,3.55,0,0,1-.3,1.7,1.74,1.74,0,0,1-2.4-.2c-.7-1.1,3.2-9.4,9.2-19.9,2.2-3.9,5.2-9.1,6.6-11.6s3.5-6.1,4.6-8a17.31,17.31,0,0,0,1.8-3.6c-.2-.2-12.9.4-16.2.8-2.4.3-2.7.3-3.1-.2-.7-.8,0-1.2,3-1.6s12.6-1,15.8-1h2l2.2-3.4c1.6-2.4,2.4-3.4,2.9-3.5,1.4-.2,1.3.9-.4,3.7a26.35,26.35,0,0,0-1.6,2.9c0,.1,4.8.2,10.7.3Z"/><path class="cls-1" d="M69.52,68Q81.69,67.13,94,66.31t24.46-1.38q12.23-.65,24.48-1c8.16-.25,16.33-.47,24.5-.56,16.35-.21,32.68.63,49,1.38,8.15.43,16.31.89,24.46,1.46,4.07.31,8.14.62,12.21,1,2,.21,4.06.41,6.08.71,1,.13,2,.34,3,.56A12,12,0,0,1,265,69.66a12.17,12.17,0,0,0-2.84-1.12c-1-.2-2-.39-3-.5-2-.25-4.06-.42-6.1-.58-4.06-.33-8.14-.56-12.22-.78Q228.57,66,216.35,65.5l-24.48-.91q-12.24-.42-24.47-.24c-16.32.11-32.64.68-49,1.33-8.16.32-16.31.71-24.47,1.11Z"/><g class="cls-2"><path class="cls-1" d="M93.81,87.69c.18.12.36.3.36.42s-.3.48-.84.9A23.15,23.15,0,0,1,88,92a27.83,27.83,0,0,1-5.64,1.44,4.3,4.3,0,0,0-1.62.54c-1.62,1-3.12,1.38-3.66.9-.36-.3-.48-.18-4.2,5-1.74,2.46-3.3,4.56-3.48,4.68-.42.36-.9.36-1.08,0a1.56,1.56,0,0,1,.18-1c.66-1.44,5.16-9.3,7.5-13.08,2-3.3,2.58-4,3-4.08h.18c.24,0,.42.06.48.18s-1,2.28-3.48,6.3a4.93,4.93,0,0,0-.66,1.2,12,12,0,0,0,1.32-1.62c2.76-3.54,5.52-5.76,7.2-5.76,2,0,2,2,0,4.38l-.84,1,1.5-.36a17.61,17.61,0,0,0,7.5-3.42c1.08-.78,1.44-1,1.74-.84Zm-13.68,5c1,0,4.14-3.36,3.9-4.5-.06-.42-.24-.36-.78-.12a18.66,18.66,0,0,0-5.16,4.68l-.24.36.9-.24a7.42,7.42,0,0,1,1.38-.24Z"/></g><g class="cls-2"><path class="cls-1" d="M106.41,87.63a.51.51,0,0,1,.42.36c0,.12-.36.48-.9,1a44.16,44.16,0,0,1-5.82,4.44c-2.76,1.56-5,2.1-6.54,1.62A2.92,2.92,0,0,1,92,93.57c-.72-1.8.36-5.22,3.12-9.78s7.14-9,9.84-9.84a4.46,4.46,0,0,1,.9-.18,1.26,1.26,0,0,1,.66.24c2.82,1.74-1.92,8.22-8.94,12.24a15.87,15.87,0,0,1-2.16,1c-.72.24-.78.36-1.38,2-.78,2.16-.9,4-.3,4.56.9.84,3.24.3,5.94-1.38.66-.42,2.76-2,4.08-2.94a30.63,30.63,0,0,1,2.64-1.92ZM97,83.07c-1,1.56-1.68,2.82-1.44,2.82a13.62,13.62,0,0,0,2.1-1.2,34,34,0,0,0,5.82-4.8c1.62-1.74,2.82-4.08,2.52-4.86-.06-.18-.12-.24-.24-.24a2,2,0,0,0-.6.18c-2,.84-5.94,4.8-8.16,8.16Z"/><path class="cls-1" d="M119.79,87.81c.24.3-.24.9-1.92,1.86a15.22,15.22,0,0,1-8,2.4c-1,0-1.26.06-1.38.3a6.51,6.51,0,0,1-2.58,2,2.48,2.48,0,0,1-2.52-.24c-1.38-1-1-3.12.9-5.46a5.3,5.3,0,0,1,1.2-1.2,5.4,5.4,0,0,0,.84-.42,2.42,2.42,0,0,1,1.32-.36,2.09,2.09,0,0,1,1.26.36c1,.9,1.08,1.62.54,3l-.3.84h1a14.18,14.18,0,0,0,7.14-2.34c1.56-1,2.16-1.26,2.46-.9ZM107.31,92l-.54-.3a5.5,5.5,0,0,1-1.26-1L105,90l-.48.84c-.66,1.14-.84,1.92-.54,2.46s.72.54,1.68.06a3.71,3.71,0,0,0,1.2-.9Zm1-2.16q.36-1.71-.54-1.8h-.18a1.67,1.67,0,0,0-1.26,1.5c0,.42.18.66.66,1s.72.36.84.3a2.39,2.39,0,0,0,.42-1Z"/></g><g class="cls-2"><path class="cls-1" d="M143.55,87.87c.18.42.06.54-2.7,2.58-4.5,3.36-7,4.38-8.76,3.66-.84-.36-1-1.08-.6-2.58.18-.72.48-1.68.6-2.1a1.7,1.7,0,0,0,.12-.84c-.18-.18-1.68.72-3.72,2.16-1.86,1.32-2.58,1.62-3.18,1.26-.42-.24-.48-.78-.24-2.52.12-1.08.12-1.26-.12-1.26-.78,0-3.24,1.92-5.88,4.56-1,1-1.32,1.2-1.8,1.14s-.54-.12-.54-.84c0-1.44,2.22-6.36,2.94-6.6a.58.58,0,0,1,.54.12c.3.24.12.78-1,3.12a6.86,6.86,0,0,0-.66,1.56A13.33,13.33,0,0,0,120,90.21c2.64-2.28,4-3.12,5.1-3.12,1.32,0,1.68.72,1.32,2.82l-.18,1,1.68-1.2c2.34-1.68,3.3-2.16,4.26-2.28.72-.06.9,0,1.2.42s.36.54-.18,2.46c-.78,2.64-.78,2.52-.48,2.88s.36.3,1.26.06c1.68-.48,3.3-1.62,6.72-4.2,1.92-1.44,2.52-1.74,2.76-1.2Z"/></g><g class="cls-2"><path class="cls-1" d="M159.57,87.93c.06.24-.3.66-1.26,1.38-3.18,2.4-4.92,2.82-8.58,3.12a5,5,0,0,0-2.58.78c-2.34,1.32-5.64.78-3.84-.6a6.61,6.61,0,0,1,3.12-1,2.27,2.27,0,0,0,1.74-.78c1.32-1.32,1.8-2.82,1-2.82-1.2,0-4.44,2.46-7.32,5.52-1.62,1.68-2.22,2-2.64,1.68-.24-.24-.12-.78.66-2.64a77.76,77.76,0,0,1,5-9.42,100.28,100.28,0,0,1,5.82-8.4c.42-.36,1.2-.3,1.32.12a10,10,0,0,1-1.56,2.64,107.58,107.58,0,0,0-7.74,12.66l-.72,1.38L143.79,90c3.24-2.76,5.52-3.66,6.78-2.64.78.66.72,1.62-.12,3a3.64,3.64,0,0,0-.54,1.08,12,12,0,0,0,3.3-.6,13.48,13.48,0,0,0,4.32-2c1.5-1.14,2.16-1.5,2.28-.78Z"/></g><g class="cls-2"><path class="cls-1" d="M168.75,88.89c2.16-1.68,2.4-1.2,2.34-.84,0,.18-.6.9-2,2-4.44,3.48-7.5,4.8-10.14,4.38-2-.36-3.12-1.44-2.94-2.94.24-2.1,2.82-4.38,4.68-4.38a1.6,1.6,0,0,1,.72.18c1,.48,1,1.56-.24,2.58a3.27,3.27,0,0,1-2.1.78c-1.2.06-1.32-.12-1.5.24a2.08,2.08,0,0,0-.12,1.08q.09,1.44,2.34,1.44c2.1,0,4.8-1.38,8.88-4.56Zm-9.6-.18c-.42.36-.48.54-.3.66.36.18.36.18,1.14-.18.6-.3,1.08-1,.84-1.14h-.12a3.76,3.76,0,0,0-1.62.84Z"/><path class="cls-1" d="M180.21,88c1.32-.48,1.92-.48,1.92.06,0,.18-.3.42-.78.66a9.54,9.54,0,0,1-3.12.72,3.87,3.87,0,0,1-3.36-1.08,1.92,1.92,0,0,0-.72-.54c-.3,0-2.58,2.22-4.62,4.44a10.29,10.29,0,0,1-2.16,2,.89.89,0,0,1-.54-.24c-.36-.36.3-2,1.86-4.5,1.32-2.16,1.74-2.52,2.28-2,.3.24.3.3-.12,1s-.42.72,1.38-.72c2.22-1.74,2.52-1.8,3.24-.6.48.72.78,1.08,2.22,1.08a7.31,7.31,0,0,0,2.46-.42Z"/><path class="cls-1" d="M192.27,88.83c1.92-1.26,2.7-1.5,2.82-.9,0,.12-.48.48-1.2,1a49,49,0,0,1-5.7,3.36c-2.52,1.26-3.48,1.56-4.74,1.56a2.19,2.19,0,0,1-1.68-.54,1.3,1.3,0,0,1-.66-1.14,8.28,8.28,0,0,1,1.44-3.54c.84-1.26,1.32-1.8,1.74-1.8a.83.83,0,0,1,.54.3c.24.24.12.54-.78,2-1.68,2.7-1.8,3.72-.36,3.72s4.74-1.5,8.64-4Zm-6.6-4.26c-.18-.36,1-1.86,1.38-1.8.72.12.78.6.18,1.32S185.91,85.05,185.67,84.57Z"/><path class="cls-1" d="M204.75,88.89c2.16-1.68,2.4-1.2,2.34-.84,0,.18-.6.9-2,2-4.44,3.48-7.5,4.8-10.14,4.38-2-.36-3.12-1.44-2.94-2.94.24-2.1,2.82-4.38,4.68-4.38a1.6,1.6,0,0,1,.72.18c1,.48,1,1.56-.24,2.58a3.27,3.27,0,0,1-2.1.78c-1.2.06-1.32-.12-1.5.24a2.08,2.08,0,0,0-.12,1.08q.09,1.44,2.34,1.44c2.1,0,4.8-1.38,8.88-4.56Zm-9.6-.18c-.42.36-.48.54-.3.66.36.18.36.18,1.14-.18.6-.3,1.08-1,.84-1.14h-.12a3.76,3.76,0,0,0-1.62.84Z"/></g></svg>