<svg width="37" height="33" viewBox="0 0 37 33" fill="none" xmlns="http://www.w3.org/2000/svg">
<path fill-rule="evenodd" clip-rule="evenodd" d="M17.9699 0.155719C17.4477 0.460314 15.6511 3.25402 14.6733 5.28161C14.1347 6.39844 13.5991 7.90313 13.3985 8.86248C13.2108 9.76055 13.223 11.0437 13.4262 11.7558C14.0929 14.0936 16.1078 15.6334 18.5002 15.6334C20.8926 15.6334 22.9075 14.0936 23.5742 11.7558C23.7774 11.0437 23.7896 9.76055 23.6019 8.86248C23.1542 6.72126 21.7852 3.88131 19.882 1.14598C19.4305 0.497015 19.2045 0.237604 18.999 0.132657C18.6387 -0.0514068 18.3124 -0.0441188 17.9699 0.155719ZM19.1555 4.01076C20.4923 6.17058 21.4058 8.41366 21.5739 9.94877C21.7806 11.8357 20.3583 13.4609 18.5002 13.4609C16.9782 13.4609 15.7043 12.3699 15.456 10.8537C15.2753 9.75106 15.7074 8.11648 16.7288 6.0383C17.2986 4.87924 18.4104 3.01516 18.5117 3.04896C18.5454 3.06021 18.8351 3.49294 19.1555 4.01076ZM0.536616 19.2041C0.017445 19.5276 -0.142014 20.0919 0.133104 20.6319C0.306684 20.9727 0.657797 21.1706 1.19736 21.2317C1.85196 21.3059 2.19341 21.6249 3.22497 23.1258C3.85679 24.0449 4.63495 24.8512 5.16498 25.136C5.90348 25.5327 6.94345 25.656 7.75838 25.4434C8.82133 25.1661 9.55449 24.5502 10.5603 23.0895C11.598 21.5825 12.0221 21.2073 12.6836 21.2109C13.3518 21.2147 13.7982 21.6077 14.8374 23.1073C16.1934 25.064 17.3844 25.7441 19.0371 25.5057C20.217 25.3354 21.0679 24.6826 22.1581 23.1112C23.2 21.6092 23.6482 21.2147 24.3168 21.2109C24.9783 21.2073 25.4024 21.5825 26.4401 23.0895C27.4459 24.5502 28.1791 25.1661 29.242 25.4434C30.0569 25.656 31.0969 25.5327 31.8354 25.136C32.3654 24.8512 33.1436 24.0449 33.7754 23.1258C34.807 21.6249 35.1484 21.3059 35.803 21.2317C36.3426 21.1706 36.6937 20.9727 36.8673 20.6319C37.1486 20.0798 36.9726 19.4933 36.4347 19.1906C36.1643 19.0384 36.0754 19.025 35.6288 19.0691C34.2349 19.2066 33.4475 19.7913 32.1553 21.6479C31.1791 23.0504 30.79 23.3836 30.132 23.3802C29.4318 23.3767 29.0647 23.0589 27.9944 21.5302C26.8551 19.9029 26.0311 19.2718 24.8224 19.1006C23.645 18.9339 22.5553 19.3128 21.6852 20.1915C21.4249 20.4542 20.9544 21.0433 20.6394 21.5006C19.5791 23.0399 19.1903 23.3818 18.5002 23.3818C17.8081 23.3818 17.4425 23.0588 16.3289 21.4628C15.9955 20.9849 15.5219 20.3945 15.2765 20.1509C14.4292 19.3093 13.3315 18.9372 12.178 19.1006C10.9693 19.2718 10.1453 19.9029 9.00595 21.5302C7.93573 23.0589 7.56855 23.3767 6.8684 23.3802C6.21041 23.3836 5.82133 23.0504 4.84511 21.6479C3.54301 19.777 2.74201 19.1881 1.34051 19.0714C0.871854 19.0324 0.790585 19.0459 0.536616 19.2041ZM11.783 26.6102C10.7476 26.889 10.0222 27.5049 9.01041 28.9647C7.97257 30.4619 7.56309 30.8349 6.95255 30.839C5.91603 30.8462 5.41399 32.0486 6.16993 32.7132C6.48942 32.9942 6.81455 33.0531 7.4613 32.9474C8.62528 32.757 9.45345 32.1095 10.5665 30.5198C11.6367 28.9911 12.0039 28.6733 12.7041 28.6698C13.3621 28.6664 13.7511 28.9996 14.7273 30.4021C16.1207 32.4042 16.9471 32.9657 18.5002 32.9657C20.0533 32.9657 20.8797 32.4042 22.2731 30.4021C23.2979 28.9297 23.6765 28.6237 24.3995 28.6837C25.0709 28.7395 25.4742 29.1215 26.6578 30.8234C27.5747 32.1417 28.4164 32.7658 29.5282 32.9516C30.1632 33.0577 30.5111 32.9941 30.8305 32.7132C31.5864 32.0486 31.0844 30.8462 30.0478 30.839C29.4373 30.8349 29.0278 30.4619 27.99 28.9647C26.9656 27.4867 26.2485 26.8836 25.1863 26.6065C24.3714 26.394 23.3314 26.5173 22.5929 26.914C22.0629 27.1988 21.2848 28.005 20.6529 28.9242C19.5435 30.5384 19.2403 30.8031 18.5002 30.8031C17.7645 30.8031 17.4325 30.5159 16.3674 28.9578C15.7198 28.0104 14.9454 27.203 14.4075 26.914C13.6735 26.5197 12.5862 26.3938 11.783 26.6102Z" fill="white"/>
</svg>
