<svg width="62" height="62" viewBox="0 0 62 62" fill="none" xmlns="http://www.w3.org/2000/svg">
<circle cx="31" cy="31" r="30" stroke="#FCEDE1" stroke-width="2"/>
<path fill-rule="evenodd" clip-rule="evenodd" d="M29.9699 15.1557C29.4477 15.4603 27.6511 18.254 26.6733 20.2816C26.1347 21.3984 25.5991 22.9031 25.3985 23.8625C25.2108 24.7606 25.223 26.0437 25.4262 26.7558C26.0929 29.0936 28.1078 30.6334 30.5002 30.6334C32.8926 30.6334 34.9075 29.0936 35.5742 26.7558C35.7774 26.0437 35.7896 24.7606 35.6019 23.8625C35.1542 21.7213 33.7852 18.8813 31.882 16.146C31.4305 15.497 31.2045 15.2376 30.999 15.1327C30.6387 14.9486 30.3124 14.9559 29.9699 15.1557ZM31.1555 19.0108C32.4923 21.1706 33.4058 23.4137 33.5739 24.9488C33.7806 26.8357 32.3583 28.4609 30.5002 28.4609C28.9782 28.4609 27.7043 27.3699 27.456 25.8537C27.2753 24.7511 27.7074 23.1165 28.7288 21.0383C29.2986 19.8792 30.4104 18.0152 30.5117 18.049C30.5454 18.0602 30.8351 18.4929 31.1555 19.0108ZM12.5366 34.2041C12.0174 34.5276 11.858 35.0919 12.1331 35.6319C12.3067 35.9727 12.6578 36.1706 13.1974 36.2317C13.852 36.3059 14.1934 36.6249 15.225 38.1258C15.8568 39.0449 16.6349 39.8512 17.165 40.136C17.9035 40.5327 18.9434 40.656 19.7584 40.4434C20.8213 40.1661 21.5545 39.5502 22.5603 38.0895C23.598 36.5825 24.0221 36.2073 24.6836 36.2109C25.3518 36.2147 25.7982 36.6077 26.8374 38.1073C28.1934 40.064 29.3844 40.7441 31.0371 40.5057C32.217 40.3354 33.0679 39.6826 34.1581 38.1112C35.2 36.6092 35.6482 36.2147 36.3168 36.2109C36.9783 36.2073 37.4024 36.5825 38.4401 38.0895C39.4459 39.5502 40.1791 40.1661 41.242 40.4434C42.0569 40.656 43.0969 40.5327 43.8354 40.136C44.3654 39.8512 45.1436 39.0449 45.7754 38.1258C46.807 36.6249 47.1484 36.3059 47.803 36.2317C48.3426 36.1706 48.6937 35.9727 48.8673 35.6319C49.1486 35.0798 48.9726 34.4933 48.4347 34.1906C48.1643 34.0384 48.0754 34.025 47.6288 34.0691C46.2349 34.2066 45.4475 34.7913 44.1553 36.6479C43.1791 38.0504 42.79 38.3836 42.132 38.3802C41.4318 38.3767 41.0647 38.0589 39.9944 36.5302C38.8551 34.9029 38.0311 34.2718 36.8224 34.1006C35.645 33.9339 34.5553 34.3128 33.6852 35.1915C33.4249 35.4542 32.9544 36.0433 32.6394 36.5006C31.5791 38.0399 31.1903 38.3818 30.5002 38.3818C29.8081 38.3818 29.4425 38.0588 28.3289 36.4628C27.9955 35.9849 27.5219 35.3945 27.2765 35.1509C26.4292 34.3093 25.3315 33.9372 24.178 34.1006C22.9693 34.2718 22.1453 34.9029 21.006 36.5302C19.9357 38.0589 19.5686 38.3767 18.8684 38.3802C18.2104 38.3836 17.8213 38.0504 16.8451 36.6479C15.543 34.777 14.742 34.1881 13.3405 34.0714C12.8719 34.0324 12.7906 34.0459 12.5366 34.2041ZM23.783 41.6102C22.7476 41.889 22.0222 42.5049 21.0104 43.9647C19.9726 45.4619 19.5631 45.8349 18.9525 45.839C17.916 45.8462 17.414 47.0486 18.1699 47.7132C18.4894 47.9942 18.8145 48.0531 19.4613 47.9474C20.6253 47.757 21.4535 47.1095 22.5665 45.5198C23.6367 43.9911 24.0039 43.6733 24.7041 43.6698C25.3621 43.6664 25.7511 43.9996 26.7273 45.4021C28.1207 47.4042 28.9471 47.9657 30.5002 47.9657C32.0533 47.9657 32.8797 47.4042 34.2731 45.4021C35.2979 43.9297 35.6765 43.6237 36.3995 43.6837C37.0709 43.7395 37.4742 44.1215 38.6578 45.8234C39.5747 47.1417 40.4164 47.7658 41.5282 47.9516C42.1633 48.0577 42.5111 47.9941 42.8305 47.7132C43.5864 47.0486 43.0844 45.8462 42.0478 45.839C41.4373 45.8349 41.0278 45.4619 39.99 43.9647C38.9656 42.4867 38.2485 41.8836 37.1863 41.6065C36.3714 41.394 35.3314 41.5173 34.5929 41.914C34.0629 42.1988 33.2848 43.005 32.6529 43.9242C31.5435 45.5384 31.2403 45.8031 30.5002 45.8031C29.7645 45.8031 29.4325 45.5159 28.3674 43.9578C27.7198 43.0104 26.9454 42.203 26.4075 41.914C25.6735 41.5197 24.5862 41.3938 23.783 41.6102Z" fill="#F6E9DE"/>
</svg>
