<svg width="787" height="272" viewBox="0 0 787 272" fill="none" xmlns="http://www.w3.org/2000/svg">
<path fill-rule="evenodd" clip-rule="evenodd" d="M171.643 1.33465C169.514 2.09365 166.139 4.09965 164.143 5.79065C162.148 7.48265 157.296 11.3496 153.36 14.3846C149.424 17.4196 141.305 24.5066 135.318 30.1346C129.332 35.7626 119.741 44.6416 114.007 49.8666C102.082 60.7316 94.4593 67.8156 77.9573 83.3666C71.5373 89.4166 59.8853 99.9916 52.0643 106.867C31.9403 124.556 17.0163 141.316 17.0163 146.226C17.0163 151.941 26.3553 151.734 27.6193 145.99C29.1543 139.01 30.8083 136.464 41.3483 124.851C55.3733 109.401 60.2773 104.43 66.3223 99.5337C68.9253 97.4257 78.5563 88.4257 87.7243 79.5337C111.285 56.6827 122.181 46.4266 132.516 37.3676C137.466 33.0296 144.666 26.4856 148.516 22.8276C158.398 13.4366 168.652 6.58864 173.016 6.46564C176.434 6.36864 176.523 6.46565 176.822 10.5966C177.179 15.5156 170.87 31.0766 164.129 41.9046C161.916 45.4586 158.728 50.6166 157.043 53.3666C155.359 56.1166 151.292 62.6416 148.006 67.8666C144.72 73.0916 140.841 79.3916 139.387 81.8666C136.807 86.2566 134.671 89.5436 125.739 102.867C123.342 106.442 119.405 112.517 116.99 116.367C114.575 120.217 111.542 124.717 110.25 126.367C106.426 131.252 94.6253 149.861 90.9453 156.809C87.7283 162.882 86.8173 163.725 75.0243 171.536C56.9893 183.482 48.7613 190 37.9633 200.897C18.6063 220.431 6.69832 239.469 1.65232 258.95C-1.10068 269.576 -0.590679 271.867 4.52732 271.867C7.54032 271.867 8.83232 271.075 12.7373 266.836C15.2863 264.069 18.0643 260.806 18.9103 259.586C19.7573 258.365 24.0643 253.061 28.4833 247.799C32.9013 242.537 38.3163 235.874 40.5163 232.992C42.7163 230.111 46.6303 225.127 49.2133 221.917C54.2333 215.68 68.4583 196.246 75.2343 186.367C79.5463 180.08 88.4513 169.234 91.0163 167.146C96.9803 162.29 126.311 153.707 134.057 154.551C138.161 154.998 138.983 154.672 144.386 150.452C149.243 146.659 150.985 145.867 154.473 145.867C157.771 145.867 160.194 144.892 165.602 141.388C169.405 138.925 172.847 136.9 173.253 136.888C173.658 136.877 174.616 138.366 175.381 140.199C177.056 144.208 181.435 147.867 184.558 147.867C185.807 147.867 189.838 146.517 193.516 144.867C201.024 141.498 202.676 141.295 205.457 143.399C207.998 145.321 213.34 145.268 217.18 143.282C224.741 139.372 233.016 128.702 233.016 122.862C233.016 120.462 234.754 119.213 242.096 116.336C252.965 112.076 254.251 113.311 248.9 122.867C244.939 129.941 243.767 139.829 246.528 142.88C248.995 145.606 254.512 147.006 257.851 145.753C261.894 144.236 269.99 135.903 272.096 131.091C275.746 122.752 274.507 113.336 269.118 108.46C267.962 107.413 267.016 105.868 267.016 105.026C267.016 104.184 273.991 96.4336 282.516 87.8036C296.792 73.3516 299.492 69.6766 297.385 67.5686C296.084 66.2686 292.303 69.5287 275.633 86.3287C261.095 100.979 257.534 104.035 251.999 106.611C244.282 110.203 239.546 111.662 231.779 112.841C225.421 113.806 222.231 115.976 208.993 128.34C201.604 135.241 190.426 141.867 186.173 141.867C183.958 141.867 181.014 139.398 181.02 137.546C181.032 133.769 194.348 118.867 197.71 118.867C198.714 118.867 200.097 119.767 200.784 120.867C202.481 123.584 204.468 123.379 206.943 120.232C209.723 116.699 209.631 113.104 206.726 111.781C203.518 110.319 194.487 113.831 188.869 118.726C184.217 122.779 175.46 128.796 167.838 133.178C159.924 137.727 157.408 136.153 163.141 130.238C167.816 125.415 166.935 118.867 161.612 118.867C158.784 118.867 148.665 125.227 146.685 128.25C145.832 129.551 142.476 133.71 139.226 137.491C135.977 141.273 132.808 145.335 132.185 146.518C131.024 148.721 128.082 149.822 112.516 153.878C100.635 156.973 99.3203 157.167 98.5573 155.933C97.7063 154.557 100.722 149.26 111.917 132.467C116.646 125.371 123.216 115.343 126.516 110.182C129.816 105.02 136.341 94.9086 141.016 87.7126C145.691 80.5156 150.191 73.3476 151.016 71.7826C151.841 70.2186 155.033 65.2096 158.11 60.6526C171.579 40.7006 179.496 25.1836 181.882 14.0556C183.587 6.10365 183.338 3.20564 180.793 1.42364C178.115 -0.452356 176.697 -0.466353 171.643 1.33465ZM367.016 2.83565C363.991 3.28365 357.916 4.14964 353.516 4.75964C331.705 7.78464 326.962 8.98564 318.516 13.6216C312.301 17.0336 311.763 19.3696 316.063 24.2676C319.416 28.0866 322.833 29.2546 321.47 26.1166C318.859 20.1016 321.453 17.2116 332.954 13.3206C341.966 10.2716 353.981 8.32865 372.444 6.93465C387.447 5.80165 393.117 6.30864 407.516 10.0676C424.178 14.4186 440.064 28.6676 448.16 46.5246C450.816 52.3806 451.153 54.2226 451.222 63.2386C451.293 72.4056 451.037 73.8916 448.539 78.8216C445.121 85.5676 439.699 92.1496 434.997 95.2606C430.289 98.3756 425.67 98.9107 399.516 99.3677C379.228 99.7227 370.56 100.589 356.084 103.71C353.647 104.235 351.011 104.419 350.228 104.118C347.659 103.132 349.654 96.9626 358.088 79.8096C365.229 65.2856 368.884 59.2556 380.629 42.6236C382.803 39.5456 383.05 38.6126 382.022 37.3736C380.185 35.1606 378.438 35.5216 376.013 38.6166C371.84 43.9426 360.015 62.8907 355.443 71.5787C352.899 76.4117 350.417 80.8576 349.926 81.4586C348.754 82.8916 345.29 93.7886 344.479 98.5886C343.132 106.571 342.412 107.218 330.615 111.062C321.63 113.99 308.491 120.634 302.816 125.119C296.564 130.061 294.603 134.168 296.626 138.08C299.176 143.01 303.198 144.29 315.516 144.094C321.566 143.997 328.316 143.652 330.516 143.327C339.246 142.037 353.157 138.782 357.86 136.928C360.592 135.852 365.682 134.235 369.171 133.336C372.661 132.437 376.866 131.117 378.516 130.402C387.243 126.62 398.946 121.867 399.533 121.867C400.561 121.867 415.813 114.059 418.837 111.984C429.972 104.346 440.016 99.9777 440.016 102.775C440.016 103.531 437.658 108.716 434.073 115.84C433.095 117.784 422.012 124.707 419.735 124.797C418.755 124.835 417.694 124.192 417.378 123.367C416.195 120.285 411.846 122.4 406.621 128.598C405.08 130.426 404.968 131.104 406 132.348C408.409 135.25 414.652 134.182 424.53 129.178L433.786 124.489L439.016 126.178C441.892 127.107 445.329 127.867 446.653 127.867C449.949 127.867 464.162 120.589 470.225 115.796C472.959 113.635 475.682 111.867 476.276 111.867C476.869 111.867 479.642 114.308 482.436 117.291C488.63 123.905 492.535 125.014 500.639 122.46C504.575 121.219 506.492 121.051 507.932 121.822C511.296 123.622 513.88 122.985 517.884 119.367C522.424 115.265 522.993 115.193 528.769 117.989C534.181 120.609 538.845 120.163 546.828 116.26C553.506 112.996 570.002 101.998 575.016 97.4667C580.587 92.4327 586.797 87.8666 588.074 87.8666C589.985 87.8666 588.657 90.8476 582.643 100.057C577.579 107.811 573.945 111.13 572.309 109.493C572.003 109.188 570.912 109.387 569.885 109.937C567.891 111.004 567.357 114.342 569.016 115.367C570.968 116.573 569.971 120.773 566.72 125.04C562.652 130.381 554.694 142.646 552.423 147.075C551.495 148.885 549.634 151.717 548.288 153.367C544.202 158.376 534.458 174.488 526.517 189.367C519.718 202.106 519.234 203.291 516.637 213.571C514.597 221.649 514.235 224.717 514.903 228.291C517.531 242.356 525.412 241.798 539.663 226.538C546.205 219.533 558.316 200.723 564.24 188.367C565.559 185.617 567.12 182.467 567.709 181.367C573.529 170.506 579.253 144.874 579.432 128.867L579.516 121.367L584.016 121.109C589.157 120.815 600.455 118.494 610.124 115.745C618.636 113.326 618.688 113.331 620.507 116.85C623.816 123.249 633.114 125.187 644.411 121.833C653.632 119.096 655.512 117.269 655.252 111.301C655.023 106.026 656.316 105.648 662.516 109.176C666.235 111.293 666.518 111.766 666.541 115.91C666.591 124.721 669.706 125.099 678.356 117.344C685.326 111.095 688.042 110.027 692.442 111.801C703.456 116.241 704.971 116.372 743.516 116.24C781.293 116.11 786.016 115.668 786.016 112.264C786.016 110.849 785.406 110.737 781.766 111.489C776.914 112.491 767.996 112.393 735.516 110.977C710.4 109.883 701.987 108.472 696.749 104.477C692.216 101.02 689.503 101.184 683.411 105.287C676.115 110.2 674.661 110.251 669.557 105.769C667.617 104.065 662.874 101.574 659.019 100.233C655.163 98.8916 650.412 96.8527 648.46 95.7017C640.946 91.2677 630.937 93.5606 623.22 101.483C617.862 106.983 614.58 108.718 605.516 110.837C590.857 114.266 586.465 114.977 584.527 114.233C582.023 113.272 582.817 108.531 586.266 103.846C588.054 101.418 590.866 97.2736 592.516 94.6376C599.684 83.1876 613.955 62.8486 619.017 56.8666C622.043 53.2916 626.305 48.1166 628.488 45.3666C630.671 42.6166 637.626 34.8566 643.944 28.1216C657.311 13.8716 657.778 13.1996 655.736 11.1586C653.561 8.98264 650.61 10.3146 646.846 15.1706C645.057 17.4786 639.751 23.6676 635.055 28.9236C630.358 34.1796 623.141 42.6866 619.016 47.8276C609.242 60.0096 597.085 73.3836 592.311 77.2086C590.224 78.8806 586.254 82.2996 583.49 84.8076C578.632 89.2136 576.367 90.9156 561.8 101.101C552.426 107.656 541.735 112.867 537.663 112.867C532.735 112.867 531.454 110.851 532.759 105.148C534.002 99.7147 533.606 98.2066 530.674 97.2086C527.186 96.0216 525.937 96.6946 517.52 104.293C506.376 114.353 497.39 118.767 490.94 117.35C485.136 116.076 481.886 106.549 485.807 102.306C488.365 99.5366 499.783 86.2006 504.613 80.3386C506.866 77.6036 509.52 73.7916 510.51 71.8666C511.501 69.9416 513.736 66.5666 515.478 64.3666C519.232 59.6246 533.016 38.3816 533.016 37.3366C533.016 36.9376 535.266 33.5766 538.015 29.8676C543.646 22.2716 545.058 17.9766 542.595 15.9326C541.245 14.8116 540.43 14.9936 537.259 17.1216C525.997 24.6776 504.904 49.7076 496.388 65.6206C494.259 69.5996 490.837 75.8966 488.784 79.6116C484.582 87.2186 484.803 86.7486 480.773 96.6396C478.116 103.163 477.176 104.365 471.655 108.305C458.951 117.371 451.97 121.06 447.224 121.218C444.711 121.301 442.555 120.879 442.336 120.261C442.121 119.653 444.122 116.953 446.783 114.261C456.14 104.796 461.543 94.3787 458.434 91.7987C456.376 90.0907 450.717 91.4916 448.002 94.3816C445.994 96.5186 443.016 97.7516 443.016 96.4466C443.016 96.2156 445.501 92.4187 448.538 88.0097C451.575 83.6007 454.725 78.1086 455.538 75.8046C457.431 70.4396 457.425 61.2356 455.525 53.9016C449.444 30.4347 431.747 12.7336 407.516 5.88064C398.698 3.38764 394.135 2.69564 384.516 2.39564C377.916 2.18964 370.041 2.38765 367.016 2.83565ZM530.016 33.2186C530.016 35.8446 508.089 69.4856 499.289 80.3606C494.33 86.4886 491.016 88.4626 491.016 85.2886C491.016 81.8556 502.828 62.7546 515.189 46.1976C523.899 34.5316 530.016 29.1766 530.016 33.2186ZM453.016 98.7436C453.016 99.8866 446.706 107.867 445.802 107.867C444.151 107.867 445.137 105.073 448.192 101.098C450.994 97.4516 453.016 96.4656 453.016 98.7436ZM647.093 101.79C649.33 104.027 650.016 105.634 650.016 108.635C650.016 113.7 648.072 115.411 640.239 117.238C633.031 118.919 627.72 117.871 625.385 114.307C623.346 111.195 624.296 109.83 631.481 105.546C635.006 103.444 638.423 101.081 639.075 100.296C640.936 98.0536 643.912 98.6086 647.093 101.79ZM421.016 103.559C421.016 104.774 409.718 112.056 403.016 115.161C383.282 124.304 359.432 133.039 349.268 134.844C345.832 135.455 341.107 136.646 338.768 137.491C332.935 139.6 306.692 140.673 304.544 138.89C302.117 136.876 302.69 132.547 305.766 129.661C309.302 126.344 318.5 120.528 323.567 118.406C340.764 111.204 363.258 105.296 378.516 103.974C390.593 102.927 421.016 102.63 421.016 103.559ZM525.016 105.91C525.016 107.504 515.927 116.867 514.379 116.867C511.721 116.867 513.081 114.08 517.973 109.504C522.84 104.951 525.016 103.841 525.016 105.91ZM266.793 114.424C268.584 115.678 269.016 116.948 269.016 120.956C269.016 123.692 268.397 127.413 267.64 129.224C266.101 132.907 259.75 138.62 256.181 139.53C253.012 140.339 250.591 137.721 250.728 133.633C250.845 130.094 256.17 117.459 258.74 114.619C260.703 112.451 263.867 112.374 266.793 114.424ZM225.956 124.295C226.88 125.408 226.803 126.378 225.61 128.686C222.583 134.539 211.016 140.712 211.016 136.475C211.016 133.735 221.489 122.867 224.129 122.867C224.482 122.867 225.304 123.51 225.956 124.295ZM573.238 134.531C573.498 137.666 573.364 141.837 572.94 143.799C572.516 145.762 571.626 150.742 570.963 154.867C569.723 162.575 562.697 182.073 558.555 189.3C557.273 191.537 555.891 194.492 555.485 195.867C553.805 201.547 544.281 215.701 538.07 221.748C523.442 235.989 518.711 235.367 520.987 219.5C523.023 205.301 527.691 194.735 542.989 169.69C548.569 160.557 567.666 131.968 569.743 129.641C571.986 127.127 572.708 128.138 573.238 134.531ZM151.552 134.752C150.68 137.501 145.101 143.038 143.932 142.315C142.244 141.272 142.99 139.257 146.65 134.981C150.349 130.66 152.889 130.542 151.552 134.752ZM313.155 176.301C309.779 183.712 307.016 190.021 307.016 190.321C307.016 190.621 307.685 190.867 308.503 190.867C309.32 190.867 310.647 189.292 311.452 187.367C312.906 183.887 312.95 183.867 319.28 183.867C325.57 183.867 325.665 183.908 327.315 187.367C328.233 189.292 329.643 190.867 330.449 190.867C332.145 190.867 332.15 190.882 324.229 173.598L319.294 162.828L313.155 176.301ZM448.258 163.901C447.016 164.4 445.481 165.947 444.847 167.338C443.113 171.145 445.105 174.454 450.744 177.131C455.05 179.176 455.516 179.726 455.516 182.773C455.516 184.776 454.867 186.558 453.921 187.155C451.632 188.599 447.262 187.218 446.498 184.81C446.139 183.681 445.35 182.922 444.744 183.124C442.634 183.828 442.884 185.826 445.397 188.339C450.531 193.473 459.016 190.116 459.016 182.949C459.016 178.717 457.711 177.204 451.266 173.963C448.929 172.788 447.016 171.193 447.016 170.418C447.016 167.998 450.129 165.655 452.415 166.355C453.571 166.708 455.304 167.246 456.266 167.549C458.748 168.331 458.437 166.275 455.793 164.424C453.312 162.685 451.582 162.565 448.258 163.901ZM267.016 177.316C267.016 189.527 267.196 190.979 268.671 190.69C269.957 190.439 270.348 189.142 270.421 184.888L270.516 179.408L274.334 178.784C279.285 177.974 281.416 175.743 281.416 171.367C281.416 166.481 279.165 164.627 272.567 164.08L267.016 163.619V177.316ZM362.016 177.367C362.016 188.7 362.257 190.867 363.516 190.867C364.683 190.867 365.016 189.534 365.016 184.867C365.016 181.567 365.353 178.879 365.766 178.894C366.179 178.908 368.427 181.608 370.764 184.894C373.1 188.179 375.687 190.867 376.514 190.867C378.669 190.867 378.462 190.333 374.09 184.599L370.165 179.451L372.34 177.967C375.405 175.876 375.983 174.806 376.001 171.19C376.022 166.802 372.167 163.867 366.381 163.867H362.016V177.367ZM408.451 177.117C408.505 188.199 408.761 190.367 410.016 190.367C411.26 190.367 411.564 188.104 411.795 177.117C412.054 164.807 411.943 163.867 410.23 163.867C408.528 163.867 408.391 164.884 408.451 177.117ZM277.445 168.438C280.508 171.502 278.319 175.79 273.509 176.146C270.612 176.36 270.506 176.215 270.211 171.617C269.911 166.944 269.955 166.867 272.89 166.867C274.531 166.867 276.58 167.574 277.445 168.438ZM371.816 168.067C372.476 168.727 373.016 170.538 373.016 172.092C373.016 174.204 372.369 175.163 370.451 175.892C365.645 177.719 365.016 177.253 365.016 171.867C365.016 167.057 365.123 166.867 367.816 166.867C369.356 166.867 371.156 167.407 371.816 168.067ZM323.971 180.117C323.996 180.529 321.991 180.867 319.516 180.867C317.041 180.867 315.016 180.399 315.016 179.827C315.016 179.255 315.972 176.913 317.141 174.622L319.266 170.457L321.596 174.912C322.877 177.362 323.946 179.705 323.971 180.117ZM66.8853 188.709C63.2393 194.871 54.1033 207.953 50.6313 211.984C47.2923 215.861 42.7083 221.634 32.8563 234.367C21.0793 249.588 10.8963 260.867 8.93032 260.867C6.60432 260.867 6.40832 257.554 8.51632 253.867C9.30232 252.492 9.96132 250.584 9.98132 249.628C10.0003 248.671 12.5573 243.271 15.6643 237.628C23.5373 223.324 40.8463 202.948 54.4523 191.965C66.6653 182.107 71.5493 180.828 66.8853 188.709Z" fill="black"/>
</svg>
