<svg width="514" height="622" viewBox="0 0 514 622" fill="none" xmlns="http://www.w3.org/2000/svg">
<path fill-rule="evenodd" clip-rule="evenodd" d="M345.798 2.93506C335.75 8.67622 301.177 61.3333 282.362 99.5504C271.998 120.601 261.691 148.962 257.83 167.044C254.218 183.972 254.454 208.156 258.363 221.58C271.194 265.644 309.966 294.666 356.004 294.666C402.041 294.666 440.814 265.644 453.645 221.58C457.554 208.156 457.789 183.972 454.177 167.044C445.561 126.686 419.217 73.1568 382.594 21.6001C373.905 9.36798 369.557 4.47847 365.603 2.50039C358.669 -0.96894 352.389 -0.831572 345.798 2.93506ZM368.615 75.5968C394.338 116.306 411.917 158.585 415.152 187.519C419.13 223.085 391.76 253.717 356.004 253.717C326.716 253.717 302.201 233.153 297.423 204.576C293.946 183.793 302.262 152.983 321.917 113.813C332.882 91.9662 354.276 56.8311 356.226 57.4684C356.873 57.6804 362.449 65.8367 368.615 75.5968ZM10.3262 361.968C0.335698 368.065 -2.7328 378.702 2.56135 388.88C5.90159 395.304 12.6581 399.035 23.0412 400.186C35.6377 401.585 42.2083 407.596 62.0589 435.886C74.2171 453.21 89.1915 468.408 99.3909 473.775C113.602 481.253 133.614 483.577 149.296 479.57C169.751 474.344 183.859 462.733 203.215 435.202C223.183 406.797 231.345 399.725 244.073 399.794C256.932 399.865 265.521 407.273 285.519 435.537C311.613 472.418 334.531 485.237 366.336 480.743C389.04 477.535 405.415 465.229 426.393 435.611C446.443 407.301 455.069 399.865 467.935 399.794C480.663 399.725 488.825 406.797 508.793 435.202C528.148 462.733 542.257 474.344 562.711 479.57C578.393 483.577 598.406 481.253 612.617 473.775C622.816 468.408 637.79 453.21 649.949 435.886C669.799 407.596 676.37 401.585 688.966 400.186C699.349 399.035 706.106 395.304 709.446 388.88C714.86 378.473 711.473 367.42 701.121 361.714C695.919 358.845 694.209 358.593 685.614 359.425C658.791 362.016 643.638 373.035 618.772 408.031C599.986 434.466 592.5 440.745 579.837 440.682C566.364 440.616 559.298 434.625 538.704 405.812C516.78 375.14 500.923 363.245 477.663 360.018C455.006 356.874 434.037 364.017 417.293 380.579C412.284 385.53 403.23 396.635 397.17 405.253C376.765 434.267 369.284 440.712 356.004 440.712C342.685 440.712 335.651 434.623 314.222 404.541C307.805 395.533 298.692 384.405 293.97 379.813C277.664 363.952 256.542 356.938 234.345 360.018C211.085 363.245 195.228 375.14 173.304 405.812C152.709 434.625 145.643 440.616 132.17 440.682C119.508 440.745 112.021 434.466 93.2357 408.031C68.1791 372.767 52.7652 361.667 25.7957 359.467C16.7773 358.732 15.2134 358.986 10.3262 361.968ZM226.743 501.562C206.818 506.817 192.86 518.426 173.389 545.941C153.418 574.161 145.538 581.191 133.79 581.269C113.844 581.404 104.183 604.068 118.73 616.595C124.877 621.89 131.134 623.001 143.58 621.008C165.978 617.419 181.915 605.215 203.333 575.252C223.928 546.439 230.995 540.448 244.468 540.382C257.13 540.319 264.616 546.598 283.401 573.033C310.215 610.771 326.117 621.353 356.004 621.353C385.891 621.353 401.793 610.771 428.606 573.033C448.328 545.281 455.613 539.514 469.526 540.645C482.445 541.697 490.206 548.897 512.982 580.974C530.627 605.823 546.824 617.586 568.219 621.088C580.439 623.088 587.133 621.888 593.278 616.595C607.825 604.068 598.164 581.404 578.218 581.269C566.469 581.191 558.59 574.161 538.618 545.941C518.905 518.083 505.106 506.715 484.666 501.493C468.985 497.487 448.973 499.811 434.762 507.289C424.561 512.656 409.588 527.852 397.43 545.178C376.08 575.603 370.245 580.592 356.004 580.592C341.846 580.592 335.458 575.178 314.962 545.811C302.5 527.954 287.599 512.736 277.246 507.289C263.122 499.856 242.2 497.484 226.743 501.562Z" fill="#796254"/>
</svg>
