<svg width="56" height="64" viewBox="0 0 56 64" fill="none" xmlns="http://www.w3.org/2000/svg">
<g clip-path="url(#clip0_306_85)">
<path d="M32.4764 53.4225C29.484 56.3364 25.4645 57.9547 21.2878 57.9268C17.1112 57.899 13.1136 56.2273 10.1604 53.2737C7.20715 50.3202 5.536 46.3223 5.50869 42.1457C5.48138 37.969 7.1001 33.9497 10.0144 30.9577C10.2165 30.7624 10.3777 30.5287 10.4885 30.2704C10.5993 30.012 10.6576 29.7342 10.6599 29.4532C10.6622 29.1721 10.6085 28.8933 10.5019 28.6332C10.3954 28.3731 10.2381 28.1368 10.0392 27.9382C9.84037 27.7395 9.60394 27.5824 9.34373 27.4761C9.08352 27.3698 8.80474 27.3164 8.52366 27.3189C8.24258 27.3215 7.96482 27.38 7.7066 27.4911C7.44838 27.6022 7.21487 27.7635 7.01969 27.9658C5.13804 29.8308 3.64331 32.049 2.62131 34.4932C1.5993 36.9374 1.07016 39.5594 1.06426 42.2087C1.05836 44.8579 1.57581 47.4823 2.58691 49.931C3.59802 52.3797 5.08285 54.6046 6.95616 56.4779C8.82947 58.3512 11.0544 59.8361 13.5031 60.8472C15.9518 61.8583 18.5762 62.3757 21.2254 62.3698C23.8747 62.3639 26.4967 61.8348 28.9409 60.8128C31.3851 59.7908 33.6033 58.296 35.4683 56.4144C35.6763 56.2206 35.8431 55.9869 35.9588 55.7272C36.0745 55.4675 36.1367 55.1872 36.1417 54.903C36.1467 54.6188 36.0944 54.3364 35.988 54.0728C35.8815 53.8092 35.723 53.5698 35.522 53.3688C35.321 53.1677 35.0815 53.0093 34.8179 52.9028C34.5544 52.7963 34.272 52.744 33.9878 52.7491C33.7035 52.7541 33.4232 52.8163 33.1635 52.932C32.9039 53.0477 32.6702 53.2145 32.4764 53.4225Z" stroke="#1F1F1F" stroke-width="2" stroke-miterlimit="10"/>
<path d="M52.2541 49.3272H46.2308L42.5022 38.9825C42.3569 38.5705 42.0876 38.2136 41.7313 37.9609C41.375 37.7082 40.9491 37.572 40.5122 37.5712H24.816V28.0789H39.3917C39.9531 28.0789 40.4916 27.8559 40.8886 27.4589C41.2856 27.0619 41.5086 26.5235 41.5086 25.962C41.5086 25.4006 41.2856 24.8621 40.8886 24.4651C40.4916 24.0681 39.9531 23.8451 39.3917 23.8451H24.816V17.3137C24.816 16.7523 24.593 16.2138 24.196 15.8168C23.799 15.4198 23.2605 15.1968 22.6991 15.1968C22.1376 15.1968 21.5992 15.4198 21.2022 15.8168C20.8052 16.2138 20.5822 16.7523 20.5822 17.3137V39.7022C20.5822 40.2637 20.8052 40.8021 21.2022 41.1991C21.5992 41.5961 22.1376 41.8192 22.6991 41.8192H39.0248L42.7534 52.161C42.8986 52.573 43.1679 52.9299 43.5242 53.1826C43.8805 53.4354 44.3064 53.5715 44.7433 53.5723H52.2541C52.8155 53.5723 53.354 53.3493 53.751 52.9523C54.148 52.5553 54.371 52.0168 54.371 51.4554C54.371 50.8939 54.148 50.3555 53.751 49.9585C53.354 49.5615 52.8155 49.3385 52.2541 49.3385V49.3272Z" stroke="#1F1F1F" stroke-width="2" stroke-miterlimit="10"/>
<path d="M22.953 11.4143C23.9701 11.4143 24.9644 11.1127 25.8101 10.5476C26.6559 9.98253 27.315 9.17935 27.7042 8.23964C28.0935 7.29993 28.1953 6.26591 27.9969 5.26832C27.7985 4.27073 27.3087 3.35439 26.5894 2.63517C25.8702 1.91595 24.9539 1.42616 23.9563 1.22772C22.9587 1.02929 21.9247 1.13113 20.985 1.52037C20.0453 1.90961 19.2421 2.56877 18.677 3.41448C18.1119 4.26019 17.8103 5.25448 17.8103 6.27161C17.8111 7.63531 18.3531 8.94295 19.3174 9.90723C20.2817 10.8715 21.5893 11.4136 22.953 11.4143Z" stroke="#1F1F1F" stroke-width="2" stroke-miterlimit="10"/>
</g>
<defs>
<clipPath id="clip0_306_85">
<rect width="55.5" height="63.437" fill="white"/>
</clipPath>
</defs>
</svg>
