<svg width="38" height="17" viewBox="0 0 38 17" fill="none" xmlns="http://www.w3.org/2000/svg">
<path d="M36.525 2.98953L37.5146 2.84523L37.226 0.86616L36.2364 1.01047L36.525 2.98953ZM18.4167 14.9727C18.1622 15.4629 18.3532 16.0665 18.8434 16.3211C19.3335 16.5756 19.9372 16.3845 20.1917 15.8944L18.4167 14.9727ZM36.2364 1.01047C32.3298 1.58018 23.5068 5.16961 18.4167 14.9727L20.1917 15.8944C24.9377 6.75391 33.1456 3.48236 36.525 2.98953L36.2364 1.01047Z" fill="#1F1F1F"/>
<path d="M1.85545 2.98953L0.865916 2.84523L1.15453 0.86616L2.14406 1.01047L1.85545 2.98953ZM19.9638 14.9727C20.2183 15.4629 20.0273 16.0665 19.5371 16.3211C19.047 16.5756 18.4433 16.3845 18.1888 15.8944L19.9638 14.9727ZM2.14406 1.01047C6.05066 1.58018 14.8737 5.16961 19.9638 14.9727L18.1888 15.8944C13.4428 6.75391 5.23485 3.48236 1.85545 2.98953L2.14406 1.01047Z" fill="#1F1F1F"/>
</svg>
