<svg width="56" height="50" viewBox="0 0 56 50" fill="none" xmlns="http://www.w3.org/2000/svg">
<path d="M53.0014 22.273H52.8932V6.18299C52.8932 4.54316 52.174 2.97049 50.8937 1.81095C49.6134 0.65142 47.877 0 46.0664 0L41.8365 0C40.0259 0 38.2895 0.65142 37.0092 1.81095C35.7289 2.97049 35.0097 4.54316 35.0097 6.18299V9.49721H34.026C33.9099 9.50334 33.797 9.53392 33.6962 9.5865C33.5955 9.63908 33.5097 9.71223 33.4456 9.80012L32.9144 10.4059C31.7308 11.741 31.0179 13.3676 30.8683 15.0744C30.2464 15.1213 29.6666 15.3781 29.2439 15.7939C28.8212 16.2098 28.5865 16.7543 28.5862 17.3195V18.7093C28.5887 18.8905 28.6693 19.0637 28.8108 19.1919C28.9523 19.32 29.1435 19.393 29.3436 19.3953H45.5745C45.7754 19.3953 45.9681 19.3231 46.1101 19.1944C46.2522 19.0658 46.332 18.8913 46.332 18.7093V17.2749C46.3319 16.7111 46.0985 16.1678 45.6778 15.7522C45.2572 15.3366 44.6798 15.0789 44.0597 15.0298C43.9036 13.3244 43.1914 11.6995 42.0136 10.3614L41.5217 9.80012C41.449 9.71956 41.3575 9.65461 41.2537 9.60993C41.15 9.56526 41.0366 9.54197 40.9217 9.54176H39.997V6.18299C39.997 5.74113 40.1908 5.31737 40.5358 5.00493C40.8808 4.69249 41.3486 4.51697 41.8365 4.51697H46.0664C46.5543 4.51697 47.0221 4.69249 47.3671 5.00493C47.7121 5.31737 47.9059 5.74113 47.9059 6.18299V22.273H24.8383C24.8338 21.5588 24.5924 20.8623 24.1455 20.2739C23.6986 19.6855 23.0668 19.2322 22.332 18.9729C21.5973 18.7137 20.7934 18.6603 20.0248 18.8198C19.2561 18.9793 18.5581 19.3444 18.0213 19.8675C17.3954 19.5032 16.6592 19.3256 15.9162 19.3597C15.5453 18.4151 14.8606 17.5976 13.9562 17.0195C13.0518 16.4414 11.9719 16.131 10.8649 16.131C9.75794 16.131 8.67809 16.4414 7.77366 17.0195C6.86923 17.5976 6.18456 18.4151 5.81367 19.3597C4.94301 19.3778 4.10986 19.6843 3.47181 20.2211C2.83376 20.7579 2.43504 21.4879 2.35107 22.273C1.7126 22.3072 1.11293 22.5619 0.67555 22.9845C0.238175 23.4071 -0.0035933 23.9656 4.03731e-05 24.5449V25.7209C4.03731e-05 26.3187 0.262247 26.892 0.728976 27.3147C1.19571 27.7374 1.82873 27.9749 2.48878 27.9749H2.59699V35.8328C2.6001 37.714 3.18152 39.5572 4.27609 41.1559C5.37066 42.7546 6.93515 44.0457 8.79426 44.8846L7.99746 46.5773C7.79437 47.2065 7.8537 47.8814 8.16415 48.4736C8.47461 49.0658 9.01454 49.534 9.68127 49.7892C10.348 50.0444 11.095 50.0687 11.7803 49.8576C12.4656 49.6465 13.0413 49.2147 13.3979 48.6442L14.6571 45.9715H40.8331L42.1021 48.6442C42.4629 49.2086 43.0391 49.634 43.7222 49.8403C44.4052 50.0467 45.148 50.0197 45.8106 49.7645C46.4732 49.5094 47.01 49.0436 47.3198 48.4549C47.6297 47.8662 47.6911 47.1953 47.4927 46.5684L46.7058 44.8846C48.5638 44.0453 50.1269 42.7539 51.2198 41.155C52.3127 39.5562 52.8921 37.7132 52.8932 35.8328V27.9749H53.0014C53.6624 27.9749 54.2964 27.7377 54.7647 27.3152C55.233 26.8928 55.4974 26.3195 55.5 25.7209V24.5449C55.5 23.9439 55.2371 23.3674 54.7688 22.9416C54.3005 22.5158 53.665 22.2754 53.0014 22.273ZM44.8564 17.2749V17.9877H30.101V17.2749C30.101 17.0387 30.2047 16.812 30.3892 16.645C30.5736 16.4779 30.8238 16.384 31.0847 16.384H43.8727C44.1336 16.384 44.3838 16.4779 44.5683 16.645C44.7528 16.812 44.8564 17.0387 44.8564 17.2749ZM40.8725 11.2167C41.8349 12.3086 42.4261 13.6303 42.5743 15.0209H32.4619C32.5984 13.6351 33.1797 12.3158 34.1342 11.2256L34.449 10.8692H40.5577L40.8725 11.2167ZM46.0664 3.14495H41.8365C40.9469 3.14495 40.0937 3.46503 39.4646 4.03477C38.8355 4.60451 38.4821 5.37725 38.4821 6.18299V9.49721H36.5147V6.18299C36.5199 4.90848 37.0812 3.68752 38.0763 2.7863C39.0713 1.88509 40.4194 1.37671 41.8267 1.37202H46.0565C47.4646 1.37437 48.8142 1.882 49.8098 2.78372C50.8054 3.68544 51.3659 4.90776 51.3685 6.18299V22.273H49.4011V6.18299C49.4011 5.38033 49.0504 4.61028 48.4256 4.04104C47.8008 3.47181 46.9526 3.14966 46.0664 3.14495ZM5.9022 20.7139C6.01348 20.7053 6.12537 20.7053 6.23665 20.7139C6.42781 20.7433 6.62412 20.7051 6.78516 20.6073C6.94621 20.5096 7.05971 20.3596 7.1023 20.1883C7.28029 19.4047 7.75134 18.7008 8.43594 18.1953C9.12054 17.6898 9.97675 17.4138 10.86 17.4138C11.7433 17.4138 12.5995 17.6898 13.2841 18.1953C13.9687 18.7008 14.4397 19.4047 14.6177 20.1883C14.6603 20.3656 14.7778 20.5208 14.9451 20.6206C15.1124 20.7205 15.3161 20.7572 15.5129 20.7228C15.8714 20.6244 16.2535 20.6208 16.6142 20.7123C16.9749 20.8039 17.2992 20.9868 17.5491 21.2395C17.607 21.3243 17.6849 21.3964 17.7771 21.4507C17.8693 21.5051 17.9737 21.5403 18.0826 21.5539C18.1916 21.5675 18.3026 21.5592 18.4076 21.5295C18.5126 21.4998 18.6091 21.4495 18.6902 21.3821C18.7497 21.3372 18.7997 21.2828 18.8378 21.2217C19.1034 20.8134 19.5087 20.4944 19.9922 20.3131C20.4757 20.1318 21.0113 20.0979 21.5179 20.2166C22.0246 20.3354 22.4748 20.6003 22.8005 20.9713C23.1262 21.3422 23.3098 21.7992 23.3234 22.273H3.87579C3.95685 21.8386 4.20453 21.4441 4.57522 21.1589C4.9459 20.8737 5.41582 20.7161 5.9022 20.7139ZM12.0011 48.1097C11.8716 48.3789 11.644 48.5997 11.3564 48.7352C11.0688 48.8707 10.7386 48.9128 10.4209 48.8544C10.1031 48.7961 9.81714 48.6407 9.61062 48.4144C9.4041 48.188 9.28955 47.9044 9.2861 47.6108C9.28683 47.4398 9.32355 47.2704 9.39431 47.1119L10.1911 45.4369H10.2993L10.742 45.5528L10.9289 45.6062L11.5486 45.7309H11.7257L12.1978 45.7933H12.4241L12.8864 45.8378H13.0241L12.0011 48.1097ZM45.2991 45.4369L46.0959 47.1386C46.1688 47.293 46.2072 47.4589 46.209 47.6267C46.2109 47.7946 46.1761 47.9612 46.1066 48.1168C46.0371 48.2725 45.9343 48.4142 45.8042 48.5337C45.6741 48.6533 45.5191 48.7484 45.3483 48.8135C45.1729 48.8768 44.9862 48.91 44.7974 48.9115C44.5171 48.9113 44.2434 48.8347 44.0119 48.6917C43.7803 48.5487 43.6016 48.3459 43.4989 48.1097L42.5153 45.918H42.653L43.1055 45.8735H43.3317L43.8137 45.8022H43.981L44.6007 45.6775L44.7876 45.624L45.2302 45.5082H45.3385L45.2991 45.4369ZM51.3783 35.8595C51.3765 37.5972 50.8027 39.2949 49.7304 40.7358C48.6581 42.1768 47.1358 43.2955 45.3581 43.9491C45.098 44.0484 44.832 44.1347 44.5613 44.2075H44.4728C44.1974 44.2787 43.9219 44.3411 43.6367 44.3946H43.5678C43.2727 44.448 42.9874 44.4926 42.6923 44.5193C42.3874 44.5193 42.0824 44.5193 41.7676 44.5193H13.7717C13.4668 44.5193 13.1619 44.5193 12.8667 44.5193H12.788C12.5028 44.5193 12.2175 44.448 11.9322 44.4035H11.8437C11.5683 44.35 11.2928 44.2876 11.0174 44.2164H10.919C10.6534 44.1451 10.3878 44.056 10.1222 43.958C8.3456 43.304 6.82471 42.1849 5.75406 40.7439C4.6834 39.3029 4.11163 37.6054 4.11188 35.8684V27.9749H51.3291L51.3783 35.8595ZM53.9753 25.7476C53.9753 25.9839 53.8716 26.2105 53.6872 26.3776C53.5027 26.5447 53.2525 26.6385 52.9916 26.6385H2.48878C2.22789 26.6385 1.97769 26.5447 1.79321 26.3776C1.60873 26.2105 1.50509 25.9839 1.50509 25.7476V24.5449C1.50509 24.3086 1.60873 24.082 1.79321 23.9149C1.97769 23.7478 2.22789 23.6539 2.48878 23.6539H53.0014C53.2623 23.6539 53.5125 23.7478 53.697 23.9149C53.8815 24.082 53.9851 24.3086 53.9851 24.5449L53.9753 25.7476Z" fill="#796254"/>
</svg>
