<svg width="56" height="52" viewBox="0 0 56 52" fill="none" xmlns="http://www.w3.org/2000/svg">
<path d="M53.0014 23.1131H52.8932V6.4162C52.8932 4.71452 52.174 3.08253 50.8937 1.87926C49.6134 0.67599 47.877 0 46.0664 0L41.8365 0C40.0259 0 38.2895 0.67599 37.0092 1.87926C35.7289 3.08253 35.0097 4.71452 35.0097 6.4162V9.85543H34.026C33.9099 9.86179 33.797 9.89352 33.6962 9.94809C33.5955 10.0027 33.5097 10.0786 33.4456 10.1698L32.9144 10.7984C31.7308 12.1838 31.0179 13.8718 30.8683 15.6429C30.2464 15.6916 29.6666 15.9581 29.2439 16.3897C28.8212 16.8212 28.5865 17.3862 28.5862 17.9727V19.415C28.5887 19.6031 28.6693 19.7827 28.8108 19.9157C28.9523 20.0487 29.1435 20.1245 29.3436 20.1269H45.5745C45.7754 20.1269 45.9681 20.0519 46.1101 19.9184C46.2522 19.7849 46.332 19.6038 46.332 19.415V17.9265C46.3319 17.3414 46.0985 16.7776 45.6778 16.3464C45.2572 15.9151 44.6798 15.6476 44.0597 15.5967C43.9036 13.827 43.1914 12.1408 42.0136 10.7522L41.5217 10.1698C41.449 10.0862 41.3575 10.0188 41.2537 9.9724C41.15 9.92604 41.0366 9.90188 40.9217 9.90165H39.997V6.4162C39.997 5.95767 40.1908 5.51793 40.5358 5.19371C40.8808 4.86948 41.3486 4.68734 41.8365 4.68734H46.0664C46.5543 4.68734 47.0221 4.86948 47.3671 5.19371C47.7121 5.51793 47.9059 5.95767 47.9059 6.4162V23.1131H24.8383C24.8338 22.372 24.5924 21.6492 24.1455 21.0386C23.6986 20.428 23.0668 19.9576 22.332 19.6886C21.5973 19.4195 20.7934 19.3642 20.0248 19.5297C19.2561 19.6952 18.5581 20.074 18.0213 20.6169C17.3954 20.2389 16.6592 20.0546 15.9162 20.0899C15.5453 19.1096 14.8606 18.2613 13.9562 17.6614C13.0518 17.0615 11.9719 16.7394 10.8649 16.7394C9.75794 16.7394 8.67809 17.0615 7.77366 17.6614C6.86923 18.2613 6.18456 19.1096 5.81367 20.0899C4.94301 20.1087 4.10986 20.4267 3.47181 20.9838C2.83376 21.5409 2.43504 22.2984 2.35107 23.1131C1.7126 23.1486 1.11293 23.4128 0.67555 23.8514C0.238175 24.29 -0.0035933 24.8695 4.03731e-05 25.4706V26.691C4.03731e-05 27.3114 0.262247 27.9063 0.728976 28.345C1.19571 28.7836 1.82873 29.0301 2.48878 29.0301H2.59699V37.1844C2.6001 39.1365 3.18152 41.0492 4.27609 42.7082C5.37066 44.3673 6.93515 45.7071 8.79426 46.5775L7.99746 48.3341C7.79437 48.9871 7.8537 49.6874 8.16415 50.3019C8.47461 50.9165 9.01454 51.4023 9.68127 51.6671C10.348 51.932 11.095 51.9572 11.7803 51.7382C12.4656 51.5191 13.0413 51.071 13.3979 50.479L14.6571 47.7054H40.8331L42.1021 50.479C42.4629 51.0646 43.0391 51.5061 43.7222 51.7202C44.4052 51.9343 45.148 51.9064 45.8106 51.6416C46.4732 51.3768 47.01 50.8934 47.3198 50.2826C47.6297 49.6717 47.6911 48.9754 47.4927 48.3249L46.7058 46.5775C48.5638 45.7066 50.1269 44.3665 51.2198 42.7073C52.3127 41.0482 52.8921 39.1357 52.8932 37.1844V29.0301H53.0014C53.6624 29.0301 54.2964 28.7839 54.7647 28.3455C55.233 27.9071 55.4974 27.3122 55.5 26.691V25.4706C55.5 24.847 55.2371 24.2487 54.7688 23.8069C54.3005 23.365 53.665 23.1155 53.0014 23.1131ZM44.8564 17.9265V18.6661H30.101V17.9265C30.101 17.6813 30.2047 17.4462 30.3892 17.2728C30.5736 17.0994 30.8238 17.002 31.0847 17.002H43.8727C44.1336 17.002 44.3838 17.0994 44.5683 17.2728C44.7528 17.4462 44.8564 17.6813 44.8564 17.9265ZM40.8725 11.6398C41.8349 12.7728 42.4261 14.1444 42.5743 15.5875H32.4619C32.5984 14.1494 33.1797 12.7803 34.1342 11.649L34.449 11.2792H40.5577L40.8725 11.6398ZM46.0664 3.26357H41.8365C40.9469 3.26357 40.0937 3.59572 39.4646 4.18695C38.8355 4.77819 38.4821 5.58007 38.4821 6.4162V9.85543H36.5147V6.4162C36.5199 5.09362 37.0812 3.82661 38.0763 2.8914C39.0713 1.95619 40.4194 1.42864 41.8267 1.42377H46.0565C47.4646 1.42621 48.8142 1.95298 49.8098 2.88872C50.8054 3.82445 51.3659 5.09287 51.3685 6.4162V23.1131H49.4011V6.4162C49.4011 5.58326 49.0504 4.78417 48.4256 4.19347C47.8008 3.60276 46.9526 3.26846 46.0664 3.26357ZM5.9022 21.4952C6.01348 21.4863 6.12537 21.4863 6.23665 21.4952C6.42781 21.5257 6.62412 21.4861 6.78516 21.3846C6.94621 21.2831 7.05971 21.1275 7.1023 20.9497C7.28029 20.1366 7.75134 19.4061 8.43594 18.8816C9.12054 18.3571 9.97675 18.0706 10.86 18.0706C11.7433 18.0706 12.5995 18.3571 13.2841 18.8816C13.9687 19.4061 14.4397 20.1366 14.6177 20.9497C14.6603 21.1337 14.7778 21.2948 14.9451 21.3984C15.1124 21.5021 15.3161 21.5401 15.5129 21.5044C15.8714 21.4023 16.2535 21.3986 16.6142 21.4936C16.9749 21.5885 17.2992 21.7784 17.5491 22.0407C17.607 22.1286 17.6849 22.2034 17.7771 22.2598C17.8693 22.3162 17.9737 22.3527 18.0826 22.3669C18.1916 22.381 18.3026 22.3724 18.4076 22.3415C18.5126 22.3107 18.6091 22.2585 18.6902 22.1886C18.7497 22.142 18.7997 22.0856 18.8378 22.0222C19.1034 21.5984 19.5087 21.2674 19.9922 21.0793C20.4757 20.8911 21.0113 20.856 21.5179 20.9792C22.0246 21.1024 22.4748 21.3773 22.8005 21.7623C23.1262 22.1472 23.3098 22.6214 23.3234 23.1131H3.87579C3.95685 22.6624 4.20453 22.253 4.57522 21.957C4.9459 21.661 5.41582 21.4975 5.9022 21.4952ZM12.0011 49.9243C11.8716 50.2036 11.644 50.4327 11.3564 50.5734C11.0688 50.7141 10.7386 50.7577 10.4209 50.6971C10.1031 50.6365 9.81714 50.4754 9.61062 50.2405C9.4041 50.0056 9.28955 49.7113 9.2861 49.4066C9.28683 49.2291 9.32355 49.0534 9.39431 48.8888L10.1911 47.1507H10.2993L10.742 47.2709L10.9289 47.3264L11.5486 47.4558H11.7257L12.1978 47.5205H12.4241L12.8864 47.5668H13.0241L12.0011 49.9243ZM45.2991 47.1507L46.0959 48.9166C46.1688 49.0768 46.2072 49.2489 46.209 49.4231C46.2109 49.5973 46.1761 49.7702 46.1066 49.9317C46.0371 50.0932 45.9343 50.2402 45.8042 50.3643C45.6741 50.4884 45.5191 50.5871 45.3483 50.6547C45.1729 50.7203 44.9862 50.7548 44.7974 50.7564C44.5171 50.7561 44.2434 50.6766 44.0119 50.5282C43.7803 50.3798 43.6016 50.1694 43.4989 49.9243L42.5153 47.65H42.653L43.1055 47.6037H43.3317L43.8137 47.5298H43.981L44.6007 47.4003L44.7876 47.3449L45.2302 47.2247H45.3385L45.2991 47.1507ZM51.3783 37.2121C51.3765 39.0153 50.8027 40.7771 49.7304 42.2723C48.6581 43.7676 47.1358 44.9285 45.3581 45.6068C45.098 45.7098 44.832 45.7993 44.5613 45.8749H44.4728C44.1974 45.9488 43.9219 46.0136 43.6367 46.069H43.5678C43.2727 46.1245 42.9874 46.1707 42.6923 46.1985C42.3874 46.1985 42.0824 46.1985 41.7676 46.1985H13.7717C13.4668 46.1985 13.1619 46.1985 12.8667 46.1985H12.788C12.5028 46.1985 12.2175 46.1245 11.9322 46.0783H11.8437C11.5683 46.0228 11.2928 45.9581 11.0174 45.8841H10.919C10.6534 45.8102 10.3878 45.7177 10.1222 45.616C8.3456 44.9374 6.82471 43.7761 5.75406 42.2807C4.6834 40.7853 4.11163 39.0238 4.11188 37.2213V29.0301H51.3291L51.3783 37.2121ZM53.9753 26.7187C53.9753 26.9639 53.8716 27.1991 53.6872 27.3725C53.5027 27.5459 53.2525 27.6433 52.9916 27.6433H2.48878C2.22789 27.6433 1.97769 27.5459 1.79321 27.3725C1.60873 27.1991 1.50509 26.9639 1.50509 26.7187V25.4706C1.50509 25.2254 1.60873 24.9903 1.79321 24.8169C1.97769 24.6435 2.22789 24.5461 2.48878 24.5461H53.0014C53.2623 24.5461 53.5125 24.6435 53.697 24.8169C53.8815 24.9903 53.9851 25.2254 53.9851 25.4706L53.9753 26.7187Z" fill="#2A2E35"/>
</svg>
