<svg width="56" height="56" viewBox="0 0 56 56" fill="none" xmlns="http://www.w3.org/2000/svg">
<g clip-path="url(#clip0_688_646)">
<path d="M54.5753 11.0959H37.9214C37.6762 11.0959 37.441 11.1934 37.2676 11.3668C37.0941 11.5402 36.9967 11.7754 36.9967 12.0206V33.2979H16.6441V30.4944C16.6441 30.2492 16.5467 30.014 16.3733 29.8405C16.1999 29.6671 15.9647 29.5697 15.7194 29.5697H12.9454V31.4781H14.7554V33.3274H11.0961V29.5992H9.24672V33.2979H5.54803V31.4781H7.39738V29.5992H4.62336C4.37812 29.5992 4.14293 29.6966 3.96952 29.8701C3.79611 30.0435 3.69869 30.2787 3.69869 30.5239V33.2979H0.924672C0.679434 33.2979 0.44424 33.3953 0.27083 33.5687C0.0974206 33.7422 0 33.9774 0 34.2226L0 54.5752C0.0140538 54.8159 0.115986 55.043 0.286444 55.2134C0.456902 55.3839 0.684018 55.4858 0.924672 55.4999H54.5753C54.816 55.4858 55.0431 55.3839 55.2136 55.2134C55.384 55.043 55.4859 54.8159 55.5 54.5752V12.0206C55.4859 11.78 55.384 11.5529 55.2136 11.3824C55.0431 11.2119 54.816 11.11 54.5753 11.0959ZM38.8362 12.9453H53.5916V24.0512H38.8362V12.9453ZM36.9967 38.8459H20.3526V35.1473H36.9967V38.8459ZM1.84934 35.1473H18.5033V38.8459H1.84934V35.1473ZM1.84934 40.6953H18.5033V53.6407H1.84934V40.6953ZM20.3526 40.6953H27.75V53.6407H20.3526V40.6953ZM29.5993 40.6953H36.9967V53.6407H29.5993V40.6953ZM38.8461 53.6407V25.9005H53.6015V53.6407H38.8461Z" fill="#2A2E35"/>
<path d="M40.6954 16.644H42.5448V20.3526H40.6954V16.644Z" fill="#2A2E35"/>
<path d="M40.6954 29.5994H42.5448V33.2981H40.6954V29.5994Z" fill="#2A2E35"/>
<path d="M5.54807 36.9967C5.54807 37.1796 5.49384 37.3584 5.39224 37.5104C5.29064 37.6625 5.14622 37.781 4.97726 37.851C4.8083 37.921 4.62238 37.9393 4.44301 37.9036C4.26364 37.8679 4.09888 37.7799 3.96956 37.6505C3.84024 37.5212 3.75218 37.3565 3.7165 37.1771C3.68082 36.9977 3.69913 36.8118 3.76912 36.6428C3.8391 36.4739 3.95762 36.3295 4.10968 36.2279C4.26174 36.1263 4.44052 36.072 4.6234 36.072C4.86864 36.072 5.10384 36.1694 5.27724 36.3429C5.45065 36.5163 5.54807 36.7515 5.54807 36.9967Z" fill="#2A2E35"/>
<path d="M9.24668 36.9967C9.24668 37.1796 9.19245 37.3584 9.09085 37.5104C8.98924 37.6625 8.84483 37.781 8.67587 37.851C8.50691 37.921 8.32099 37.9393 8.14162 37.9036C7.96225 37.8679 7.79749 37.7799 7.66817 37.6505C7.53885 37.5212 7.45079 37.3565 7.41511 37.1771C7.37943 36.9977 7.39774 36.8118 7.46773 36.6428C7.53771 36.4739 7.65623 36.3295 7.80829 36.2279C7.96035 36.1263 8.13913 36.072 8.32201 36.072C8.56725 36.072 8.80244 36.1694 8.97585 36.3429C9.14926 36.5163 9.24668 36.7515 9.24668 36.9967Z" fill="#2A2E35"/>
<path d="M12.9454 36.9967C12.9454 37.1796 12.8912 37.3584 12.7896 37.5104C12.688 37.6625 12.5436 37.781 12.3746 37.851C12.2056 37.921 12.0197 37.9393 11.8403 37.9036C11.661 37.8679 11.4962 37.7799 11.3669 37.6505C11.2376 37.5212 11.1495 37.3565 11.1138 37.1771C11.0782 36.9977 11.0965 36.8118 11.1665 36.6428C11.2364 36.4739 11.355 36.3295 11.507 36.2279C11.6591 36.1263 11.8379 36.072 12.0207 36.072C12.266 36.072 12.5012 36.1694 12.6746 36.3429C12.848 36.5163 12.9454 36.7515 12.9454 36.9967Z" fill="#2A2E35"/>
<path d="M16.6441 36.9967C16.6441 37.1796 16.5899 37.3584 16.4883 37.5104C16.3867 37.6625 16.2423 37.781 16.0733 37.851C15.9044 37.921 15.7184 37.9393 15.5391 37.9036C15.3597 37.8679 15.1949 37.7799 15.0656 37.6505C14.9363 37.5212 14.8482 37.3565 14.8126 37.1771C14.7769 36.9977 14.7952 36.8118 14.8652 36.6428C14.9352 36.4739 15.0537 36.3295 15.2058 36.2279C15.3578 36.1263 15.5366 36.072 15.7195 36.072C15.9647 36.072 16.1999 36.1694 16.3733 36.3429C16.5467 36.5163 16.6441 36.7515 16.6441 36.9967Z" fill="#2A2E35"/>
<path d="M0.924672 17.5688H19.428C19.6686 17.5547 19.8957 17.4528 20.0662 17.2823C20.2366 17.1119 20.3386 16.8848 20.3526 16.6441V13.8701C20.3525 13.7489 20.3281 13.6291 20.2808 13.5175C20.2334 13.406 20.1642 13.3051 20.0772 13.2208L16.3785 9.52216C16.2061 9.35547 15.9787 9.25752 15.7391 9.24672H14.7554V0.924672C14.7556 0.686101 14.6636 0.456679 14.4986 0.284358C14.3336 0.112036 14.1084 0.0101519 13.8701 0L6.4727 0C6.22747 0 5.99227 0.0974206 5.81886 0.27083C5.64545 0.44424 5.54803 0.679434 5.54803 0.924672V9.24672H4.62336C4.49557 9.24076 4.36798 9.26226 4.2492 9.30977C4.13042 9.35729 4.0232 9.42971 3.93478 9.52216L0.275434 13.2208C0.188407 13.3051 0.119186 13.406 0.0718729 13.5175C0.0245603 13.6291 0.000119682 13.7489 0 13.8701L0 16.6441C0 16.7655 0.0239173 16.8858 0.0703865 16.998C0.116856 17.1101 0.184966 17.2121 0.27083 17.2979C0.356694 17.3838 0.458629 17.4519 0.570815 17.4984C0.683002 17.5449 0.803242 17.5688 0.924672 17.5688ZM7.39738 1.82967H12.9454V9.24672H7.39738V1.82967ZM1.84934 14.2537L5.007 11.0961H15.3456L18.5033 14.2537V15.7391H1.84934V14.2537Z" fill="#2A2E35"/>
<path d="M15.7391 42.5447H4.6234C4.37816 42.5447 4.14297 42.6421 3.96956 42.8155C3.79615 42.9889 3.69873 43.2241 3.69873 43.4693V50.8667C3.69873 51.112 3.79615 51.3472 3.96956 51.5206C4.14297 51.694 4.37816 51.7914 4.6234 51.7914H15.7391C15.9844 51.7914 16.2196 51.694 16.393 51.5206C16.5664 51.3472 16.6638 51.112 16.6638 50.8667V43.4693C16.6638 43.2241 16.5664 42.9889 16.393 42.8155C16.2196 42.6421 15.9844 42.5447 15.7391 42.5447ZM14.7554 49.9421H5.54807V44.394H14.7554V49.9421Z" fill="#2A2E35"/>
<path d="M26.8253 36.072H30.4945V37.9214H26.8253V36.072Z" fill="#2A2E35"/>
<path d="M24.0513 45.3188H25.9006V49.0175H24.0513V45.3188Z" fill="#2A2E35"/>
<path d="M31.4781 45.3188H33.3275V49.0175H31.4781V45.3188Z" fill="#2A2E35"/>
<path d="M22.202 23.1266H27.75C27.9953 23.1266 28.2305 23.0292 28.4039 22.8558C28.5773 22.6824 28.6747 22.4472 28.6747 22.202V21.2773C28.6691 20.46 28.3943 19.6673 27.8929 19.0218C27.3914 18.3763 26.6913 17.9141 25.9007 17.7065V0H24.0514V17.7065C23.2583 17.9095 22.5553 18.3706 22.0531 19.017C21.5509 19.6635 21.278 20.4587 21.2773 21.2773V22.202C21.2773 22.4472 21.3748 22.6824 21.5482 22.8558C21.7216 23.0292 21.9568 23.1266 22.202 23.1266ZM24.976 19.428C25.4665 19.428 25.9369 19.6228 26.2837 19.9696C26.6305 20.3164 26.8254 20.7868 26.8254 21.2773H23.1267C23.1267 20.7868 23.3215 20.3164 23.6683 19.9696C24.0152 19.6228 24.4856 19.428 24.976 19.428Z" fill="#2A2E35"/>
<path d="M28.6747 15.7391H34.2228C34.468 15.7391 34.7032 15.6417 34.8766 15.4683C35.05 15.2949 35.1474 15.0597 35.1474 14.8144V13.8701C35.143 13.0536 34.8684 12.2615 34.3666 11.6174C33.8648 10.9732 33.164 10.5132 32.3734 10.3091V0H30.4946V10.3091C29.7015 10.5086 28.9978 10.9674 28.4952 11.6125C27.9926 12.2577 27.72 13.0523 27.7205 13.8701V14.7554C27.7122 14.8842 27.731 15.0134 27.7756 15.1345C27.8202 15.2557 27.8897 15.3661 27.9796 15.4588C28.0695 15.5514 28.1778 15.6243 28.2975 15.6725C28.4172 15.7208 28.5457 15.7435 28.6747 15.7391ZM31.4783 12.0207C31.7211 12.0207 31.9616 12.0686 32.186 12.1615C32.4103 12.2544 32.6142 12.3907 32.7859 12.5624C32.9577 12.7341 33.0939 12.938 33.1868 13.1624C33.2798 13.3867 33.3276 13.6272 33.3276 13.8701H29.5994C29.5994 13.6247 29.6482 13.3818 29.7429 13.1555C29.8377 12.9292 29.9766 12.724 30.1515 12.5519C30.3263 12.3797 30.5337 12.2441 30.7615 12.1529C30.9893 12.0618 31.2329 12.0168 31.4783 12.0207Z" fill="#2A2E35"/>
</g>
<defs>
<clipPath id="clip0_688_646">
<rect width="55.5" height="55.5" fill="white"/>
</clipPath>
</defs>
</svg>
