<svg width="56" height="56" viewBox="0 0 56 56" fill="none" xmlns="http://www.w3.org/2000/svg">
<path fill-rule="evenodd" clip-rule="evenodd" d="M1.30607 1.38974L0 2.78007L1.30607 6.28528C2.93317 10.6539 3.23521 11.0521 5.23675 11.4674C6.26985 11.6816 9.53355 14.4961 14.2582 19.2475L21.6614 26.6917L18.4327 29.9607L15.2035 33.2303H11.0111H6.81815L3.4251 36.6596C0.0338235 40.0865 0.0314501 40.0918 0.0314501 43.7454C0.0314501 45.7564 0.252788 47.539 0.523971 47.7063C0.794561 47.8736 2.4543 46.5539 4.21254 44.7743C7.2816 41.6661 7.5326 41.5379 10.5441 41.5379H13.6796V44.6758C13.6796 47.6553 13.5307 47.9603 10.7126 50.7356C9.08078 52.3431 7.74564 54.0017 7.74564 54.4218C7.74564 54.9642 8.82859 55.1861 11.4728 55.1861H15.2005L18.5936 51.7568L21.9872 48.3276V44.1631C21.9872 40.0877 22.0382 39.9488 24.3561 37.6856L26.7249 35.3725L28.4885 37.0625C29.9862 38.4973 30.3927 38.635 31.1885 37.9746C32.5016 36.8845 33.6006 38.0155 32.7586 39.5898C32.2263 40.5837 33.1229 41.7112 39.5293 48.1021L46.9135 55.4685L51.2068 51.1753L55.5 46.8821L48.1335 39.4978C41.7426 33.0915 40.6152 32.1949 39.6212 32.7271C38.047 33.5692 36.9159 32.4702 38.006 31.157C38.6665 30.3613 38.5288 29.9548 37.094 28.457L35.404 26.6935L37.717 24.3246C39.9802 22.0068 40.1191 21.9558 44.1946 21.9558H48.359L51.7883 18.5621L55.2175 15.1691V11.4413C55.2175 8.79714 54.9956 7.71418 54.4532 7.71418C54.0331 7.71418 52.3746 9.04933 50.7671 10.6812C47.9917 13.4992 47.6867 13.6482 44.7073 13.6482H41.5694V10.5103C41.5694 7.53082 41.7183 7.22582 44.5364 4.45049C46.1682 2.84297 47.5034 1.18442 47.5034 0.764298C47.5034 0.221931 46.4204 0 43.7762 0H40.0485L36.6554 3.42925L33.2618 6.8585V11.0153V15.172L29.9922 18.4013L26.7231 21.63L19.2789 14.2267C14.5276 9.5021 11.7131 6.2384 11.4989 5.20529C11.3143 4.3152 10.8616 3.34974 10.4925 3.05897C9.93528 2.61986 3.33193 0 2.78304 0C2.68869 0 2.02408 0.625442 1.30607 1.38974ZM42.2862 4.32469C39.8183 6.83892 39.7892 6.91903 39.7892 11.1488V15.4284H44.0688C48.2985 15.4284 48.3786 15.3993 50.8929 12.9313L53.4373 10.4343L53.4368 12.1896C53.4362 13.4891 52.6606 14.7537 50.4478 17.0602L47.4595 20.1756H43.2701H39.0812L29.6694 29.8183L20.258 39.461L20.2325 43.6819L20.207 47.9027L17.2655 50.6543C15.0142 52.7603 13.8713 53.4059 12.3949 53.4059H10.4658L12.9628 50.8614C15.4307 48.3472 15.4598 48.2671 15.4598 44.0373V39.7577H11.1802C6.95048 39.7577 6.87037 39.7868 4.35614 42.2547L1.81165 44.7518V42.8226C1.81165 41.3462 2.45726 40.2034 4.56324 37.952L7.31483 35.0105H11.6888H16.0633L25.5523 25.566L35.042 16.1215V11.9706V7.8204L38.1259 4.8C40.4538 2.52076 41.6483 1.7802 42.9971 1.7802H44.7832L42.2862 4.32469ZM6.68405 3.36991C8.8363 4.14133 9.55788 4.7282 9.82016 5.92271C10.0243 6.85138 13.2387 10.5554 17.8281 15.1495L25.496 22.8245L24.2136 24.1893L22.9313 25.5541L15.1904 17.8554C10.6123 13.3022 6.79738 9.99877 5.85388 9.77031C4.61961 9.47183 4.04995 8.76925 3.33193 6.66328C1.72382 1.94338 1.98551 1.68585 6.68405 3.36991ZM35.633 31.1564C34.9476 31.9818 35.0978 32.3735 36.7237 33.9994C38.3081 35.5838 38.7846 35.7754 39.7049 35.201C40.6621 34.6029 41.5765 35.296 46.9616 40.6994L53.1228 46.8821L50.0182 49.9867L46.9135 53.0914L40.7036 46.9028C36.0567 42.2714 34.6503 40.5268 35.1138 39.9678C35.9659 38.9412 35.3043 37.2999 33.5152 35.9997C32.3153 35.128 31.8453 35.0562 31.1451 35.6366C30.4443 36.2187 30.0373 36.1481 29.0771 35.2793C27.8909 34.2059 27.9058 34.1732 30.9986 31.0419C34.0878 27.9135 34.1252 27.8963 35.2716 29.0421C36.2543 30.0254 36.3089 30.3423 35.633 31.1564ZM39.5121 37.9461C38.9899 38.7905 39.6557 39.7577 40.7576 39.7577C41.2774 39.7577 41.5753 39.3406 41.4643 38.7685C41.2335 37.5764 40.0485 37.0779 39.5121 37.9461ZM43.0707 41.5094C42.8784 41.8198 43.9335 43.3395 45.4152 44.8859C47.5028 47.0642 48.2682 47.5378 48.8171 46.9889C49.3666 46.4394 48.9364 45.6798 46.9076 43.6124C44.1946 40.8478 43.6605 40.5553 43.0707 41.5094Z" fill="#796254"/>
</svg>
