<svg width="56" height="57" viewBox="0 0 56 57" fill="none" xmlns="http://www.w3.org/2000/svg">
<g clip-path="url(#clip0_306_58)">
<path d="M55.5 31.83C55.476 30.9665 55.164 30.137 54.6151 29.4774C54.0663 28.8179 53.3133 28.3674 52.4795 28.2V8.35C52.4795 3.74 48.5441 0.01 43.6247 0H21.8222C16.952 0 12.9674 3.74 12.9674 8.35V13.89H8.32352C8.21885 13.886 8.11443 13.903 8.01622 13.94C7.91802 13.9771 7.82797 14.0334 7.75121 14.1059C7.67445 14.1783 7.6125 14.2654 7.56889 14.3622C7.52528 14.459 7.50088 14.5636 7.49708 14.67V18.34H3.65015C2.71559 18.3103 1.80738 18.6573 1.12359 19.3055C0.439796 19.9537 0.0359037 20.8504 0 21.8L0 23.58C0.00380506 23.6864 0.0282087 23.791 0.0718151 23.8878C0.115422 23.9846 0.177375 24.0717 0.254133 24.1441C0.330891 24.2166 0.420947 24.2729 0.51915 24.31C0.617353 24.347 0.721777 24.364 0.826449 24.36H31.4838C31.5885 24.364 31.6929 24.347 31.7911 24.31C31.8893 24.2729 31.9793 24.2166 32.0561 24.1441C32.1329 24.0717 32.1948 23.9846 32.2384 23.8878C32.282 23.791 32.3064 23.6864 32.3102 23.58V21.8C32.2718 20.8495 31.8658 19.9528 31.1804 19.3049C30.495 18.657 29.5858 18.3102 28.6502 18.34H24.8427V14.67C24.835 14.4569 24.7449 14.2555 24.592 14.1095C24.4391 13.9635 24.2358 13.8846 24.0261 13.89H19.3527V8.35C19.3629 8.03083 19.4348 7.71683 19.5645 7.42595C19.6941 7.13507 19.8789 6.87301 20.1082 6.65476C20.3376 6.43651 20.607 6.26635 20.9011 6.154C21.1952 6.04165 21.5082 5.98932 21.8222 6H43.6542C44.2868 5.97839 44.9019 6.21258 45.3648 6.65122C45.8277 7.08986 46.1007 7.69717 46.1237 8.34V28.2C45.3817 28.361 44.6995 28.7319 44.156 29.27H38.6267C38.2772 29.2386 37.9251 29.2814 37.5928 29.3958C37.2605 29.5102 36.9553 29.6936 36.6965 29.9343C36.4377 30.1751 36.231 30.468 36.0897 30.7944C35.9483 31.1207 35.8753 31.4734 35.8753 31.83C35.8753 32.1866 35.9483 32.5393 36.0897 32.8656C36.231 33.192 36.4377 33.4849 36.6965 33.7257C36.9553 33.9664 37.2605 34.1498 37.5928 34.2642C37.9251 34.3786 38.2772 34.4214 38.6267 34.39H44.1855C44.7261 34.9322 45.4095 35.3038 46.1533 35.46V56.23C46.1571 56.3364 46.1815 56.441 46.2251 56.5378C46.2687 56.6346 46.3306 56.7217 46.4074 56.7941C46.4841 56.8666 46.5742 56.9229 46.6724 56.96C46.7706 56.997 46.875 57.014 46.9797 57.01H51.6531C51.7577 57.014 51.8622 56.997 51.9604 56.96C52.0586 56.9229 52.1486 56.8666 52.2254 56.7941C52.3022 56.7217 52.3641 56.6346 52.4077 56.5378C52.4513 56.441 52.4757 56.3364 52.4795 56.23V35.46C53.3133 35.2926 54.0663 34.8421 54.6151 34.1826C55.164 33.523 55.476 32.6935 55.5 31.83ZM30.6967 21.8V22.8H1.6529V21.8C1.67816 21.2871 1.89658 20.8037 2.2629 20.45C2.62922 20.0963 3.11537 19.8994 3.62063 19.9H28.6896C29.2016 19.8889 29.6977 20.0812 30.0725 20.436C30.4473 20.7908 30.6712 21.2801 30.6967 21.8ZM23.1996 18.34H9.14997V15.45H23.1996V18.34ZM43.6542 4.45H21.8222C20.77 4.42017 19.7485 4.81266 18.9788 5.54255C18.2091 6.27244 17.7532 7.28101 17.7096 8.35V13.89H14.64V8.35C14.7117 6.4834 15.5074 4.72152 16.8531 3.44927C18.1989 2.17702 19.9853 1.4978 21.8222 1.56H43.6542C45.4911 1.4978 47.2775 2.17702 48.6233 3.44927C49.969 4.72152 50.7647 6.4834 50.8365 8.35V28.09H47.7668V8.35C47.7258 7.28011 47.2706 6.27 46.5004 5.53958C45.7301 4.80915 44.7072 4.41754 43.6542 4.45ZM43.2902 32.83H38.6267C38.3657 32.83 38.1155 32.7246 37.931 32.5371C37.7465 32.3496 37.6428 32.0952 37.6428 31.83C37.6428 31.5648 37.7465 31.3104 37.931 31.1229C38.1155 30.9354 38.3657 30.83 38.6267 30.83H43.2902C43.1033 31.4831 43.1033 32.1769 43.2902 32.83ZM50.8857 55.45H47.7668V35.57H50.8365L50.8857 55.45ZM51.5645 34H47.0486C46.7496 34.0291 46.448 33.9944 46.1631 33.8981C45.8781 33.8018 45.6161 33.6461 45.3939 33.4408C45.1716 33.2355 44.994 32.9853 44.8725 32.7062C44.751 32.4271 44.6882 32.1252 44.6882 31.82C44.6882 31.5148 44.751 31.2129 44.8725 30.9338C44.994 30.6547 45.1716 30.4045 45.3939 30.1992C45.6161 29.9939 45.8781 29.8382 46.1631 29.7419C46.448 29.6456 46.7496 29.6109 47.0486 29.64H51.5744C51.8733 29.6109 52.1749 29.6456 52.4599 29.7419C52.7448 29.8382 53.0068 29.9939 53.2291 30.1992C53.4513 30.4045 53.6289 30.6547 53.7504 30.9338C53.8719 31.2129 53.9347 31.5148 53.9347 31.82C53.9347 32.1252 53.8719 32.4271 53.7504 32.7062C53.6289 32.9853 53.4513 33.2355 53.2291 33.4408C53.0068 33.6461 52.7448 33.8018 52.4599 33.8981C52.1749 33.9944 51.8733 34.0291 51.5744 34H51.5645Z" fill="#796254"/>
<path d="M4.08304 27.46C3.97837 27.456 3.87394 27.473 3.77574 27.51C3.67754 27.5471 3.58748 27.6034 3.51072 27.6759C3.43397 27.7483 3.37201 27.8354 3.32841 27.9322C3.2848 28.029 3.2604 28.1336 3.25659 28.24V31.78C3.2604 31.8864 3.2848 31.991 3.32841 32.0878C3.37201 32.1846 3.43397 32.2717 3.51072 32.3441C3.58748 32.4166 3.67754 32.4729 3.77574 32.51C3.87394 32.547 3.97837 32.564 4.08304 32.56C4.18852 32.5654 4.294 32.5494 4.39334 32.513C4.49268 32.4765 4.58391 32.4204 4.66173 32.3478C4.73954 32.2752 4.80238 32.1877 4.84661 32.0902C4.89083 31.9927 4.91555 31.8873 4.91933 31.78V28.24C4.91555 28.1327 4.89083 28.0273 4.84661 27.9298C4.80238 27.8323 4.73954 27.7448 4.66173 27.6722C4.58391 27.5996 4.49268 27.5435 4.39334 27.507C4.294 27.4706 4.18852 27.4546 4.08304 27.46Z" fill="#796254"/>
<path d="M8.91384 27.46C8.70412 27.4546 8.50075 27.5335 8.34787 27.6795C8.19499 27.8256 8.10493 28.027 8.09723 28.24V31.78C8.11941 31.9858 8.21552 32.1759 8.36712 32.314C8.51873 32.4521 8.71516 32.5285 8.91876 32.5285C9.12236 32.5285 9.31879 32.4521 9.4704 32.314C9.622 32.1759 9.71811 31.9858 9.74029 31.78V28.24C9.73648 28.1337 9.71208 28.0291 9.66847 27.9323C9.62487 27.8355 9.56291 27.7484 9.48616 27.6759C9.4094 27.6035 9.31934 27.5471 9.22114 27.5101C9.12294 27.473 9.01851 27.456 8.91384 27.46Z" fill="#796254"/>
<path d="M13.7741 27.46C13.6695 27.456 13.565 27.473 13.4668 27.5101C13.3686 27.5471 13.2786 27.6035 13.2018 27.6759C13.1251 27.7484 13.0631 27.8355 13.0195 27.9323C12.9759 28.0291 12.9515 28.1337 12.9477 28.24V31.78C12.9477 32.0028 13.0348 32.2165 13.1898 32.374C13.3447 32.5315 13.555 32.62 13.7741 32.62C13.9933 32.62 14.2035 32.5315 14.3585 32.374C14.5135 32.2165 14.6006 32.0028 14.6006 31.78V28.24C14.5968 28.1337 14.5724 28.0291 14.5288 27.9323C14.4852 27.8355 14.4232 27.7484 14.3465 27.6759C14.2697 27.6035 14.1796 27.5471 14.0814 27.5101C13.9832 27.473 13.8788 27.456 13.7741 27.46Z" fill="#796254"/>
<path d="M18.5951 27.46C18.4905 27.456 18.386 27.473 18.2878 27.5101C18.1896 27.5471 18.0996 27.6035 18.0228 27.6759C17.9461 27.7484 17.8841 27.8355 17.8405 27.9323C17.7969 28.0291 17.7725 28.1337 17.7687 28.24V31.78C17.7909 31.9858 17.887 32.1759 18.0386 32.314C18.1902 32.4521 18.3866 32.5285 18.5902 32.5285C18.7938 32.5285 18.9902 32.4521 19.1418 32.314C19.2934 32.1759 19.3896 31.9858 19.4117 31.78V28.24C19.404 28.027 19.314 27.8256 19.1611 27.6795C19.0082 27.5335 18.8049 27.4546 18.5951 27.46Z" fill="#796254"/>
<path d="M23.4259 27.46C23.3212 27.456 23.2168 27.473 23.1186 27.5101C23.0204 27.5471 22.9303 27.6035 22.8536 27.6759C22.7768 27.7484 22.7148 27.8355 22.6712 27.9323C22.6276 28.0291 22.6032 28.1337 22.5994 28.24V31.78C22.5994 32.0028 22.6865 32.2165 22.8415 32.374C22.9965 32.5315 23.2067 32.62 23.4259 32.62C23.6451 32.62 23.8553 32.5315 24.0103 32.374C24.1653 32.2165 24.2523 32.0028 24.2523 31.78V28.24C24.2485 28.1337 24.2241 28.0291 24.1805 27.9323C24.1369 27.8355 24.075 27.7484 23.9982 27.6759C23.9214 27.6035 23.8314 27.5471 23.7332 27.5101C23.635 27.473 23.5305 27.456 23.4259 27.46Z" fill="#796254"/>
<path d="M28.2665 27.46C28.1618 27.456 28.0574 27.473 27.9592 27.5101C27.861 27.5471 27.771 27.6035 27.6942 27.6759C27.6174 27.7484 27.5555 27.8355 27.5119 27.9323C27.4683 28.0291 27.4439 28.1337 27.4401 28.24V31.78C27.4622 31.9858 27.5584 32.1759 27.71 32.314C27.8616 32.4521 28.058 32.5285 28.2616 32.5285C28.4652 32.5285 28.6616 32.4521 28.8132 32.314C28.9648 32.1759 29.0609 31.9858 29.0831 31.78V28.24C29.0754 28.027 28.9854 27.8256 28.8325 27.6795C28.6796 27.5335 28.4762 27.4546 28.2665 27.46Z" fill="#796254"/>
<path d="M6.43447 35.6099C6.33077 35.6045 6.22707 35.6203 6.12948 35.6564C6.03189 35.6924 5.94239 35.748 5.86627 35.8197C5.79015 35.8915 5.72895 35.9781 5.68628 36.0743C5.64362 36.1705 5.62035 36.2744 5.61786 36.3799V39.9199C5.64004 40.1256 5.73615 40.3158 5.88775 40.4539C6.03936 40.592 6.23579 40.6684 6.43939 40.6684C6.64299 40.6684 6.83942 40.592 6.99103 40.4539C7.14263 40.3158 7.23874 40.1256 7.26092 39.9199V36.3899C7.25322 36.1768 7.16316 35.9754 7.01028 35.8294C6.8574 35.6834 6.65403 35.6045 6.44431 35.6099H6.43447Z" fill="#796254"/>
<path d="M11.2751 35.61C11.0654 35.6018 10.8609 35.6781 10.7062 35.8223C10.5514 35.9665 10.4589 36.1669 10.4487 36.38V39.93C10.4487 40.1527 10.5357 40.3664 10.6907 40.5239C10.8457 40.6815 11.0559 40.77 11.2751 40.77C11.4943 40.77 11.7045 40.6815 11.8595 40.5239C12.0145 40.3664 12.1016 40.1527 12.1016 39.93V36.39C12.0978 36.2836 12.0734 36.179 12.0298 36.0822C11.9861 35.9854 11.9242 35.8983 11.8474 35.8258C11.7707 35.7534 11.6806 35.697 11.5824 35.66C11.4842 35.623 11.3798 35.606 11.2751 35.61Z" fill="#796254"/>
<path d="M16.1158 35.6099C16.0116 35.6045 15.9074 35.6203 15.8092 35.6562C15.7111 35.6921 15.6209 35.7475 15.544 35.8192C15.4671 35.8908 15.405 35.9773 15.3613 36.0735C15.3175 36.1698 15.2931 36.274 15.2893 36.3799V39.9299C15.3115 40.1356 15.4076 40.3258 15.5592 40.4639C15.7108 40.602 15.9072 40.6784 16.1108 40.6784C16.3144 40.6784 16.5109 40.602 16.6625 40.4639C16.8141 40.3258 16.9102 40.1356 16.9324 39.9299V36.3899C16.9247 36.1768 16.8346 35.9754 16.6817 35.8294C16.5288 35.6834 16.3255 35.6045 16.1158 35.6099Z" fill="#796254"/>
<path d="M20.9466 35.6099C20.8424 35.6045 20.7382 35.6203 20.64 35.6562C20.5419 35.6921 20.4517 35.7475 20.3748 35.8192C20.2979 35.8908 20.2358 35.9773 20.1921 36.0735C20.1484 36.1698 20.1239 36.274 20.1201 36.3799V39.9199C20.1201 40.1427 20.2072 40.3564 20.3622 40.5139C20.5172 40.6714 20.7274 40.7599 20.9466 40.7599C21.1658 40.7599 21.376 40.6714 21.531 40.5139C21.6859 40.3564 21.773 40.1427 21.773 39.9199V36.3899C21.7692 36.2835 21.7448 36.1789 21.7012 36.0821C21.6576 35.9853 21.5956 35.8982 21.5189 35.8258C21.4421 35.7533 21.3521 35.697 21.2539 35.6599C21.1557 35.6229 21.0512 35.6059 20.9466 35.6099Z" fill="#796254"/>
<path d="M25.7872 35.6099C25.683 35.6045 25.5788 35.6203 25.4807 35.6562C25.3825 35.6921 25.2924 35.7475 25.2155 35.8192C25.1386 35.8908 25.0765 35.9773 25.0327 36.0735C24.989 36.1698 24.9645 36.274 24.9608 36.3799V39.9299C24.9829 40.1356 25.079 40.3258 25.2306 40.4639C25.3823 40.602 25.5787 40.6784 25.7823 40.6784C25.9859 40.6784 26.1823 40.602 26.3339 40.4639C26.4855 40.3258 26.5816 40.1356 26.6038 39.9299V36.3899C26.6013 36.284 26.5781 36.1796 26.5355 36.0829C26.493 35.9861 26.4319 35.8989 26.356 35.8264C26.28 35.7538 26.1906 35.6973 26.093 35.6601C25.9953 35.623 25.8914 35.6059 25.7872 35.6099Z" fill="#796254"/>
<path d="M4.08304 43.7501C3.97837 43.7461 3.87394 43.7631 3.77574 43.8001C3.67754 43.8372 3.58748 43.8935 3.51072 43.9659C3.43397 44.0384 3.37201 44.1255 3.32841 44.2223C3.2848 44.3191 3.2604 44.4237 3.25659 44.5301V48.0801C3.2604 48.1865 3.2848 48.2911 3.32841 48.3879C3.37201 48.4847 3.43397 48.5718 3.51072 48.6442C3.58748 48.7167 3.67754 48.773 3.77574 48.8101C3.87394 48.8471 3.97837 48.8641 4.08304 48.8601C4.18852 48.8655 4.294 48.8495 4.39334 48.813C4.49268 48.7766 4.58391 48.7205 4.66173 48.6479C4.73954 48.5753 4.80238 48.4878 4.84661 48.3903C4.89083 48.2928 4.91555 48.1874 4.91933 48.0801V44.5301C4.91552 44.4237 4.89112 44.3191 4.84751 44.2223C4.80391 44.1255 4.74195 44.0384 4.6652 43.9659C4.58844 43.8935 4.49838 43.8372 4.40018 43.8001C4.30198 43.7631 4.19755 43.7461 4.09288 43.7501H4.08304Z" fill="#796254"/>
<path d="M8.91384 43.7501C8.70412 43.7447 8.50075 43.8235 8.34787 43.9696C8.19499 44.1156 8.10493 44.317 8.09723 44.5301V48.0801C8.11941 48.2858 8.21552 48.4759 8.36712 48.6141C8.51873 48.7522 8.71516 48.8286 8.91876 48.8286C9.12236 48.8286 9.31879 48.7522 9.4704 48.6141C9.622 48.4759 9.71811 48.2858 9.74029 48.0801V44.5301C9.73648 44.4237 9.71208 44.3191 9.66847 44.2223C9.62487 44.1255 9.56291 44.0384 9.48616 43.9659C9.4094 43.8935 9.31934 43.8372 9.22114 43.8001C9.12294 43.7631 9.01851 43.7461 8.91384 43.7501Z" fill="#796254"/>
<path d="M13.7741 43.7501C13.6695 43.7461 13.565 43.7631 13.4668 43.8001C13.3686 43.8372 13.2786 43.8935 13.2018 43.9659C13.1251 44.0384 13.0631 44.1255 13.0195 44.2223C12.9759 44.3191 12.9515 44.4237 12.9477 44.5301V48.0801C12.9477 48.3029 13.0348 48.5165 13.1898 48.6741C13.3447 48.8316 13.555 48.9201 13.7741 48.9201C13.9933 48.9201 14.2035 48.8316 14.3585 48.6741C14.5135 48.5165 14.6006 48.3029 14.6006 48.0801V44.5301C14.5968 44.4237 14.5724 44.3191 14.5288 44.2223C14.4852 44.1255 14.4232 44.0384 14.3465 43.9659C14.2697 43.8935 14.1796 43.8372 14.0814 43.8001C13.9832 43.7631 13.8788 43.7461 13.7741 43.7501Z" fill="#796254"/>
<path d="M18.5951 43.7501C18.4905 43.7461 18.386 43.7631 18.2878 43.8001C18.1896 43.8372 18.0996 43.8935 18.0228 43.9659C17.9461 44.0384 17.8841 44.1255 17.8405 44.2223C17.7969 44.3191 17.7725 44.4237 17.7687 44.5301V48.0801C17.7909 48.2858 17.887 48.4759 18.0386 48.6141C18.1902 48.7522 18.3866 48.8286 18.5902 48.8286C18.7938 48.8286 18.9902 48.7522 19.1418 48.6141C19.2934 48.4759 19.3896 48.2858 19.4117 48.0801V44.5301C19.404 44.317 19.314 44.1156 19.1611 43.9696C19.0082 43.8235 18.8049 43.7447 18.5951 43.7501Z" fill="#796254"/>
<path d="M23.4259 43.7501C23.3212 43.7461 23.2168 43.7631 23.1186 43.8001C23.0204 43.8372 22.9303 43.8935 22.8536 43.9659C22.7768 44.0384 22.7148 44.1255 22.6712 44.2223C22.6276 44.3191 22.6032 44.4237 22.5994 44.5301V48.0801C22.5994 48.3029 22.6865 48.5165 22.8415 48.6741C22.9965 48.8316 23.2067 48.9201 23.4259 48.9201C23.6451 48.9201 23.8553 48.8316 24.0103 48.6741C24.1653 48.5165 24.2523 48.3029 24.2523 48.0801V44.5301C24.2485 44.4237 24.2241 44.3191 24.1805 44.2223C24.1369 44.1255 24.075 44.0384 23.9982 43.9659C23.9214 43.8935 23.8314 43.8372 23.7332 43.8001C23.635 43.7631 23.5305 43.7461 23.4259 43.7501Z" fill="#796254"/>
<path d="M28.2665 43.7501C28.1618 43.7461 28.0574 43.7631 27.9592 43.8001C27.861 43.8372 27.771 43.8935 27.6942 43.9659C27.6174 44.0384 27.5555 44.1255 27.5119 44.2223C27.4683 44.3191 27.4439 44.4237 27.4401 44.5301V48.0801C27.4622 48.2858 27.5584 48.4759 27.71 48.6141C27.8616 48.7522 28.058 48.8286 28.2616 48.8286C28.4652 48.8286 28.6616 48.7522 28.8132 48.6141C28.9648 48.4759 29.0609 48.2858 29.0831 48.0801V44.5301C29.0754 44.317 28.9854 44.1156 28.8325 43.9696C28.6796 43.8235 28.4762 43.7447 28.2665 43.7501Z" fill="#796254"/>
<path d="M6.43447 51.8999C6.22474 51.8945 6.02138 51.9734 5.8685 52.1194C5.71562 52.2654 5.62556 52.4668 5.61786 52.6799V56.2299C5.64004 56.4356 5.73615 56.6258 5.88775 56.7639C6.03936 56.902 6.23579 56.9784 6.43939 56.9784C6.64299 56.9784 6.83942 56.902 6.99103 56.7639C7.14263 56.6258 7.23874 56.4356 7.26092 56.2299V52.6799C7.25322 52.4668 7.16316 52.2654 7.01028 52.1194C6.8574 51.9734 6.65403 51.8945 6.44431 51.8999H6.43447Z" fill="#796254"/>
<path d="M11.2751 51.9C11.1704 51.896 11.066 51.913 10.9678 51.95C10.8696 51.9871 10.7796 52.0434 10.7028 52.1158C10.626 52.1883 10.5641 52.2754 10.5205 52.3722C10.4769 52.469 10.4525 52.5736 10.4487 52.68V56.23C10.4487 56.4528 10.5357 56.6664 10.6907 56.824C10.8457 56.9815 11.0559 57.07 11.2751 57.07C11.4943 57.07 11.7045 56.9815 11.8595 56.824C12.0145 56.6664 12.1016 56.4528 12.1016 56.23V52.68C12.0978 52.5736 12.0734 52.469 12.0298 52.3722C11.9861 52.2754 11.9242 52.1883 11.8474 52.1158C11.7707 52.0434 11.6806 51.9871 11.5824 51.95C11.4842 51.913 11.3798 51.896 11.2751 51.9Z" fill="#796254"/>
<path d="M16.1158 51.9C16.0111 51.896 15.9067 51.913 15.8085 51.95C15.7103 51.9871 15.6202 52.0434 15.5434 52.1158C15.4667 52.1883 15.4047 52.2754 15.3611 52.3722C15.3175 52.469 15.2931 52.5736 15.2893 52.68V56.23C15.3115 56.4357 15.4076 56.6258 15.5592 56.764C15.7108 56.9021 15.9072 56.9785 16.1108 56.9785C16.3144 56.9785 16.5109 56.9021 16.6625 56.764C16.8141 56.6258 16.9102 56.4357 16.9324 56.23V52.68C16.9247 52.4669 16.8346 52.2655 16.6817 52.1195C16.5288 51.9734 16.3255 51.8946 16.1158 51.9Z" fill="#796254"/>
<path d="M20.9466 51.9C20.8419 51.896 20.7375 51.913 20.6393 51.95C20.5411 51.9871 20.451 52.0434 20.3742 52.1158C20.2975 52.1883 20.2355 52.2754 20.1919 52.3722C20.1483 52.469 20.1239 52.5736 20.1201 52.68V56.23C20.1201 56.4528 20.2072 56.6664 20.3622 56.824C20.5172 56.9815 20.7274 57.07 20.9466 57.07C21.1658 57.07 21.376 56.9815 21.531 56.824C21.6859 56.6664 21.773 56.4528 21.773 56.23V52.68C21.7692 52.5736 21.7448 52.469 21.7012 52.3722C21.6576 52.2754 21.5956 52.1883 21.5189 52.1158C21.4421 52.0434 21.3521 51.9871 21.2539 51.95C21.1557 51.913 21.0512 51.896 20.9466 51.9Z" fill="#796254"/>
<path d="M25.7872 51.9C25.6825 51.896 25.5781 51.913 25.4799 51.95C25.3817 51.9871 25.2916 52.0434 25.2149 52.1158C25.1381 52.1883 25.0762 52.2754 25.0326 52.3722C24.989 52.469 24.9646 52.5736 24.9608 52.68V56.23C24.9829 56.4357 25.079 56.6258 25.2306 56.764C25.3823 56.9021 25.5787 56.9785 25.7823 56.9785C25.9859 56.9785 26.1823 56.9021 26.3339 56.764C26.4855 56.6258 26.5816 56.4357 26.6038 56.23V52.68C26.5961 52.4669 26.506 52.2655 26.3532 52.1195C26.2003 51.9734 25.9969 51.8946 25.7872 51.9Z" fill="#796254"/>
</g>
<defs>
<clipPath id="clip0_306_58">
<rect width="55.5" height="57.01" fill="white"/>
</clipPath>
</defs>
</svg>
