<svg id="Calque_1" data-name="Calque 1" xmlns="http://www.w3.org/2000/svg" viewBox="0 0 537.02 536.99"><defs><style>.cls-1{fill:none;stroke:#000;stroke-miterlimit:10;stroke-width:25px;}</style></defs><path class="cls-1" d="M514.55,419.59l-56.76-37.84-50.46-33.63a22.33,22.33,0,0,0-30,4.87l-31.24,40.14A22.24,22.24,0,0,1,317.7,399c-21.18-11.79-46.24-22.89-101.51-78.23S149.74,240.45,138,219.27a22.23,22.23,0,0,1,5.88-28.39L184,159.7a22.35,22.35,0,0,0,4.88-30l-32.61-49L117.38,22.42A22.35,22.35,0,0,0,87.29,15.7L42.45,42.55A54.85,54.85,0,0,0,17.57,74.7C5.31,119.45,2.84,218.06,160.88,376.1S417.53,531.7,462.23,519.4a54.76,54.76,0,0,0,32.19-24.88l26.9-44.82A22.34,22.34,0,0,0,514.55,419.59Z"/></svg>