<svg id="Calque_1" data-name="Calque 1" xmlns="http://www.w3.org/2000/svg" viewBox="0 0 512.02 511.99"><path d="M502.05,407.09l-56.76-37.84-50.46-33.63a22.33,22.33,0,0,0-30,4.87l-31.24,40.14a22.24,22.24,0,0,1-28.39,5.89C284,374.73,259,363.63,203.69,308.29S137.24,228,125.49,206.77a22.23,22.23,0,0,1,5.88-28.39l40.12-31.18a22.35,22.35,0,0,0,4.88-30l-32.61-49L104.88,9.92A22.35,22.35,0,0,0,74.79,3.2L30,30.05A54.85,54.85,0,0,0,5.07,62.2C-7.19,107-9.66,205.56,148.38,363.6S405,519.2,449.73,506.9A54.76,54.76,0,0,0,481.92,482l26.9-44.82A22.34,22.34,0,0,0,502.05,407.09Z"/></svg>