<svg width="56" height="56" viewBox="0 0 56 56" fill="none" xmlns="http://www.w3.org/2000/svg">
<g clip-path="url(#clip0_688_642)">
<path d="M39.7751 25.9H38.8501V24.05H39.7751C40.5111 24.05 41.2169 23.7576 41.7373 23.2372C42.2577 22.7168 42.5501 22.011 42.5501 21.275V5.38003C43.1661 5.16221 43.6853 4.73358 44.0158 4.16994C44.3463 3.60629 44.4668 2.94393 44.3561 2.29999C44.2454 1.65604 43.9105 1.07198 43.4108 0.651083C42.911 0.230187 42.2785 -0.000433153 41.6251 6.10771e-07H13.8751C13.2217 -0.000433153 12.5892 0.230187 12.0894 0.651083C11.5896 1.07198 11.2548 1.65604 11.1441 2.29999C11.0334 2.94393 11.1539 3.60629 11.4844 4.16994C11.8149 4.73358 12.3341 5.16221 12.9501 5.38003V21.275C12.9501 22.011 13.2425 22.7168 13.7629 23.2372C14.2833 23.7576 14.9891 24.05 15.7251 24.05H16.6501V25.9H15.7251C14.4989 25.9015 13.3234 26.3893 12.4564 27.2563C11.5894 28.1233 11.1016 29.2988 11.1001 30.525C11.1001 30.7703 11.1976 31.0056 11.371 31.1791C11.5445 31.3525 11.7798 31.45 12.0251 31.45C12.0161 34.4755 12.8853 37.4387 14.5272 39.9799C16.1691 42.5212 18.5132 44.5314 21.2751 45.7667V54.575C21.2751 54.8203 21.3726 55.0556 21.546 55.2291C21.7195 55.4025 21.9548 55.5 22.2001 55.5H33.3001C33.5454 55.5 33.7807 55.4025 33.9542 55.2291C34.1276 55.0556 34.2251 54.8203 34.2251 54.575V45.7667C36.9865 44.5308 39.3302 42.5205 40.9721 39.9793C42.6139 37.4382 43.4834 34.4754 43.4751 31.45C43.7204 31.45 43.9557 31.3525 44.1292 31.1791C44.3026 31.0056 44.4001 30.7703 44.4001 30.525C44.3986 29.2988 43.9108 28.1233 43.0438 27.2563C42.1768 26.3893 41.0013 25.9015 39.7751 25.9ZM12.9501 2.775C12.9501 2.52968 13.0476 2.2944 13.221 2.12093C13.3945 1.94746 13.6298 1.85 13.8751 1.85H41.6251C41.8704 1.85 42.1057 1.94746 42.2792 2.12093C42.4526 2.2944 42.5501 2.52968 42.5501 2.775C42.5501 3.02033 42.4526 3.2556 42.2792 3.42907C42.1057 3.60255 41.8704 3.7 41.6251 3.7H13.8751C13.6298 3.7 13.3945 3.60255 13.221 3.42907C13.0476 3.2556 12.9501 3.02033 12.9501 2.775ZM15.7251 22.2C15.4798 22.2 15.2445 22.1025 15.071 21.9291C14.8976 21.7556 14.8001 21.5203 14.8001 21.275V5.55H40.7001V21.275C40.7001 21.5203 40.6026 21.7556 40.4292 21.9291C40.2557 22.1025 40.0204 22.2 39.7751 22.2H15.7251ZM37.0001 24.05V25.9H18.5001V24.05H37.0001ZM23.1251 53.65V46.4813L23.2107 46.5044C23.3032 46.5321 23.3957 46.5529 23.4882 46.5784C23.8273 46.6755 24.1696 46.7603 24.5149 46.8328C24.6803 46.8674 24.8468 46.8963 25.0133 46.9253C25.2988 46.975 25.5914 47.0178 25.8758 47.0501C26.0516 47.0709 26.2227 47.0929 26.4031 47.1079C26.78 47.1392 27.1581 47.1577 27.5362 47.1611C27.6067 47.1611 27.6749 47.1715 27.7455 47.1715C27.816 47.1715 27.8854 47.1623 27.9559 47.1611C28.334 47.1611 28.7109 47.1392 29.0879 47.1079C29.2648 47.0929 29.4405 47.0698 29.6174 47.0501C29.9042 47.0154 30.1956 46.975 30.4731 46.9253C30.643 46.8963 30.8118 46.8651 30.9807 46.8328C31.3171 46.7634 31.649 46.6801 31.9785 46.5876C32.0814 46.5587 32.1855 46.5356 32.2884 46.5044L32.3751 46.4813V53.65H23.1251ZM32.9532 44.3121C30.4636 45.3162 27.7366 45.5789 25.1011 45.0683C24.2267 44.9007 23.3711 44.6466 22.547 44.3098C19.9798 43.2814 17.7806 41.5058 16.2344 39.2128C14.6882 36.9199 13.8662 34.2155 13.8751 31.45H41.6251C41.6341 34.2158 40.8123 36.9206 39.2661 39.2139C37.7199 41.5072 35.5206 43.2833 32.9532 44.3121ZM13.1085 29.6C13.2998 29.0589 13.6542 28.5905 14.1228 28.2591C14.5914 27.9278 15.1512 27.7499 15.7251 27.75H39.7751C40.349 27.7499 40.9088 27.9278 41.3774 28.2591C41.846 28.5905 42.2004 29.0589 42.3917 29.6H13.1085Z" fill="#2A2E35"/>
<path d="M24.0499 8.3251H21.1049C20.8867 7.70793 20.4574 7.18777 19.8927 6.85654C19.3281 6.52532 18.6645 6.40437 18.0194 6.51507C17.3742 6.62576 16.7889 6.96098 16.367 7.46147C15.945 7.96196 15.7136 8.59549 15.7136 9.2501C15.7136 9.90471 15.945 10.5382 16.367 11.0387C16.7889 11.5392 17.3742 11.8744 18.0194 11.9851C18.6645 12.0958 19.3281 11.9749 19.8927 11.6437C20.4574 11.3124 20.8867 10.7923 21.1049 10.1751H24.0499C24.2952 10.1751 24.5305 10.0776 24.704 9.90418C24.8774 9.73071 24.9749 9.49543 24.9749 9.2501C24.9749 9.00478 24.8774 8.7695 24.704 8.59603C24.5305 8.42256 24.2952 8.3251 24.0499 8.3251ZM18.4999 10.1751C18.3169 10.1751 18.1381 10.1209 17.986 10.0192C17.8339 9.91757 17.7153 9.77311 17.6453 9.60409C17.5753 9.43506 17.557 9.24908 17.5927 9.06964C17.6284 8.89021 17.7164 8.72539 17.8458 8.59603C17.9752 8.46667 18.14 8.37857 18.3194 8.34288C18.4989 8.30719 18.6848 8.3255 18.8539 8.39551C19.0229 8.46553 19.1674 8.58409 19.269 8.7362C19.3706 8.88832 19.4249 9.06716 19.4249 9.2501C19.4249 9.49543 19.3274 9.73071 19.154 9.90418C18.9805 10.0776 18.7452 10.1751 18.4999 10.1751Z" fill="#F5F5F5"/>
</g>
<defs>
<clipPath id="clip0_688_642">
<rect width="55.5" height="55.5" fill="white"/>
</clipPath>
</defs>
</svg>
