<svg width="56" height="56" viewBox="0 0 56 56" fill="none" xmlns="http://www.w3.org/2000/svg">
<g clip-path="url(#clip0_306_117)">
<path d="M39.775 25.9H38.85V24.05H39.775C40.511 24.05 41.2168 23.7576 41.7372 23.2372C42.2576 22.7168 42.55 22.011 42.55 21.275V5.38003C43.166 5.16221 43.6852 4.73358 44.0157 4.16994C44.3461 3.60629 44.4667 2.94393 44.356 2.29999C44.2453 1.65604 43.9104 1.07198 43.4106 0.651083C42.9109 0.230187 42.2784 -0.000433153 41.625 6.10771e-07H13.875C13.2216 -0.000433153 12.5891 0.230187 12.0893 0.651083C11.5895 1.07198 11.2547 1.65604 11.144 2.29999C11.0332 2.94393 11.1538 3.60629 11.4843 4.16994C11.8148 4.73358 12.334 5.16221 12.95 5.38003V21.275C12.95 22.011 13.2423 22.7168 13.7628 23.2372C14.2832 23.7576 14.989 24.05 15.725 24.05H16.65V25.9H15.725C14.4988 25.9015 13.3233 26.3893 12.4563 27.2563C11.5893 28.1233 11.1015 29.2988 11.1 30.525C11.1 30.7703 11.1974 31.0056 11.3709 31.1791C11.5444 31.3525 11.7797 31.45 12.025 31.45C12.016 34.4755 12.8852 37.4387 14.5271 39.9799C16.169 42.5212 18.5131 44.5314 21.275 45.7667V54.575C21.275 54.8203 21.3724 55.0556 21.5459 55.2291C21.7194 55.4025 21.9546 55.5 22.2 55.5H33.3C33.5453 55.5 33.7806 55.4025 33.954 55.2291C34.1275 55.0556 34.225 54.8203 34.225 54.575V45.7667C36.9864 44.5308 39.3301 42.5205 40.9719 39.9793C42.6138 37.4382 43.4832 34.4754 43.475 31.45C43.7203 31.45 43.9556 31.3525 44.129 31.1791C44.3025 31.0056 44.4 30.7703 44.4 30.525C44.3984 29.2988 43.9107 28.1233 43.0437 27.2563C42.1766 26.3893 41.0011 25.9015 39.775 25.9ZM12.95 2.775C12.95 2.52968 13.0474 2.2944 13.2209 2.12093C13.3944 1.94746 13.6297 1.85 13.875 1.85H41.625C41.8703 1.85 42.1056 1.94746 42.279 2.12093C42.4525 2.2944 42.55 2.52968 42.55 2.775C42.55 3.02033 42.4525 3.2556 42.279 3.42907C42.1056 3.60255 41.8703 3.7 41.625 3.7H13.875C13.6297 3.7 13.3944 3.60255 13.2209 3.42907C13.0474 3.2556 12.95 3.02033 12.95 2.775ZM15.725 22.2C15.4797 22.2 15.2444 22.1025 15.0709 21.9291C14.8974 21.7556 14.8 21.5203 14.8 21.275V5.55H40.7V21.275C40.7 21.5203 40.6025 21.7556 40.429 21.9291C40.2556 22.1025 40.0203 22.2 39.775 22.2H15.725ZM37 24.05V25.9H18.5V24.05H37ZM23.125 53.65V46.4813L23.2105 46.5044C23.303 46.5321 23.3955 46.5529 23.488 46.5784C23.8272 46.6755 24.1695 46.7603 24.5148 46.8328C24.6801 46.8674 24.8466 46.8963 25.0131 46.9253C25.2987 46.975 25.5913 47.0178 25.8757 47.0501C26.0514 47.0709 26.2226 47.0929 26.4029 47.1079C26.7799 47.1392 27.158 47.1577 27.5361 47.1611C27.6066 47.1611 27.6748 47.1715 27.7453 47.1715C27.8159 47.1715 27.8853 47.1623 27.9558 47.1611C28.3339 47.1611 28.7108 47.1392 29.0878 47.1079C29.2647 47.0929 29.4404 47.0698 29.6173 47.0501C29.9041 47.0154 30.1954 46.975 30.4729 46.9253C30.6429 46.8963 30.8117 46.8651 30.9805 46.8328C31.317 46.7634 31.6489 46.6801 31.9784 46.5876C32.0813 46.5587 32.1853 46.5356 32.2883 46.5044L32.375 46.4813V53.65H23.125ZM32.9531 44.3121C30.4635 45.3162 27.7365 45.5789 25.101 45.0683C24.2266 44.9007 23.371 44.6466 22.5469 44.3098C19.9796 43.2814 17.7804 41.5058 16.2342 39.2128C14.6881 36.9199 13.8661 34.2155 13.875 31.45H41.625C41.634 34.2158 40.8121 36.9206 39.2659 39.2139C37.7198 41.5072 35.5205 43.2833 32.9531 44.3121ZM13.1084 29.6C13.2997 29.0589 13.654 28.5905 14.1227 28.2591C14.5913 27.9278 15.1511 27.7499 15.725 27.75H39.775C40.3489 27.7499 40.9087 27.9278 41.3773 28.2591C41.8459 28.5905 42.2003 29.0589 42.3916 29.6H13.1084Z" fill="#796254"/>
<path d="M24.05 8.3251H21.105C20.8868 7.70793 20.4575 7.18777 19.8928 6.85654C19.3282 6.52532 18.6647 6.40437 18.0195 6.51507C17.3743 6.62576 16.789 6.96098 16.3671 7.46147C15.9452 7.96196 15.7137 8.59549 15.7137 9.2501C15.7137 9.90471 15.9452 10.5382 16.3671 11.0387C16.789 11.5392 17.3743 11.8744 18.0195 11.9851C18.6647 12.0958 19.3282 11.9749 19.8928 11.6437C20.4575 11.3124 20.8868 10.7923 21.105 10.1751H24.05C24.2953 10.1751 24.5306 10.0776 24.7041 9.90418C24.8776 9.73071 24.975 9.49543 24.975 9.2501C24.975 9.00478 24.8776 8.7695 24.7041 8.59603C24.5306 8.42256 24.2953 8.3251 24.05 8.3251ZM18.5 10.1751C18.3171 10.1751 18.1382 10.1209 17.9861 10.0192C17.834 9.91757 17.7154 9.77311 17.6454 9.60409C17.5754 9.43506 17.5571 9.24908 17.5928 9.06964C17.6285 8.89021 17.7166 8.72539 17.8459 8.59603C17.9753 8.46667 18.1401 8.37857 18.3195 8.34288C18.499 8.30719 18.685 8.3255 18.854 8.39551C19.023 8.46553 19.1675 8.58409 19.2691 8.7362C19.3708 8.88832 19.425 9.06716 19.425 9.2501C19.425 9.49543 19.3276 9.73071 19.1541 9.90418C18.9806 10.0776 18.7453 10.1751 18.5 10.1751Z" fill="#796254"/>
</g>
<defs>
<clipPath id="clip0_306_117">
<rect width="55.5" height="55.5" fill="white"/>
</clipPath>
</defs>
</svg>
