<svg width="37" height="62" viewBox="0 0 37 62" fill="none" xmlns="http://www.w3.org/2000/svg">
<path d="M8.72766 57.2273V59.9999C8.72766 60.5522 9.17538 60.9999 9.72766 60.9999H11.8045C12.3568 60.9999 12.8045 60.5522 12.8045 59.9999V57.2273" stroke="#373636" stroke-width="2"/>
<path d="M31.236 1.88534C21.1066 0.409641 11.1595 1.03765 4.97759 1.90117C2.64442 2.22707 1 4.26794 1 6.62376V47.5348C1 50.076 2.90722 52.2214 5.43863 52.4437C16.6194 53.4255 25.6817 53.0881 31.1455 52.5456C33.5408 52.3078 35.2575 50.2496 35.2575 47.8425V6.66817C35.2575 4.29226 33.5871 2.22786 31.236 1.88534Z" stroke="#373636" stroke-width="2"/>
<path d="M1 38.7903H35.1966" stroke="#373636" stroke-width="2"/>
<circle cx="18.3417" cy="45.6053" r="2.95513" stroke="#373636" stroke-width="2"/>
<rect x="12.1008" y="10.6443" width="11.9951" height="6.27535" rx="1" stroke="#373636" stroke-width="2"/>
<path d="M18.5667 16.4165L20.5667 14.4165" stroke="#373636" stroke-width="2" stroke-linecap="round"/>
<path d="M6.47632 52.542V56.1576C6.47632 56.6638 6.8543 57.0905 7.35865 57.1339C8.98565 57.2737 11.6296 57.3863 14.0124 57.1485C14.5076 57.099 14.8734 56.6751 14.8734 56.1775V53.0896" stroke="#373636" stroke-width="2"/>
<path d="M27.8341 57.2273V59.9999C27.8341 60.5522 27.3864 60.9999 26.8341 60.9999H24.7573C24.205 60.9999 23.7573 60.5522 23.7573 59.9999V57.2273" stroke="#373636" stroke-width="2"/>
<path d="M30.0854 52.542V56.1576C30.0854 56.6638 29.7075 57.0905 29.2031 57.1339C27.5761 57.2737 24.9322 57.3863 22.5494 57.1485C22.0542 57.099 21.6884 56.6751 21.6884 56.1775V53.0896" stroke="#373636" stroke-width="2"/>
</svg>
